<svg width="40" height="40" viewBox="0 0 40 40" fill="none" xmlns="http://www.w3.org/2000/svg">
<g clip-path="url(#clip0_251_175994)">
<path fill-rule="evenodd" clip-rule="evenodd" d="M31.145 17.8467C31.7039 18.6475 32.0025 19.601 32 20.5775C31.9952 21.5579 31.6912 22.5135 31.1285 23.3165C30.567 24.118 29.7734 24.7281 28.8545 25.0647C29.1222 25.8001 29.1447 26.6023 28.9187 27.3515C28.6926 28.1007 28.2302 28.7566 27.6005 29.2212C26.9712 29.6837 26.2084 29.9285 25.4275 29.9185C24.6466 29.9085 23.8903 29.6442 23.273 29.1657C22.4406 30.333 21.2587 31.2055 19.898 31.6572C18.5386 32.1083 17.0709 32.1143 15.7078 31.6745C14.3435 31.2335 13.1547 30.3702 12.3133 29.2092C11.4699 28.0463 11.0165 26.6461 11.018 25.2095C11.0178 24.7755 11.058 24.3423 11.138 23.9157C10.2164 23.5854 9.42001 22.9772 8.85878 22.175C8.29637 21.371 7.99641 20.4127 8.00003 19.4315C8.00512 18.451 8.30943 17.4954 8.87228 16.6925C9.43452 15.891 10.229 15.2811 11.1485 14.945C10.8771 14.2093 10.8515 13.4054 11.0757 12.6539C11.2999 11.9024 11.7618 11.2439 12.392 10.7772C13.0217 10.3126 13.7859 10.0662 14.5683 10.0757C15.3508 10.0852 16.1088 10.3499 16.727 10.8297C17.6283 9.57131 18.9331 8.65927 20.4245 8.24525C21.9148 7.83234 23.5017 7.94327 24.92 8.5595C26.3401 9.17696 27.5064 10.2615 28.2253 11.633C28.9456 13.0065 29.1766 14.5844 28.88 16.1067C29.7965 16.4391 30.5877 17.0469 31.145 17.8467ZM17.435 18.3402L22.6865 20.7485L27.986 16.0887C28.0628 15.7043 28.101 15.3131 28.1 14.921C28.1006 13.652 27.6959 12.416 26.945 11.393C26.1959 10.3718 25.1392 9.6177 23.93 9.24124C22.722 8.8658 21.4253 8.88841 20.231 9.30575C19.0351 9.72385 18.0047 10.5143 17.291 11.561L16.4105 16.1495L17.4358 18.3395L17.435 18.3402ZM11.9998 23.921C11.8338 24.7378 11.8406 25.5803 12.0198 26.3943C12.1989 27.2083 12.5465 27.9759 13.04 28.6475C13.7932 29.6718 14.8553 30.4274 16.07 30.803C17.2833 31.1777 18.5849 31.1522 19.7825 30.7302C20.982 30.3074 22.0141 29.5109 22.727 28.4577L23.6015 23.8812L22.4353 21.6425L17.1628 19.2342L11.999 23.9202L11.9998 23.921ZM15.566 15.653L11.966 14.8002L11.9675 14.7987C11.7592 14.2205 11.7424 13.5905 11.9196 13.002C12.0968 12.4134 12.4586 11.8974 12.9515 11.5302C13.4445 11.1649 14.0426 10.9691 14.6562 10.9722C15.2697 10.9753 15.8658 11.1772 16.355 11.5475L15.566 15.653ZM11.654 15.6605C10.875 15.9186 10.1951 16.4117 9.70778 17.072C9.21927 17.7334 8.94687 18.5296 8.92781 19.3516C8.90875 20.1737 9.14395 20.9816 9.60128 21.665C10.058 22.3475 10.7143 22.8725 11.48 23.165L16.5298 18.5892L15.6035 16.6017L11.654 15.6605ZM25.3685 29.0465C24.7479 29.0454 24.1451 28.8383 23.6548 28.4577L24.4325 24.3672L28.0325 25.211C28.1898 25.6417 28.2411 26.104 28.1823 26.5588C28.1234 27.0135 27.956 27.4475 27.6943 27.824C27.4339 28.2002 27.0864 28.5078 26.6814 28.7207C26.2765 28.9336 25.826 29.0453 25.3685 29.0465ZM24.386 23.4222L28.346 24.3507C29.137 24.0831 29.8246 23.5749 30.3125 22.8972C30.8016 22.2185 31.0671 21.4043 31.0723 20.5677C31.0721 19.7615 30.8273 18.9744 30.3703 18.3102C29.914 17.647 29.2665 17.1384 28.514 16.8522L23.336 21.4047L24.386 23.4222Z" fill="white"/>
<path d="M17.4347 18.3403L22.6862 20.7485L27.9857 16.0888C28.0624 15.7043 28.1006 15.3131 28.0997 14.921C28.1002 13.652 27.6955 12.416 26.9447 11.393C26.1956 10.3719 25.1389 9.61774 23.9297 9.24128C22.7216 8.86584 21.4249 8.88845 20.2307 9.30578C19.0348 9.72389 18.0043 10.5143 17.2907 11.561L16.4102 16.1495L17.4354 18.3395L17.4347 18.3403Z" fill="#FEC514"/>
<path d="M11.9995 23.9209C11.8335 24.7377 11.8403 25.5802 12.0195 26.3942C12.1987 27.2082 12.5462 27.9757 13.0398 28.6474C13.793 29.6717 14.8551 30.4273 16.0698 30.8029C17.283 31.1776 18.5846 31.1521 19.7823 30.7301C20.9817 30.3073 22.0138 29.5108 22.7268 28.4576L23.6013 23.8811L22.435 21.6424L17.1625 19.2341L11.9988 23.9201L11.9995 23.9209Z" fill="#00BFB3"/>
<path d="M11.9659 14.8002L15.5659 15.653L16.3549 11.5475C15.8656 11.1771 15.2696 10.9753 14.656 10.9722C14.0424 10.9691 13.4443 11.1649 12.9514 11.5302C12.4584 11.8974 12.0967 12.4134 11.9195 13.0019C11.7423 13.5905 11.7591 14.2204 11.9674 14.7987" fill="#F04E98"/>
<path d="M11.6541 15.6604C10.875 15.9185 10.1951 16.4116 9.7078 17.0719C9.21929 17.7333 8.94689 18.5295 8.92783 19.3515C8.90877 20.1736 9.14397 20.9815 9.6013 21.6649C10.0581 22.3474 10.7143 22.8724 11.4801 23.1649L16.5298 18.5892L15.6036 16.6017L11.6541 15.6604V15.6604Z" fill="#1BA9F5"/>
<path d="M23.6543 28.4577C24.1446 28.8383 24.7474 29.0454 25.368 29.0464C25.8256 29.0453 26.276 28.9335 26.681 28.7206C27.0859 28.5078 27.4334 28.2001 27.6938 27.8239C27.9555 27.4474 28.1229 27.0135 28.1818 26.5587C28.2406 26.1039 28.1893 25.6417 28.032 25.2109L24.432 24.3672L23.6543 28.4577Z" fill="#93C90E"/>
<path d="M24.3859 23.4223L28.3459 24.3508C29.1369 24.0832 29.8245 23.575 30.3124 22.8973C30.8015 22.2185 31.067 21.4044 31.0722 20.5678C31.072 19.7616 30.8272 18.9744 30.3702 18.3103C29.9139 17.647 29.2664 17.1384 28.5139 16.8523L23.3359 21.4048L24.3859 23.4223V23.4223Z" fill="#0077CC"/>
</g>
<defs>
<clipPath id="clip0_251_175994">
<rect width="24" height="24" fill="white" transform="translate(8 8)"/>
</clipPath>
</defs>
</svg>
