<svg width="64" height="19" viewBox="0 0 64 19" fill="none" xmlns="http://www.w3.org/2000/svg">
<path d="M9.03326 16.8812L9.74426 16.8052L9.79026 18.2602C7.91126 18.5172 6.30526 18.6532 4.97226 18.6532C3.19926 18.6532 1.94226 18.1382 1.19926 17.1082C0.457262 16.0792 0.0932617 14.4722 0.0932617 12.3052C0.0932617 7.97222 1.82026 5.80522 5.26026 5.80522C6.92626 5.80522 8.16926 6.27522 8.98726 7.19922C9.80526 8.12322 10.2143 9.59322 10.2143 11.5782L10.1083 12.9872H1.95726C1.95726 14.3512 2.19926 15.3662 2.69926 16.0172C3.19926 16.6692 4.04826 17.0022 5.27526 17.0022C6.51726 17.0322 7.76126 16.9872 9.03326 16.8812ZM8.36626 11.5322C8.36626 10.0172 8.12326 8.94222 7.63826 8.32022C7.15426 7.69922 6.36626 7.38022 5.27526 7.38022C4.18426 7.38022 3.35126 7.71422 2.80526 8.36622C2.26026 9.01722 1.97226 10.0782 1.95726 11.5322H8.36626ZM12.7903 18.4262V0.699219H14.6383V18.4262H12.7903ZM26.3203 9.80522V15.8812C26.3203 16.5022 27.8503 16.6232 27.8503 16.6232L27.7603 18.2602C26.4573 18.2602 25.3803 18.3662 24.7303 17.7452C23.3318 18.3622 21.8188 18.6771 20.2903 18.6692C19.1543 18.6692 18.2903 18.3502 17.7003 17.6992C17.1083 17.0632 16.8053 16.1392 16.8053 14.9262C16.8053 13.7292 17.1083 12.8362 17.7153 12.2752C18.3203 11.7152 19.2753 11.3502 20.5783 11.2292L24.4573 10.8662V9.80622C24.4573 8.97222 24.2753 8.36622 23.9113 8.00222C23.5483 7.63822 23.0483 7.45722 22.4263 7.45722H17.5633V5.81922H22.3053C23.6993 5.81922 24.7153 6.13722 25.3513 6.78922C26.0023 7.42522 26.3213 8.44022 26.3213 9.80422L26.3203 9.80522ZM18.7143 14.8352C18.7143 16.3512 19.3353 17.1082 20.5933 17.1082C21.7181 17.1107 22.8351 16.9214 23.8963 16.5482L24.4563 16.3512V12.2752L20.8063 12.6232C20.0633 12.6832 19.5323 12.8962 19.1993 13.2602C18.8663 13.6232 18.7143 14.1542 18.7143 14.8352ZM33.5483 7.47222C31.7603 7.47222 30.8513 8.09222 30.8513 9.35122C30.8513 9.92622 31.0633 10.3352 31.4713 10.5782C31.8813 10.8202 32.8213 11.0632 34.2903 11.3202C35.7603 11.5782 36.7903 11.9262 37.3963 12.3962C38.0023 12.8502 38.3063 13.7142 38.3063 14.9862C38.3063 16.2602 37.8963 17.1842 37.0783 17.7752C36.2603 18.3652 35.0783 18.6692 33.5023 18.6692C32.4873 18.6692 29.0783 18.2892 29.0783 18.2892L29.1843 16.6842C31.1383 16.8662 32.5633 17.0172 33.5173 17.0172C34.4723 17.0172 35.1993 16.8662 35.6993 16.5632C36.1993 16.2602 36.4573 15.7442 36.4573 15.0332C36.4573 14.3202 36.2453 13.8352 35.8203 13.5782C35.3963 13.3202 34.4573 13.0782 33.0023 12.8502C31.5473 12.6232 30.5173 12.2902 29.9123 11.8352C29.3053 11.3962 29.0023 10.5632 29.0023 9.36522C29.0023 8.16922 29.4263 7.27522 30.2753 6.69922C31.1233 6.12322 32.1843 5.83522 33.4413 5.83522C34.4413 5.83522 37.9263 6.09322 37.9263 6.09322V7.71422C36.0933 7.60822 34.5943 7.47222 33.5483 7.47222ZM47.2453 7.68422H43.3203V13.5932C43.3203 15.0022 43.4263 15.9412 43.6233 16.3812C43.8353 16.8212 44.3203 17.0472 45.0933 17.0472L47.2903 16.8962L47.4113 18.4262C46.3053 18.6082 45.4713 18.6992 44.8963 18.6992C43.6083 18.6992 42.7293 18.3812 42.2293 17.7592C41.7293 17.1392 41.4873 15.9412 41.4873 14.1842V7.68422H39.7293V6.07822H41.4873V2.28922H43.3203V6.06222H47.2453V7.68222V7.68422ZM49.8203 3.27522V1.13822H51.6693V3.29022L49.8203 3.27522ZM49.8203 18.4262V6.07922H51.6693V18.4272L49.8203 18.4262ZM59.6993 5.82022C60.2453 5.82022 61.1693 5.92622 62.4723 6.12322L63.0623 6.19922L62.9873 7.69922C61.6693 7.54722 60.6993 7.47222 60.0773 7.47222C58.6843 7.47222 57.7293 7.80522 57.2293 8.47222C56.7293 9.13822 56.4723 10.3812 56.4723 12.1842C56.4723 13.9872 56.6993 15.2442 57.1693 15.9572C57.6393 16.6692 58.6093 17.0172 60.0933 17.0172L63.0033 16.7902L63.0783 18.3202C61.5483 18.5472 60.3963 18.6692 59.6383 18.6692C57.7143 18.6692 56.3813 18.1692 55.6543 17.1842C54.9263 16.1992 54.5483 14.5322 54.5483 12.1842C54.5483 9.83522 54.9413 8.18422 55.7293 7.24422C56.5323 6.30522 57.8513 5.82022 59.6993 5.82022Z" fill="white"/>
</svg>
