<svg width="24" height="24" viewBox="0 0 24 24" fill="none" xmlns="http://www.w3.org/2000/svg">
<path fill-rule="evenodd" clip-rule="evenodd" d="M23.6974 12.1844C23.6974 11.2043 23.6177 10.4892 23.4455 9.74744H12.2387V14.1709H18.8168C18.6842 15.2701 17.968 16.9257 16.3766 18.0381L16.3542 18.1863L19.8975 20.9274L20.1431 20.9519C22.3976 18.8727 23.6974 15.8132 23.6974 12.1844Z" fill="#4285F4"/>
<path fill-rule="evenodd" clip-rule="evenodd" d="M12.2387 23.8389C15.4615 23.8389 18.1669 22.7794 20.1431 20.9517L16.3765 18.038C15.3686 18.7401 14.0158 19.23 12.2387 19.23C9.08229 19.23 6.40333 17.1508 5.44833 14.277L5.30835 14.2888L1.62394 17.1363L1.57574 17.2698C3.53857 21.1637 7.57034 23.8389 12.2387 23.8389Z" fill="#34A853"/>
<path fill-rule="evenodd" clip-rule="evenodd" d="M5.44835 14.277C5.19638 13.5352 5.05054 12.7406 5.05054 11.9194C5.05054 11.0982 5.19638 10.3038 5.43511 9.56194L5.42844 9.40403L1.69783 6.51082L1.57576 6.56876C0.766791 8.18449 0.302628 9.99906 0.302628 11.9194C0.302628 13.8398 0.766791 15.6542 1.57576 17.2698L5.44835 14.277Z" fill="#FBBC05"/>
<path fill-rule="evenodd" clip-rule="evenodd" d="M12.2387 4.60869C14.48 4.60869 15.9919 5.57564 16.854 6.38351L20.2226 3.099C18.1538 1.17862 15.4614 0 12.2387 0C7.57034 0 3.53857 2.67522 1.57574 6.56878L5.43509 9.56193C6.40333 6.68816 9.08229 4.60869 12.2387 4.60869Z" fill="#EB4335"/>
</svg>
