<svg width="228" height="497" viewBox="0 0 228 497" fill="none" xmlns="http://www.w3.org/2000/svg">
<g clip-path="url(#clip0_250_176824)">
<path d="M130.115 299.337C130.272 344.684 167.162 381.318 212.51 381.161C257.858 381.003 294.492 344.114 294.334 298.766C294.177 253.418 257.287 216.784 211.939 216.942C166.591 217.099 129.957 253.989 130.115 299.337Z" fill="#F04E98"/>
<path d="M174.149 245.411C174.044 245.948 174.367 246.483 175.012 246.696C175.656 246.801 176.085 246.585 176.191 246.048C176.296 245.403 175.97 244.438 175.433 244.333C175.004 244.227 174.254 244.874 174.149 245.411Z" fill="#E32682"/>
<path d="M166.085 241.36C166.303 242.432 166.949 243.074 168.345 243.069C168.558 242.746 168.879 242.316 169.092 241.886C169.411 241.133 169.086 240.276 168.656 239.955C167.903 239.529 167.044 239.532 166.51 240.178C166.189 240.501 165.976 241.038 166.085 241.36Z" fill="#E32682"/>
<path d="M161.152 242.45C161.478 243.845 162.339 244.486 163.305 244.375C164.163 244.264 165.232 242.865 165.014 241.9C164.795 240.72 163.72 240.402 162.969 240.405C162.218 240.407 160.825 241.056 161.152 242.45Z" fill="#E32682"/>
<path d="M160.418 247.819C159.885 248.787 159.676 250.398 160.861 251.682C161.615 252.43 162.474 252.642 163.225 252.532C164.084 252.422 164.294 251.24 165.044 250.701C166.972 249.514 166.322 247.906 165.245 246.836C164.922 246.408 164.384 246.195 163.954 246.09C163.31 245.984 162.667 246.201 162.132 246.74C161.489 247.171 160.738 247.067 160.418 247.819Z" fill="#E32682"/>
<path d="M168.646 237.272C168.755 237.701 169.508 238.128 170.045 238.341C170.046 238.448 169.938 238.449 169.939 238.556C169.726 239.093 170.158 239.95 170.695 240.056C171.232 240.161 171.875 239.622 172.193 238.655C172.085 238.441 171.869 238.12 171.654 237.906C171.547 237.906 171.439 237.799 171.439 237.799C171.652 237.477 171.758 237.047 171.542 236.511C171.217 235.653 170.787 235.44 169.822 235.766C168.857 235.984 168.429 236.629 168.646 237.272Z" fill="#E32682"/>
<path d="M177.3 256.562C177.622 256.453 177.621 256.131 177.62 256.024C177.512 255.81 177.296 255.381 176.974 255.382C176.652 255.491 176.654 255.92 176.762 256.027C176.87 256.349 176.979 256.67 177.3 256.562Z" fill="#E32682"/>
<path d="M171.78 242.95C171.671 242.629 171.563 242.522 171.242 242.63C170.92 242.738 170.813 242.846 170.922 243.168C171.03 243.489 171.138 243.596 171.459 243.488C171.674 243.487 171.781 243.272 171.78 242.95Z" fill="#E32682"/>
<path d="M173.375 238.866C173.16 238.974 173.162 239.511 173.27 239.725C173.378 239.939 173.807 239.83 174.022 239.722C173.913 239.401 173.805 239.079 173.697 238.865C173.482 238.758 173.374 238.759 173.375 238.866Z" fill="#E32682"/>
<path d="M170.881 231.468C170.988 231.575 171.096 231.682 171.311 231.789C171.202 231.36 171.094 230.931 170.877 230.502C170.771 230.825 170.773 231.254 170.881 231.468Z" fill="#E32682"/>
<path d="M171.859 235.222C171.754 235.759 172.078 236.294 172.507 236.185L172.614 236.185C172.398 235.649 172.288 235.113 172.072 234.577C172.073 234.792 171.966 235.007 171.859 235.222Z" fill="#E32682"/>
<path d="M165.888 246.298C165.997 246.834 166.427 246.94 166.855 246.724C167.284 246.615 167.606 246.399 167.496 245.863C167.387 245.434 166.742 245.007 166.099 245.224C166.1 245.546 165.887 245.976 165.888 246.298Z" fill="#E32682"/>
<path d="M175.026 250.452C175.777 250.342 176.098 250.019 176.095 249.267C176.092 248.409 175.231 247.768 174.372 247.771C173.514 247.774 173.301 248.311 172.764 248.313C172.228 248.315 172.014 248.638 171.801 249.175C171.589 249.82 171.377 250.679 172.237 250.891C173.096 251.102 173.309 250.565 173.415 250.35C173.415 250.135 173.95 249.811 173.951 250.026C173.952 250.455 174.275 250.562 175.026 250.452Z" fill="#E32682"/>
<path d="M176.186 244.974C176.186 244.867 176.078 244.653 175.97 244.546C175.97 244.653 176.078 244.867 176.186 244.974Z" fill="#E32682"/>
<path d="M135.129 290.412C135.344 290.733 135.775 290.946 136.097 290.945C136.419 290.944 137.06 290.19 136.844 289.654C136.627 289.226 135.982 289.013 135.554 289.229C135.018 289.446 134.806 289.983 135.129 290.412Z" fill="#E32682"/>
<path d="M145.756 290.697C146.292 290.695 146.72 290.049 146.718 289.62C146.608 288.976 145.212 288.659 144.891 288.982C144.57 289.413 145.112 290.806 145.756 290.697Z" fill="#E32682"/>
<path d="M137.921 291.153C137.601 291.369 137.388 291.906 137.389 292.228C137.391 292.657 138.25 292.976 138.679 292.653C138.892 292.437 138.998 292.008 139.105 291.9C138.888 291.149 138.243 290.83 137.921 291.153Z" fill="#E32682"/>
<path d="M158.259 274.982C158.692 275.84 160.089 276.371 160.839 276.047C161.911 275.614 162.443 274.324 162.011 273.467C161.794 273.038 161.364 272.718 160.719 272.505C160.934 272.612 161.149 272.611 161.363 272.503C162.114 272.286 162.648 271.425 162.538 270.781C162.429 270.138 161.461 269.819 160.496 270.037C159.96 270.146 159.64 270.899 159.75 271.435C159.858 271.864 160.182 272.185 160.612 272.398C160.074 272.185 159.43 272.08 159.001 272.296C158.144 272.729 157.719 274.018 158.259 274.982Z" fill="#E32682"/>
<path d="M142.473 272.568C142.581 272.997 143.012 273.317 143.44 273.101C143.762 272.886 144.081 272.348 143.973 272.133C143.865 271.812 143.328 271.599 143.113 271.492C142.363 271.71 142.364 272.139 142.473 272.568Z" fill="#E32682"/>
<path d="M152.886 273.176C153.101 272.961 153.421 272.637 153.42 272.316C153.417 271.457 152.772 271.244 151.914 271.247C151.593 271.785 151.058 272.324 151.597 272.966C151.921 273.287 152.458 273.392 152.886 273.176Z" fill="#E32682"/>
<path d="M144.335 283.188C143.905 283.297 143.909 284.371 144.555 284.905C145.201 285.44 145.95 284.793 146.164 284.363C146.27 284.04 144.763 283.08 144.335 283.188Z" fill="#E32682"/>
<path d="M147.304 272.659C147.947 272.442 148.159 271.583 147.833 270.725C147.616 270.082 146.971 269.762 146.435 269.979C145.792 270.303 145.152 271.379 145.37 271.915C145.587 272.773 146.446 272.984 147.304 272.659Z" fill="#E32682"/>
<path d="M165.161 253.277C164.516 253.172 163.872 253.174 163.66 253.819C163.447 254.356 163.664 254.892 164.201 255.105C164.523 255.211 165.06 255.21 165.274 254.994C165.702 254.563 165.592 253.92 165.161 253.277Z" fill="#E32682"/>
<path d="M143.871 304.227C143.763 304.12 143.439 303.692 143.118 303.908C142.689 304.124 142.905 304.553 143.013 304.767C143.122 304.874 143.551 304.979 143.658 304.979C143.765 304.764 143.978 304.334 143.871 304.227Z" fill="#E32682"/>
<path d="M143.422 298.54C144.172 298.323 144.6 297.892 144.06 297.035C143.521 296.179 142.235 296.827 142.13 297.364C142.131 297.793 142.993 298.757 143.422 298.54Z" fill="#E32682"/>
<path d="M150.486 293.149C150.594 293.363 151.133 294.005 151.669 293.789C152.205 293.572 151.88 292.822 151.772 292.608C151.664 292.393 151.127 292.181 150.912 292.181C150.483 292.29 150.378 292.827 150.486 293.149Z" fill="#E32682"/>
<path d="M158.931 283.031C158.715 282.817 158.073 283.248 157.966 283.356C157.86 283.571 157.968 284 158.183 284.107C158.399 284.213 158.827 284.104 159.041 283.996C159.148 283.781 159.146 283.137 158.931 283.031Z" fill="#E32682"/>
<path d="M174.321 264.194C174.859 264.407 175.716 263.974 175.498 263.116C175.173 262.259 174.101 262.584 173.888 263.014C173.675 263.445 173.999 264.087 174.321 264.194Z" fill="#E32682"/>
<path d="M165.284 257.677C165.067 257.034 164.314 256.715 163.563 256.932C162.706 257.15 161.958 258.225 162.175 258.761C162.392 259.619 163.467 260.152 164.325 259.935C165.076 259.825 165.609 258.642 165.284 257.677Z" fill="#E32682"/>
<path d="M158.761 264.998C158.977 265.642 159.945 266.175 160.696 265.958C161.446 265.74 161.659 265.095 161.441 264.13C161.224 263.487 160.363 262.846 159.827 262.955C159.183 263.172 158.543 264.248 158.761 264.998Z" fill="#E32682"/>
<path d="M172.255 256.257C172.792 256.47 173.006 256.254 173.432 255.18C173.107 254.322 172.034 254.648 171.821 255.078C171.608 255.508 171.825 256.151 172.255 256.257Z" fill="#E32682"/>
<path d="M167.775 264.216C168.206 264.859 168.744 265.072 169.494 264.854C170.138 264.745 170.458 264.1 170.563 263.563C170.669 263.133 170.56 262.597 170.451 262.168C170.665 262.06 170.772 261.845 170.986 261.737C171.628 261.09 171.839 260.124 171.515 259.373C171.083 258.624 170.33 258.197 169.471 258.093C169.149 258.094 168.827 258.202 168.613 258.418C167.758 259.279 167.761 260.245 168.516 261.209C168.624 261.423 168.839 261.53 168.947 261.744C168.626 262.067 168.198 262.283 167.984 262.498C167.342 263.145 167.343 263.574 167.775 264.216Z" fill="#E32682"/>
<path d="M142.38 276.54C142.596 277.076 143.241 277.396 143.777 277.179C144.313 276.963 144.739 276.21 144.523 275.674C144.307 275.138 143.662 274.925 143.126 275.142C142.483 275.466 142.163 276.111 142.38 276.54Z" fill="#E32682"/>
<path d="M160.144 261.237C160.143 261.13 159.82 260.809 159.499 260.918C159.177 261.026 159.286 261.562 159.394 261.777C159.395 261.884 159.717 262.098 159.932 261.989C160.146 261.881 160.252 261.452 160.144 261.237Z" fill="#E32682"/>
<path d="M153.725 267.271C153.509 267.379 153.404 267.808 153.511 267.915C153.512 268.13 153.943 268.558 154.266 268.449C154.479 268.341 154.585 267.804 154.477 267.59C154.262 267.376 153.938 267.162 153.725 267.271Z" fill="#E32682"/>
<path d="M147.527 275.127C147.207 275.665 147.53 276.093 148.606 276.733C149.142 276.409 149.785 276.193 149.566 275.335C149.35 274.799 148.919 274.478 148.383 274.587C147.955 274.589 147.633 274.912 147.527 275.127Z" fill="#E32682"/>
<path d="M139.449 298.232C139.557 298.446 139.881 298.767 140.202 298.659C140.524 298.55 140.63 298.121 140.522 297.906C140.414 297.692 140.089 297.156 139.66 297.265C139.232 297.267 139.341 298.018 139.449 298.232Z" fill="#E32682"/>
<path d="M133.817 283.547C133.384 282.797 132.739 282.37 132.096 282.694C131.989 282.802 131.883 282.909 131.669 283.017C131.564 283.769 131.351 284.521 131.247 285.273C131.571 285.701 132.43 285.805 133.072 285.481C134.036 285.049 134.25 284.404 133.817 283.547Z" fill="#E32682"/>
<path d="M141.228 285.453C141.012 284.703 140.58 284.06 140.149 283.418C139.717 282.775 138.428 282.565 137.679 282.997C137.25 283.213 137.037 283.536 137.146 284.072C137.579 285.251 138.012 286.323 138.981 287.071C139.195 287.178 139.411 287.284 139.518 287.284C140.914 287.494 141.662 286.632 141.228 285.453Z" fill="#E32682"/>
<path d="M134.394 295.351C134.287 295.137 133.75 295.138 133.536 295.246C133.427 295.247 133.214 295.569 133.322 295.784C133.43 295.998 133.753 296.104 133.967 296.104C134.182 295.996 134.502 295.565 134.394 295.351Z" fill="#E32682"/>
<path d="M133.311 292.457C133.414 291.276 132.767 290.634 131.908 290.423C132.229 290.1 132.763 289.346 132.655 289.025C132.546 288.703 131.473 288.814 131.367 289.029C131.153 289.459 130.726 289.89 130.942 290.426C130.835 290.426 130.728 290.427 130.728 290.534C130.625 291.608 130.52 292.682 130.417 293.755C130.632 293.862 130.847 293.969 131.061 293.968C132.135 294.071 133.208 293.638 133.311 292.457Z" fill="#E32682"/>
<path d="M150.238 283.382C150.671 284.239 151.53 284.666 152.282 284.341C153.245 283.909 153.991 282.403 153.56 281.546C153.127 280.689 152.159 280.37 151.302 280.695C150.23 281.236 149.806 282.418 150.238 283.382Z" fill="#E32682"/>
<path d="M144.291 270.63C145.47 270.411 145.684 269.981 145.464 268.909C145.247 268.051 145.137 267.192 144.92 266.334C145.455 266.225 145.777 266.117 145.991 265.901C145.991 265.901 145.991 265.901 145.991 266.009C146.208 266.437 146.636 266.329 146.959 266.22C147.495 266.004 147.707 265.466 147.385 265.145C147.168 264.824 146.739 264.718 146.523 264.612C146.309 264.72 146.203 264.827 146.096 264.935C145.987 264.828 145.987 264.721 145.879 264.506C145.02 264.402 144.699 264.833 144.488 265.585C142.556 265.699 142.13 266.774 143.317 268.594C143.21 268.702 143.211 268.809 143.104 268.917C142.676 269.348 142.892 269.776 143.216 270.204C143.538 270.633 143.861 270.739 144.291 270.63Z" fill="#E32682"/>
<path d="M142.711 279.008C142.817 278.685 142.599 278.149 142.277 277.936C141.632 277.509 140.667 278.049 140.455 278.586C140.243 279.231 140.889 279.98 141.747 279.87C142.177 279.761 142.604 279.33 142.711 279.008Z" fill="#E32682"/>
<path d="M140.408 265.063C140.083 264.42 138.687 263.995 137.937 264.32C137.83 264.32 137.83 264.427 137.83 264.427C137.616 264.857 137.51 265.18 137.297 265.61C137.298 265.717 137.298 265.932 137.406 266.039C137.839 267.003 138.484 267.216 139.447 266.783C140.306 266.458 140.731 265.598 140.408 265.063Z" fill="#E32682"/>
<path d="M134.336 278.393C134.766 278.713 135.196 278.927 135.517 278.711C136.267 278.386 136.8 277.204 136.475 276.561C136.475 276.453 136.367 276.346 136.26 276.347C136.475 276.453 136.798 276.452 137.119 276.344C137.977 276.126 138.512 275.588 139.046 274.942C139.26 274.726 139.474 274.511 139.796 274.403C140.867 274.077 141.188 273.432 140.861 272.36C140.97 272.359 141.184 272.358 141.291 272.251C141.72 272.035 141.824 271.283 141.5 270.747C141.176 270.104 140.424 269.678 139.888 270.001C139.352 270.218 139.14 270.863 139.463 271.506C139.249 271.506 138.927 271.615 138.713 271.83C138.499 271.831 138.39 271.724 138.284 271.832C138.07 271.94 137.641 272.156 137.749 272.37C137.535 272.478 137.321 272.479 137.105 272.48C136.247 272.376 135.712 273.021 135.286 273.667C135.178 273.775 135.178 273.882 135.071 273.99C134.964 273.99 134.75 273.991 134.642 274.098C134.321 274.314 134.323 274.744 134.43 274.851C134.538 275.065 134.754 275.279 135.075 275.17C135.183 275.385 135.184 275.599 135.293 275.706C135.293 275.814 135.4 275.813 135.4 275.813C134.97 275.707 134.433 275.602 134.004 275.818C133.361 276.142 133.257 276.894 133.582 277.751C133.475 277.752 133.475 277.752 133.367 277.752C132.939 277.861 133.155 278.397 133.155 278.612C133.156 278.719 133.586 278.932 133.693 278.824C134.123 278.823 134.336 278.608 134.336 278.393Z" fill="#E32682"/>
<path d="M133.24 303.083C133.023 302.655 132.701 302.549 132.594 302.442C132.273 302.872 131.416 303.197 131.525 303.733C131.634 304.27 132.6 304.266 133.029 304.479C133.136 304.372 133.245 304.371 133.244 304.264C133.671 303.726 133.563 303.512 133.24 303.083Z" fill="#E32682"/>
<path d="M132.36 297.076C132.144 296.54 130.962 296.222 130.212 296.546C130.215 297.405 130.111 298.264 130.113 299.016C130.544 299.336 131.08 299.442 131.402 299.226C132.259 298.901 132.685 297.826 132.36 297.076Z" fill="#E32682"/>
<path d="M131.66 311.461C132.195 311.245 132.302 310.708 131.978 310.387C131.763 310.173 131.333 310.067 131.118 309.853C131.011 309.854 131.01 309.961 130.903 310.069C131.012 310.712 131.015 311.249 131.125 311.892C131.124 311.785 131.124 311.678 131.124 311.678C131.338 311.57 131.552 311.569 131.66 311.461Z" fill="#E32682"/>
<path d="M140.018 307.246C140.017 307.139 139.587 306.818 139.373 306.926C139.05 307.035 139.268 307.571 139.269 307.785C139.269 307.893 139.698 308.106 139.806 307.998C140.02 307.89 140.019 307.461 140.018 307.246Z" fill="#E32682"/>
<path d="M139.883 330.001C139.989 329.894 139.987 329.25 139.771 329.036C139.556 328.822 138.913 329.253 138.807 329.468C138.701 329.683 138.916 330.112 139.131 330.219C139.347 330.325 139.775 330.216 139.883 330.001Z" fill="#E32682"/>
<path d="M142.422 319.366C141.989 318.616 140.162 317.979 139.413 318.411C138.555 318.843 138.131 320.132 138.671 321.097C139.102 321.954 140.607 322.378 141.357 321.946C142.429 321.406 142.96 320.223 142.422 319.366Z" fill="#E32682"/>
<path d="M134.566 313.812C134.458 313.598 134.134 313.385 133.921 313.493C133.707 313.601 133.6 314.03 133.709 314.137C133.816 314.352 134.246 314.672 134.461 314.564C134.568 314.564 134.566 314.027 134.566 313.812Z" fill="#E32682"/>
<path d="M137.104 302.855C136.46 302.75 136.674 302.642 136.564 301.999C136.348 301.355 135.701 300.606 134.845 301.253C133.881 301.901 133.993 303.188 134.426 304.153C134.966 305.01 136.899 305.325 137.861 304.463C138.396 303.924 137.749 302.96 137.104 302.855Z" fill="#E32682"/>
<path d="M132.805 301.368C132.698 301.261 132.59 301.047 132.483 301.155C132.375 301.155 132.375 301.37 132.376 301.477C132.485 301.584 132.592 301.691 132.699 301.583C132.806 301.583 132.912 301.368 132.805 301.368Z" fill="#E32682"/>
<path d="M130.987 302.984C130.878 302.663 130.556 302.449 130.233 302.343C130.235 302.987 130.237 303.631 130.348 304.167C130.991 303.95 131.203 303.413 130.987 302.984Z" fill="#E32682"/>
<path d="M150.711 264.812C150.819 265.027 150.926 265.026 151.033 265.133C151.034 265.348 151.143 265.455 151.143 265.669C151.467 266.42 152.543 266.845 153.4 266.52C154.258 266.195 154.575 264.906 154.141 263.834C153.818 263.084 153.065 262.765 152.1 263.09C151.779 263.199 151.564 263.307 151.35 263.522C151.243 263.415 151.027 263.416 150.92 263.309C150.6 263.739 150.495 264.384 150.711 264.812Z" fill="#E32682"/>
<path d="M142.634 288.239C142.741 288.131 142.525 287.596 142.202 287.489C141.88 287.383 141.666 287.921 141.667 288.028C141.667 288.243 141.776 288.564 141.992 288.671C142.313 288.777 142.528 288.454 142.634 288.239Z" fill="#E32682"/>
<path d="M139.215 261.525C138.894 262.17 138.469 262.923 138.148 263.568C139.114 263.242 139.432 262.49 139.215 261.525Z" fill="#E32682"/>
<path d="M160.281 239.018C160.601 238.373 160.061 237.516 159.309 237.304C158.987 237.198 158.557 237.2 158.236 237.308C158.236 237.308 158.236 237.308 158.236 237.201C157.807 237.631 157.272 237.955 156.845 238.386C156.952 238.493 157.166 238.492 157.273 238.492C157.275 238.921 157.492 239.243 157.707 239.457C158.138 239.884 158.674 239.775 159.102 239.559C159.532 239.558 160.068 239.556 160.281 239.018Z" fill="#E32682"/>
<path d="M152.464 244.198C152.678 244.197 152.893 244.089 152.893 244.089C153.214 243.873 153.748 243.227 153.747 242.798L153.854 242.905C154.394 243.654 155.038 243.759 155.788 243.327C156.003 243.219 156.217 243.218 156.431 243.218C157.182 243.108 157.611 242.784 157.502 242.248C157.392 241.604 156.854 241.284 155.997 241.502C155.889 241.502 155.889 241.61 155.782 241.61C155.354 241.719 155.031 241.613 155.136 241.076C155.135 240.861 155.242 240.753 155.241 240.539C155.24 240.324 155.24 240.109 155.132 239.895C154.276 240.649 153.528 241.51 152.778 242.264C152.03 243.018 151.389 243.772 150.641 244.633C151.393 244.953 152.036 244.736 152.464 244.198Z" fill="#E32682"/>
<path d="M162.539 240.406C162.754 240.406 162.968 240.19 163.074 239.975C163.181 239.867 163.072 239.331 162.75 239.332C162.428 239.333 162.215 239.763 162.108 239.871C162.216 240.086 162.324 240.407 162.539 240.406Z" fill="#E32682"/>
<path d="M167.243 234.916C168.318 235.127 169.067 234.695 169.279 233.728C169.49 232.869 169.058 232.012 168.414 231.906C167.447 231.803 166.376 232.45 166.165 233.417C165.952 233.954 166.491 234.704 167.243 234.916Z" fill="#E32682"/>
<path d="M168.191 229.761C167.228 230.408 166.157 231.056 165.193 231.703C165.73 231.916 166.375 232.021 166.911 231.805C167.662 231.695 168.194 230.619 168.191 229.761Z" fill="#E32682"/>
<path d="M158.162 246.861C158.696 246.323 158.691 244.82 158.045 244.393C157.399 243.966 155.898 244.079 155.364 245.046C154.831 246.014 155.049 246.872 155.588 247.407C156.234 247.941 157.412 247.615 158.162 246.861Z" fill="#E32682"/>
<path d="M170.661 229.967C170.552 229.538 170.336 229.002 170.227 228.573C169.799 228.896 169.263 229.113 168.835 229.436C169.157 229.65 169.48 229.863 169.802 229.97C170.124 229.968 170.446 229.967 170.661 229.967Z" fill="#E32682"/>
<path d="M164.557 234.281C164.448 233.637 163.803 233.318 163.158 233.213C162.516 233.644 161.874 234.183 161.339 234.614C161.233 235.044 161.235 235.581 161.451 236.117C161.776 236.974 162.743 237.293 163.493 236.861C164.994 236.212 164.992 235.675 164.557 234.281Z" fill="#E32682"/>
<path d="M143.188 262.047C143.404 262.583 143.728 262.904 144.262 262.58C144.584 262.365 145.441 262.04 145.225 261.396C145.008 260.753 144.149 260.971 143.721 260.972C143.184 260.974 142.97 261.512 143.188 262.047Z" fill="#E32682"/>
<path d="M143.285 259.256C143.498 258.719 143.387 257.753 142.957 257.325C142.526 257.005 141.989 257.007 141.668 257.115C141.135 258.083 140.601 258.943 140.067 259.911C140.174 259.911 140.174 259.911 140.174 259.911C140.497 259.802 140.71 259.587 140.923 259.372C140.924 259.586 141.033 259.801 141.355 260.014C142.001 260.441 142.966 260.009 143.285 259.256Z" fill="#E32682"/>
<path d="M141.042 262.806C141.26 263.342 141.904 263.447 142.547 263.23C143.083 263.014 143.296 262.477 143.08 261.941C142.862 261.297 142.326 261.085 141.789 261.301C141.147 261.625 140.826 262.271 141.042 262.806Z" fill="#E32682"/>
<path d="M146.607 258.065C146.715 257.957 146.929 257.849 147.036 257.634C147.144 257.956 147.361 258.277 147.468 258.491C147.898 258.919 148.437 259.346 149.079 258.808C149.401 258.592 149.721 258.376 150.043 258.16L150.044 258.268C150.368 259.125 151.873 259.549 152.944 259.223C153.802 258.898 154.227 257.931 153.902 256.859C153.361 255.573 152.501 255.146 151.215 255.58C151 255.688 150.786 255.796 150.679 255.904C150.463 255.797 150.249 255.798 150.035 255.906C149.606 256.015 149.176 256.016 148.854 255.91C148.317 255.697 147.78 255.807 147.353 256.13C147.353 256.023 147.352 255.916 147.244 255.809C147.028 255.38 146.168 254.954 145.632 255.17C144.774 255.495 144.241 256.248 144.565 256.999C144.89 257.641 145.857 258.282 146.607 258.065Z" fill="#E32682"/>
<path d="M148.61 247.109C148.396 247.432 148.076 247.755 147.861 248.078C148.183 247.862 148.503 247.539 148.61 247.109Z" fill="#E32682"/>
<path d="M157.012 255.881C156.903 255.238 156.256 254.489 155.291 255.029C154.328 255.676 154.333 256.964 154.764 257.821C155.197 258.678 156.809 258.995 157.88 258.562C158.203 258.882 158.632 258.881 159.061 258.772C159.919 258.447 160.453 257.587 160.128 256.944C159.912 256.408 159.481 256.087 159.051 255.874C159.265 255.551 159.263 255.122 159.048 254.801C158.616 254.158 157.972 254.375 157.329 254.485C157.224 255.129 156.905 255.882 157.657 256.201C157.764 256.201 157.765 256.308 157.872 256.308C157.765 256.415 157.765 256.523 157.659 256.738L157.552 256.738C156.907 256.526 157.121 256.525 157.012 255.881Z" fill="#E32682"/>
<path d="M151.849 252.786C152.066 253.644 153.356 254.176 154.322 253.851C155.179 253.526 155.926 252.128 155.601 251.27C155.275 250.198 154.092 249.558 153.234 249.991C152.484 250.315 151.632 252.036 151.849 252.786Z" fill="#E32682"/>
<path d="M155.163 249.018C155.055 248.804 154.518 248.806 154.304 248.807C154.196 248.807 153.983 249.13 154.09 249.344C154.198 249.558 154.521 249.665 154.736 249.664C154.951 249.663 155.271 249.34 155.163 249.018Z" fill="#E32682"/>
<path d="M149.596 253.009C149.488 252.688 149.057 252.367 148.628 252.261C148.734 251.939 148.625 251.51 148.625 251.295C148.515 250.866 148.299 250.545 147.763 250.654C147.226 250.763 146.8 251.409 147.123 251.837C147.231 252.051 147.447 252.265 147.769 252.479C147.449 252.802 147.344 253.232 147.452 253.661C147.668 254.196 148.314 254.624 148.743 254.407C149.172 254.299 149.705 253.438 149.596 253.009Z" fill="#E32682"/>
</g>
<g clip-path="url(#clip1_250_176824)">
<path d="M92.2648 818.446L90.6131 343.145C90.5895 336.337 84.5795 330.838 77.1894 330.864C69.7993 330.89 63.8276 336.43 63.8513 343.238L65.5029 818.539C65.5266 825.347 71.5366 830.846 78.9267 830.82C86.3168 830.794 92.2884 825.254 92.2648 818.446Z" fill="#E6EBF2"/>
<path d="M30.0821 893.998L28.4305 418.698C28.4069 411.889 22.3969 406.391 15.0068 406.417C7.61669 406.442 1.64502 411.982 1.66868 418.791L3.32029 894.091C3.34395 900.9 9.35397 906.398 16.7441 906.373C24.1341 906.347 30.1058 900.807 30.0821 893.998Z" fill="#E6EBF2"/>
<path d="M63.6374 281.6C63.6611 288.409 69.6711 293.907 77.0612 293.882C84.4513 293.856 90.4229 288.316 90.3993 281.507C90.3756 274.699 84.3656 269.201 76.9755 269.226C69.5854 269.252 63.6138 274.792 63.6374 281.6Z" fill="#E6EBF2"/>
<path d="M63.447 226.81C63.4707 233.619 69.4807 239.117 76.8708 239.092C84.2608 239.066 90.2325 233.526 90.2089 226.717C90.1852 219.909 84.1752 214.41 76.7851 214.436C69.395 214.462 63.4233 220.002 63.447 226.81Z" fill="#E6EBF2"/>
</g>
<g clip-path="url(#clip2_250_176824)">
<path d="M188.551 52.9949C188.979 52.6714 189.514 52.4548 189.943 52.1313C189.728 52.0247 189.405 52.0258 189.084 52.1343C188.87 52.3498 188.657 52.6725 188.551 52.9949Z" fill="#E6EBF2"/>
<path d="M193.366 49.1146C193.476 49.4362 193.691 49.7574 193.906 49.9713C194.656 49.5393 195.406 49.1075 196.263 48.6751C196.262 48.4604 196.262 48.2458 196.154 48.0315C195.828 47.174 194.861 46.6406 194.325 46.9644C193.682 47.1814 193.15 48.4712 193.366 49.1146Z" fill="#E6EBF2"/>
<path d="M187.136 47.7405C187.138 48.1698 187.891 48.4892 188.212 48.2734C188.425 48.058 188.532 47.6283 188.531 47.3063C188.422 47.0921 187.991 46.4494 187.669 46.5579C187.241 46.6668 187.135 47.4185 187.136 47.7405Z" fill="#E6EBF2"/>
<path d="M227.009 31.8245C226.902 31.7175 226.901 31.6102 226.794 31.5033C226.576 30.9673 226.255 30.8611 225.718 30.8629C225.181 30.8648 224.968 31.1875 224.755 31.6176C224.329 32.6924 224.438 33.1214 225.513 33.547C226.158 33.7594 226.803 34.0792 227.447 34.2917C227.125 34.5074 227.02 34.8297 227.021 35.2591C227.021 35.3665 227.129 35.5807 227.237 35.6877C227.881 35.4709 228.525 35.2539 229.275 35.0367C229.167 34.8223 229.058 34.6081 228.843 34.3942C229.804 32.7808 229.157 31.8171 227.009 31.8245Z" fill="#E6EBF2"/>
<path d="M213.515 40.6727C214.158 40.4558 214.694 40.2392 215.337 39.915C215.122 39.5937 214.692 39.4879 214.264 39.5967C213.728 39.8133 213.406 40.1364 213.515 40.6727Z" fill="#E6EBF2"/>
<path d="M225.199 36.0165C224.982 35.3733 224.231 35.1611 223.265 35.3792C222.514 35.5965 222.194 36.1343 222.411 36.7775C222.412 36.8849 222.519 36.9918 222.627 37.0988C223.484 36.7738 224.343 36.5561 225.2 36.2311C225.2 36.2311 225.199 36.1239 225.199 36.0165Z" fill="#E6EBF2"/>
<path d="M198.177 43.5168C197.853 43.196 197.209 43.091 196.889 43.4141C196.46 43.8448 197.001 45.0236 197.43 45.0221C197.86 45.0206 198.5 43.9451 198.177 43.5168Z" fill="#E6EBF2"/>
<path d="M217.577 35.506C217.255 35.7217 217.149 36.1514 216.936 36.3668C217.152 36.7954 217.582 37.0086 218.012 37.0071C218.012 37.1144 218.013 37.2218 218.013 37.2218C218.014 37.5437 218.229 37.9724 218.444 38.1862C219.197 38.613 219.732 38.1817 220.16 37.5363C219.835 36.8934 219.726 36.2498 218.868 36.3601L218.761 36.3604C218.76 36.2532 218.76 36.1458 218.652 35.9316C218.542 35.5026 218.006 35.1825 217.577 35.506Z" fill="#E6EBF2"/>
<path d="M200.976 45.9761C201.191 45.9753 201.728 45.8661 201.727 45.6515C201.833 45.329 201.831 44.7924 201.615 44.5784C201.185 44.1506 200.756 44.4741 200.327 44.6902C200.223 45.3346 200.332 45.8709 200.976 45.9761Z" fill="#E6EBF2"/>
<path d="M224.709 18.7379C224.923 18.3078 224.386 18.2024 224.171 18.0958C224.063 18.0962 223.635 18.3123 223.635 18.3123C223.636 18.527 223.744 18.8486 223.959 18.9551C224.066 19.0621 224.603 19.1676 224.709 18.7379Z" fill="#E6EBF2"/>
<path d="M202.309 27.7237C202.523 27.6156 202.736 27.2929 202.735 27.1855C202.735 27.0782 202.305 26.543 202.089 26.6511C201.876 26.7592 201.878 27.2958 201.878 27.5106C201.879 27.6178 202.201 27.8314 202.309 27.7237Z" fill="#E6EBF2"/>
<path d="M196.944 28.6017C196.729 28.2804 195.974 27.5317 195.546 27.6406C195.117 27.7494 195.227 28.8224 195.335 28.9292C195.659 29.2501 196.09 29.678 196.625 29.5689C197.162 29.4596 197.052 28.816 196.944 28.6017Z" fill="#E6EBF2"/>
<path d="M210.894 27.6946C211.86 27.262 212.39 25.3281 211.634 24.3646C211.094 23.6153 210.131 24.2626 209.919 24.8C209.706 25.4447 209.705 25.1227 209.061 25.2323C208.417 25.3419 207.561 25.8815 208.102 26.9529C208.642 28.0244 209.931 28.1273 210.894 27.6946Z" fill="#E6EBF2"/>
<path d="M226.773 25.2773C226.557 25.3854 226.451 25.4931 226.344 25.6008C226.238 25.8158 226.347 26.3521 226.561 26.4588C226.777 26.458 227.097 26.1349 227.097 26.0275C227.096 25.8128 227.095 25.5982 227.094 25.3836C227.417 25.4897 227.845 25.381 228.168 25.2725C229.025 24.9475 229.664 23.55 229.34 22.6924C228.906 21.7279 227.939 21.0872 227.08 21.3049C226.973 21.1979 226.758 21.0913 226.758 21.0913C226.542 21.092 226.221 21.0931 226.115 21.4155C226.009 21.6306 226.117 21.8449 226.224 21.9519C225.69 22.5977 225.479 23.5645 225.588 24.2081C225.804 24.744 226.235 25.1718 226.773 25.2773Z" fill="#E6EBF2"/>
<path d="M221.311 28.9462C221.203 28.732 220.666 28.6265 220.452 28.7346C220.238 28.8427 220.024 29.0581 220.132 29.3797C220.241 29.5939 220.563 29.7002 220.777 29.6995C220.992 29.5913 221.419 29.1606 221.311 28.9462Z" fill="#E6EBF2"/>
<path d="M215.278 22.7411C215.17 22.5267 214.849 22.5279 214.633 22.5286C214.526 22.529 214.098 22.8525 214.207 23.1742C214.315 23.4958 214.852 23.3866 215.066 23.3858C215.065 23.1712 215.278 22.8483 215.278 22.7411Z" fill="#E6EBF2"/>
<path d="M171.524 64.5397C171.524 64.4324 171.524 64.4324 171.524 64.4324C171.306 63.8965 170.662 63.684 170.125 63.9006C169.591 64.1171 169.377 64.6546 169.595 65.2978C169.703 65.512 169.81 65.619 169.918 65.8333C170.453 65.2948 170.989 64.971 171.524 64.5397Z" fill="#E6EBF2"/>
<path d="M167.982 64.552C167.874 64.3377 167.659 64.3384 167.552 64.4461C167.445 64.4465 167.446 64.7685 167.446 64.8759C167.447 64.9832 167.661 65.0897 167.768 65.0894C167.877 65.089 168.09 64.7663 167.982 64.552Z" fill="#E6EBF2"/>
<path d="M166.488 67.0259C166.488 66.9186 166.057 66.4908 165.842 66.4915C165.627 66.5996 165.629 67.1362 165.63 67.351C165.63 67.4582 166.061 67.6714 166.167 67.5637C166.274 67.456 166.489 67.2406 166.488 67.0259Z" fill="#E6EBF2"/>
<path d="M167.53 57.8982C167.421 57.5766 166.885 57.5785 166.777 57.5788C166.563 57.687 166.457 58.0093 166.458 58.2239C166.458 58.3313 166.888 58.5444 166.996 58.544C167.21 58.5433 167.638 58.2198 167.53 57.8982Z" fill="#E6EBF2"/>
<path d="M179.651 55.7093C179.433 55.1735 178.681 54.8541 178.145 55.0706C177.609 55.287 177.397 55.8245 177.613 56.3604C177.83 57.0037 178.476 57.3234 179.012 57.1068C179.439 56.8907 179.759 56.1383 179.651 55.7093Z" fill="#E6EBF2"/>
<path d="M187.473 51.9259C188.223 51.7087 188.436 50.9566 188.003 49.992C187.786 49.2415 187.141 48.9217 186.605 49.1383C185.962 49.3552 185.215 50.6458 185.431 51.1817C185.756 52.0393 186.509 52.2513 187.473 51.9259Z" fill="#E6EBF2"/>
<path d="M175.459 54.0076C175.35 53.5786 174.275 53.2603 173.955 53.4761C173.74 53.6914 173.742 54.2281 173.85 54.5498C173.96 54.9787 174.282 55.2996 174.819 55.0831C175.248 54.8669 175.675 54.6508 175.459 54.0076Z" fill="#E6EBF2"/>
<path d="M164.459 70.1452C164.244 69.9314 163.493 69.8266 163.17 69.8277C162.74 69.8292 162.528 70.3665 162.744 70.9025C162.852 71.1168 162.961 71.2238 163.068 71.3308C163.496 70.8999 164.031 70.5761 164.459 70.1452Z" fill="#E6EBF2"/>
<path d="M134.943 101.483C134.943 101.375 134.943 101.375 134.943 101.268C134.727 100.839 134.189 100.519 133.653 100.736C133.116 100.845 132.797 101.49 133.013 101.919C133.229 102.347 133.659 102.561 134.196 102.559C134.409 102.129 134.622 101.806 134.943 101.483Z" fill="#E6EBF2"/>
<path d="M149.446 73.7393C149.445 73.6319 149.121 73.311 148.799 73.4195C148.478 73.528 148.587 74.0642 148.695 74.2786C148.695 74.3858 149.019 74.5995 149.233 74.4913C149.447 74.276 149.553 73.9536 149.446 73.7393Z" fill="#E6EBF2"/>
<path d="M137.713 95.1393C137.603 94.3883 137.172 93.9606 136.527 93.7481C135.775 93.5361 135.346 93.8596 135.027 94.3973C134.813 94.8274 133.958 95.6891 134.39 96.3316C134.82 96.974 135.356 96.5428 135.678 96.5417C136.751 96.7527 137.823 95.9976 137.713 95.1393Z" fill="#E6EBF2"/>
<path d="M128.963 109.875C128.856 109.875 128.749 109.876 128.641 109.983C128.533 109.984 128.321 110.414 128.428 110.521L128.536 110.628C128.642 110.413 128.857 110.09 128.963 109.875Z" fill="#E6EBF2"/>
<path d="M142.847 89.862C142.739 89.5404 142.309 89.5419 142.202 89.5423C141.988 89.6503 141.881 89.9728 141.881 90.1874C141.882 90.2947 142.312 90.5079 142.312 90.5079C142.419 90.4001 142.848 90.184 142.847 89.862Z" fill="#E6EBF2"/>
<path d="M157.183 76.5029C157.075 76.2886 156.752 76.075 156.538 76.1831C156.323 76.2913 156.217 76.7209 156.324 76.8279C156.325 76.9352 156.434 77.0422 156.541 77.1491C156.755 76.9337 156.968 76.7184 157.183 76.5029Z" fill="#E6EBF2"/>
<path d="M142.615 85.2485C142.829 84.8184 142.828 84.3891 142.397 84.176C141.751 83.6415 141.215 83.9653 140.573 84.3969C140.683 85.1479 140.578 85.7922 141.33 86.0044C141.867 86.0025 142.295 85.679 142.615 85.2485Z" fill="#E6EBF2"/>
<path d="M181.131 49.1568C181.667 49.0476 181.986 48.4025 181.878 47.8661C181.768 47.2225 181.338 47.0094 180.694 47.2263C180.051 47.4432 179.732 47.9809 179.948 48.5169C180.165 48.9454 180.702 49.2657 181.131 49.1568Z" fill="#E6EBF2"/>
<path d="M190.211 36.5675C190.102 36.3533 189.887 36.354 189.781 36.4618C189.674 36.4622 189.675 36.7841 189.675 36.8915C189.675 36.9987 189.89 37.1054 189.997 37.105C190.104 37.1046 190.318 36.6745 190.211 36.5675Z" fill="#E6EBF2"/>
<path d="M205.227 33.7242C205.011 33.1884 204.26 33.2982 203.938 33.4067C203.509 33.4082 203.188 33.7313 203.297 34.2676C203.407 34.8039 204.053 35.231 204.373 35.0153C204.695 34.7994 205.444 34.2602 205.227 33.7242Z" fill="#E6EBF2"/>
<path d="M195.999 34.1866C195.673 33.329 194.921 32.9024 194.278 33.2266C193.421 33.5516 192.995 34.7337 193.212 35.5916C193.43 36.2348 194.396 36.4462 195.146 36.1216C196.004 35.7966 196.323 35.0442 195.999 34.1866Z" fill="#E6EBF2"/>
<path d="M185.153 32.7211C185.152 32.3989 184.935 31.9705 184.72 31.8638C184.076 31.6513 183.541 32.2973 183.435 32.6197C183.436 32.9416 183.975 33.5837 184.618 33.3669C184.939 33.2584 185.261 32.9353 185.153 32.7211Z" fill="#E6EBF2"/>
<path d="M216.168 31.5395C216.491 32.1824 217.136 32.3947 217.565 32.0713C217.994 31.8552 217.992 31.5332 217.775 31.1046C217.559 30.5686 217.129 30.3555 216.702 30.6789C216.487 31.0017 216.274 31.3244 216.168 31.5395Z" fill="#E6EBF2"/>
<path d="M208.339 33.4987C208.127 34.1434 208.129 34.7874 208.668 35.3223C209.099 35.7501 210.494 35.5305 210.921 34.9924C211.348 34.5616 211.777 34.1308 211.344 33.3809C211.021 32.8454 210.697 32.3098 210.481 31.774C210.371 31.023 209.94 30.8098 209.297 30.9194C208.653 31.029 208.332 31.5667 208.443 32.3177C208.445 32.747 208.553 33.176 208.339 33.4987Z" fill="#E6EBF2"/>
<path d="M176.504 45.6321C176.286 44.9889 175.641 44.6691 175.105 44.8856C174.568 45.1022 174.25 45.8547 174.465 46.2831C174.682 46.7117 175.435 47.0311 175.864 46.9224C176.398 46.5985 176.612 46.1684 176.504 45.6321Z" fill="#E6EBF2"/>
<path d="M170.077 49.6241C170.076 49.3022 169.107 48.4468 168.571 48.6634C168.035 48.8799 168.147 50.1676 168.256 50.5964C168.364 50.918 169.01 51.3452 169.546 51.2361C170.082 51.0194 170.186 50.1604 170.077 49.6241Z" fill="#E6EBF2"/>
<path d="M192.815 44.8232C194.103 44.7113 194.527 43.6365 193.88 42.6727C193.449 42.0302 192.911 41.4955 192.372 40.9606C191.726 40.4263 190.439 40.6454 189.904 41.1839C189.582 41.507 189.05 42.4749 189.91 43.0086C191.628 43.1099 191.095 44.1851 192.278 44.7177C192.385 44.8247 192.707 44.8236 192.815 44.8232Z" fill="#E6EBF2"/>
<path d="M224.207 28.9362C223.777 28.8303 223.242 28.9396 223.244 29.4762C223.245 29.7981 223.462 30.4415 223.783 30.4404C224.106 30.5465 224.535 30.223 224.856 30.1147C224.96 29.363 224.638 29.042 224.207 28.9362Z" fill="#E6EBF2"/>
<path d="M183.347 38.523C183.131 37.987 182.486 37.6673 181.843 37.8843C181.199 38.1011 180.986 38.7458 181.204 39.389C181.42 39.925 182.065 40.1374 182.601 39.9209C183.244 39.7041 183.564 39.0588 183.347 38.523Z" fill="#E6EBF2"/>
<path d="M200.941 36.2085C200.832 35.6722 200.187 35.3524 199.544 35.5694C198.901 35.7862 198.58 36.3241 198.798 36.8599C199.014 37.3959 199.552 37.716 200.088 37.4994C200.731 37.39 201.159 36.7444 200.941 36.2085Z" fill="#E6EBF2"/>
<path d="M204.492 38.5567C204.275 38.0208 203.523 37.8087 203.095 38.0249C202.559 38.2414 202.346 38.7789 202.563 39.4221C202.78 40.0653 203.425 40.3851 204.068 40.0608C204.497 39.952 204.708 39.0927 204.492 38.5567Z" fill="#E6EBF2"/>
<path d="M208.371 42.8369C209.55 42.2962 210.836 41.755 212.122 41.214L212.229 41.1062C212.657 40.5681 212.332 39.6032 211.578 39.1764C211.04 38.8563 210.075 38.967 209.647 39.3979C209.005 40.0441 209.331 40.9017 209.546 41.1155C208.903 41.4398 208.369 42.193 208.371 42.8369Z" fill="#E6EBF2"/>
<path d="M182.223 54.52C182.973 54.1954 183.506 53.0129 183.18 52.1553C182.964 51.6194 182.105 51.4078 181.462 51.6247C180.603 51.9496 180.178 52.7025 180.502 53.5601C180.934 54.3099 181.687 54.7365 182.223 54.52Z" fill="#E6EBF2"/>
<path d="M146.92 211.889C147.179 286.638 207.986 347.025 282.737 346.766C357.486 346.506 417.873 285.698 417.613 210.949C417.353 136.198 356.546 75.8121 281.796 76.0719C207.046 76.3316 146.66 137.139 146.92 211.889Z" fill="#E6EBF2"/>
<path d="M231.811 85.6896C230.632 86.2302 229.346 86.6641 228.167 87.2049C228.168 87.4195 228.276 87.6339 228.384 87.7408C227.954 87.635 227.524 87.5291 227.096 87.7452C225.917 88.0713 225.062 89.577 225.389 90.7565C224.964 92.046 226.043 93.4377 227.007 93.2196C227.973 92.8942 228.078 92.3573 228.401 92.4634C228.723 92.677 229.262 93.3191 229.798 93.1026C230.441 92.8857 230.541 90.846 230.326 90.5248C230.109 90.2034 229.463 89.5617 229.998 89.1305C230.534 88.6994 231.392 88.589 231.498 87.8373C231.71 87.4072 231.921 86.5478 231.811 85.6896Z" fill="#D3DAE0"/>
<path d="M230.565 97.7141C231.531 97.3888 232.171 96.3132 231.845 95.3483C231.627 94.3831 230.124 93.9589 228.837 94.2854C228.085 94.5027 227.766 95.1478 227.768 95.7918C226.911 95.9021 226.376 96.6553 226.055 97.0858C225.629 97.6239 226.705 98.8009 227.779 98.9045C228.53 98.9019 228.852 98.5788 229.064 97.9339C229.063 97.8267 229.063 97.7193 229.17 97.719C229.601 97.9321 230.03 97.9306 230.565 97.7141Z" fill="#D3DAE0"/>
<path d="M153.049 215.301C153.374 215.836 154.447 216.047 155.198 215.616C156.161 215.075 156.374 214.322 155.834 213.359C155.401 212.502 154.542 212.183 153.899 212.507C153.042 213.046 152.618 214.551 153.049 215.301Z" fill="#D3DAE0"/>
<path d="M147.468 215.427C147.36 215.214 147.145 215.107 146.931 214.999C146.934 215.859 146.937 216.717 147.047 217.575C147.582 217.038 147.792 215.963 147.468 215.427Z" fill="#D3DAE0"/>
<path d="M219.838 99.4693C219.944 99.147 219.942 98.7176 219.834 98.396C220.369 97.8574 220.904 97.319 220.365 96.6767C219.826 96.0346 219.29 96.2511 218.756 96.6823C218.647 96.5755 218.432 96.4688 218.325 96.4692C217.357 96.1506 215.751 97.0148 215.432 98.0892C215.115 99.1636 215.977 100.341 217.374 100.766C218.448 101.084 219.413 100.437 219.838 99.4693Z" fill="#D3DAE0"/>
<path d="M175.899 180.767C176.006 180.766 176.112 180.445 176.112 180.445C176.005 180.337 175.897 180.123 175.682 180.124C175.467 180.124 175.575 180.338 175.469 180.554C175.576 180.661 175.684 180.768 175.899 180.767Z" fill="#D3DAE0"/>
<path d="M200.996 113.381C200.995 113.166 201.101 112.951 201.1 112.736C201.097 111.878 200.665 111.128 199.805 110.701C198.946 110.275 198.302 110.385 197.553 111.246C196.805 112.107 196.701 113.074 196.812 114.146C196.276 114.363 195.848 114.472 195.419 114.688C194.24 115.443 194.244 116.517 195.535 117.264C196.394 117.69 197.253 117.58 197.788 116.826C198.002 116.826 198.216 116.718 198.216 116.718C198.538 116.502 199.179 115.748 199.177 115.319C199.285 115.319 199.285 115.426 199.285 115.426C199.932 116.282 200.576 116.387 201.433 115.955C201.648 115.847 201.969 115.846 202.185 115.845C203.043 115.735 203.471 115.304 203.469 114.767C203.359 114.016 202.714 113.697 201.749 114.022C201.642 114.022 201.535 114.13 201.535 114.237C201.212 114.024 200.89 113.918 200.996 113.381ZM198.424 114.677C198.317 114.678 198.317 114.678 198.424 114.677V114.677Z" fill="#D3DAE0"/>
<path d="M218.453 102.48C218.669 102.908 219.743 103.119 220.279 102.795C220.708 102.579 220.813 101.935 220.489 101.507C219.949 100.65 219.304 100.33 218.876 100.546C218.554 100.762 218.237 102.051 218.453 102.48Z" fill="#D3DAE0"/>
<path d="M215.634 94.4387C214.991 94.6557 214.671 95.1934 214.887 95.7294C215.104 96.3726 215.749 96.7997 216.285 96.5831C216.822 96.3666 217.142 95.7215 216.924 95.0783C216.815 94.4346 216.277 94.2219 215.634 94.4387Z" fill="#D3DAE0"/>
<path d="M222.187 95.704C221.975 96.3487 222.405 96.9913 222.943 97.204C223.587 97.3092 224.337 96.8772 224.444 96.3401C224.549 95.8031 224.117 95.1606 223.58 95.0551C222.827 94.7358 222.292 95.0596 222.187 95.704Z" fill="#D3DAE0"/>
<path d="M209.743 98.1088C209.102 98.755 208.889 99.6145 209.215 100.472C209.648 101.437 210.293 101.756 211.151 101.646C211.151 101.753 211.152 101.861 211.259 101.86C211.691 102.717 212.981 103.25 213.946 102.817C214.91 102.492 215.656 100.986 215.225 100.129C214.899 99.2716 214.039 98.6305 213.179 98.5263C213.071 98.3119 212.963 98.0976 212.749 97.991C212.962 97.7757 213.068 97.4533 213.174 97.1308C213.387 96.2715 213.062 95.6287 212.309 95.2019C211.345 95.7419 210.381 96.3893 209.417 97.0366C209.527 97.5729 209.636 97.8945 209.743 98.1088Z" fill="#D3DAE0"/>
<path d="M163.552 210.647C163.444 210.434 162.907 210.113 162.586 210.222C162.263 210.331 162.266 211.189 162.481 211.402C162.59 211.617 163.128 211.723 163.341 211.508C163.555 211.399 163.66 210.863 163.552 210.647Z" fill="#D3DAE0"/>
<path d="M169.633 138.176C168.454 138.717 168.03 140.007 168.679 141.4C168.679 141.508 168.787 141.615 168.787 141.615C168.141 141.294 167.497 141.19 166.854 141.406C166.211 141.624 165.998 142.59 166.324 143.448C166.757 144.412 167.616 144.732 168.689 144.298C169.439 143.973 169.972 143.006 169.755 142.47C169.754 142.363 169.647 142.363 169.647 142.256C170.292 142.575 171.043 142.572 171.686 142.249C171.901 142.141 172.115 141.925 172.328 141.817C172.33 142.139 172.439 142.46 172.654 142.782C172.548 142.997 172.549 143.318 172.657 143.533C172.873 144.069 173.625 144.388 174.269 144.386C175.022 144.49 175.986 144.059 176.52 143.197C176.84 142.552 177.052 141.907 178.017 141.904C178.661 141.902 178.767 141.15 178.765 140.506C178.011 139.972 177.367 140.082 177.048 140.727C176.189 140.408 175.651 140.087 175.006 139.983C174.362 139.878 173.504 140.311 172.969 140.849C172.968 140.419 172.859 139.883 172.642 139.347C171.564 137.956 170.919 137.635 169.633 138.176Z" fill="#D3DAE0"/>
<path d="M188.192 135.321C187.655 135.323 187.443 135.968 187.659 136.504C187.876 137.148 188.306 137.361 188.842 137.036C189.163 136.821 190.128 136.388 189.911 135.745C189.587 135.209 188.621 135.32 188.192 135.321Z" fill="#D3DAE0"/>
<path d="M187.444 136.505C187.228 135.862 186.582 135.542 185.939 135.759C185.296 136.083 184.869 136.836 185.194 137.371C185.41 137.907 186.162 138.12 186.805 137.796C187.341 137.687 187.661 137.041 187.444 136.505Z" fill="#D3DAE0"/>
<path d="M205.69 136.226C205.69 136.334 206.121 136.547 206.335 136.439C206.55 136.331 206.548 135.901 206.547 135.687C206.547 135.579 206.116 135.152 205.794 135.26C205.473 135.368 205.582 136.012 205.69 136.226Z" fill="#D3DAE0"/>
<path d="M199.74 122.508C199.848 122.723 200.171 122.936 200.385 122.935C200.599 122.935 201.028 122.504 200.919 122.182C200.811 121.86 200.168 121.97 199.952 121.971C199.952 121.971 199.632 122.294 199.74 122.508Z" fill="#D3DAE0"/>
<path d="M181.191 128.369C180.974 127.726 180.222 127.407 179.686 127.623C179.15 127.84 178.83 128.592 179.047 129.235C179.263 129.664 179.587 129.985 180.123 129.876C179.909 130.199 179.91 130.521 180.018 130.842C180.128 131.164 180.881 131.698 181.419 132.018C181.419 132.125 181.311 132.233 181.312 132.34C180.989 132.02 180.559 131.914 179.915 131.916C178.306 132.029 177.45 132.998 177.454 134.071C177.456 134.715 178.103 135.572 178.857 135.998C178.428 136.322 178.214 136.859 178.432 137.395C178.648 137.931 179.293 138.143 179.936 137.926C180.581 138.354 181.442 138.565 182.085 138.349C183.156 138.022 183.474 136.734 183.04 135.447C182.824 134.804 182.393 134.483 181.962 134.27L181.962 134.163C182.501 134.698 183.252 134.695 184.217 134.37C184.539 134.261 184.86 134.045 185.073 133.83C185.183 134.044 185.291 134.366 185.506 134.58C186.151 135.007 187.223 134.574 187.542 133.821C187.863 133.176 187.643 132.104 187.106 131.676C186.352 131.035 185.495 131.467 185.174 131.683C184.742 130.933 183.882 130.507 183.023 130.51C183.022 130.402 182.915 130.188 182.914 130.081C182.589 129.331 181.944 129.118 180.98 129.444C181.3 128.906 181.298 128.584 181.191 128.369Z" fill="#D3DAE0"/>
<path d="M190.316 128.767C189.352 129.093 188.818 130.06 189.142 130.811C189.468 131.775 190.651 132.415 191.401 132.091C191.615 131.983 191.722 131.875 191.828 131.553C191.938 131.982 192.153 132.303 192.368 132.517C192.907 132.944 193.445 133.372 194.194 132.832C194.516 132.509 194.943 132.293 195.265 132.077L195.266 132.185C195.59 133.042 197.309 133.573 198.489 133.247C199.455 132.921 199.986 131.739 199.554 130.667C199.012 129.166 198.044 128.74 196.543 129.175C196.329 129.283 196.114 129.391 195.9 129.499C195.686 129.392 195.363 129.394 195.149 129.394C194.719 129.503 194.29 129.612 193.861 129.399C193.216 129.186 192.68 129.296 192.251 129.619C192.251 129.512 192.25 129.404 192.143 129.297C191.819 128.977 190.852 128.551 190.316 128.767Z" fill="#D3DAE0"/>
<path d="M162.973 167.717C163.293 167.18 162.107 165.466 161.892 165.36C161.569 165.253 160.818 165.148 160.709 164.612C160.815 164.397 160.921 164.183 160.92 163.86C161.133 163.431 161.347 163 161.13 162.464C160.806 161.821 160.156 160.213 159.083 160.217C158.01 160.22 158.228 161.186 157.8 161.725C157.372 162.155 157.268 163.015 157.7 163.657C157.271 164.088 156.735 164.197 156.524 165.056C156.417 165.271 156.525 165.593 156.526 165.7C156.743 166.666 157.389 167.092 158.141 167.09C158.036 167.52 157.929 168.057 158.147 168.7C158.58 169.987 160.299 170.41 160.94 169.656C161.581 168.795 161.258 168.26 161.579 168.258C161.793 168.043 162.654 168.362 162.973 167.717Z" fill="#D3DAE0"/>
<path d="M152.489 177.842C152.598 177.951 152.706 178.164 152.813 178.271C153.136 178.7 153.78 178.805 154.426 178.802C154.212 179.34 154.214 179.984 154.323 180.413C154.541 181.164 155.293 181.589 156.045 181.587C156.045 181.695 156.045 181.802 156.153 181.909C156.37 182.445 157.015 182.657 157.55 182.441C158.193 182.223 158.513 181.471 158.297 180.935C158.831 180.398 158.936 179.645 158.718 178.895C158.393 177.822 156.996 177.076 155.923 177.402C155.92 176.651 155.703 175.792 155.058 175.473C154.411 175.046 153.767 175.048 153.339 175.157C153.339 175.049 153.231 174.943 153.231 174.836C153.014 174.299 152.691 173.978 152.368 173.872C151.945 175.268 151.627 176.666 151.202 178.063C151.524 177.954 152.061 178.06 152.489 177.842Z" fill="#D3DAE0"/>
<path d="M154.726 172.79C154.403 172.254 153.758 172.042 153.222 172.366C152.687 172.69 152.368 173.442 152.691 173.978C153.016 174.514 153.552 174.619 154.087 174.296C154.73 174.078 155.051 173.326 154.726 172.79Z" fill="#D3DAE0"/>
<path d="M181.127 141.035C181.561 142.106 182.313 142.319 183.385 141.885C184.242 141.452 184.775 140.592 184.451 139.949C184.02 139.2 182.622 138.775 181.658 139.101C181.015 139.424 180.803 140.176 181.127 141.035Z" fill="#D3DAE0"/>
<path d="M159.174 155.387C159.818 155.492 160.139 155.061 160.351 154.524C160.458 154.309 160.564 154.095 160.672 153.879C160.995 154.522 161.747 154.735 162.283 154.41C162.926 154.086 163.139 153.335 162.814 152.692C162.598 152.156 161.953 151.942 161.417 152.053C161.523 151.73 161.521 151.3 161.197 150.98C160.451 152.377 159.812 153.882 159.066 155.388C159.066 155.388 159.066 155.388 159.174 155.387Z" fill="#D3DAE0"/>
<path d="M175.675 147.386C175.351 146.743 174.492 146.424 173.956 146.748C173.42 147.071 173.101 147.932 173.425 148.468C173.749 149.11 174.502 149.322 175.036 148.998C175.68 148.781 175.893 148.029 175.675 147.386Z" fill="#D3DAE0"/>
<path d="M173.32 149.113C172.78 147.934 172.027 147.399 171.277 147.723C170.741 147.941 170.101 149.338 170.425 149.874C170.642 150.41 172.039 150.833 172.788 150.51C173.431 150.185 173.644 149.647 173.32 149.113Z" fill="#D3DAE0"/>
<path d="M169.244 149.341C169.563 148.696 169.454 148.159 169.022 147.731C168.7 147.411 168.27 147.412 167.949 147.52C167.841 147.521 167.627 147.521 167.52 147.522C167.306 147.63 167.198 147.737 167.091 147.846L166.984 147.846L166.984 147.953C166.771 148.276 166.772 148.598 166.773 148.919C166.774 149.135 166.882 149.242 167.097 149.455C166.775 149.456 166.56 149.457 166.346 149.565C165.381 149.998 164.85 151.502 165.175 152.575C165.609 153.54 166.682 153.964 167.648 153.533C168.933 152.884 169.68 151.701 169.14 150.629C169.032 150.415 168.816 150.093 168.493 149.88C168.816 149.986 169.137 149.771 169.244 149.341Z" fill="#D3DAE0"/>
<path d="M181.807 120.64C181.059 121.501 180.311 122.362 179.563 123.223C179.778 123.33 180.101 123.436 180.529 123.327C180.102 123.758 179.887 124.081 179.567 124.297C178.924 124.621 178.711 125.051 178.928 125.694C179.144 126.338 179.362 126.981 180.22 127.085C182.691 127.506 183.226 127.075 183.969 124.818C183.969 124.818 183.969 124.711 184.076 124.603C183.97 124.926 183.971 125.355 183.972 125.57C183.974 126.106 184.405 126.427 184.939 126.21C185.583 126.101 185.904 125.563 185.688 125.027C185.578 124.813 185.256 124.384 184.825 124.171C185.361 123.847 185.574 123.417 185.465 122.881C185.248 122.13 184.28 121.812 183.531 122.351C182.889 122.89 182.351 122.57 181.706 122.357C182.134 121.712 182.024 121.068 181.807 120.64Z" fill="#D3DAE0"/>
<path d="M153.749 200.271C153.424 199.629 152.565 199.416 152.03 199.741C151.494 200.064 151.283 201.031 151.606 201.567C151.931 202.103 152.683 202.314 153.219 202.098C153.754 201.666 154.073 200.914 153.749 200.271Z" fill="#D3DAE0"/>
<path d="M151.501 202.104C150.96 200.925 150.1 200.498 149.35 200.824C148.814 201.147 148.282 202.437 148.605 202.972C148.93 203.508 150.219 203.826 151.076 203.501C151.612 203.177 151.825 202.64 151.501 202.104Z" fill="#D3DAE0"/>
<path d="M147.423 202.547C147.637 202.009 147.526 201.474 147.204 201.153C147.206 201.796 147.101 202.334 147.103 202.978C147.317 202.87 147.424 202.762 147.423 202.547Z" fill="#D3DAE0"/>
<path d="M150.261 215.955C149.617 215.848 149.081 216.173 148.976 216.817C148.87 217.14 148.979 217.676 149.194 217.89C149.626 218.426 150.162 218.315 151.233 217.668C151.123 216.917 151.227 216.058 150.261 215.955Z" fill="#D3DAE0"/>
<path d="M147.321 203.942C147.214 203.835 147.213 203.728 147.106 203.622C147.108 204.373 147.004 205.231 147.007 205.984C147.542 205.338 147.753 204.585 147.321 203.942Z" fill="#D3DAE0"/>
<path d="M192.095 115.773C193.059 115.34 193.486 114.48 193.054 113.731C192.73 113.088 191.869 112.661 191.118 112.664C190.903 112.343 190.688 112.129 190.471 111.915C189.294 112.992 188.119 114.177 186.942 115.362C187.264 115.575 187.588 115.789 187.802 115.895C187.91 116.002 188.339 115.786 188.445 115.678C188.874 115.355 189.302 115.139 189.732 115.137C190.378 115.994 191.13 116.206 192.095 115.773Z" fill="#D3DAE0"/>
<path d="M206.75 101.447C207.393 101.23 207.713 100.478 207.388 99.9424C207.173 99.621 206.742 99.3005 206.314 99.302C205.029 100.165 203.742 101.028 202.566 101.998C203.211 102.318 204.07 102.53 204.606 102.313C204.927 102.205 205.249 101.774 205.462 101.452C205.785 101.558 206.322 101.663 206.75 101.447Z" fill="#D3DAE0"/>
<path d="M225.274 88.6104C224.738 88.8268 224.203 89.1507 223.668 89.3673C224.312 89.365 224.955 89.0408 225.274 88.6104Z" fill="#D3DAE0"/>
<path d="M222.282 92.1617C222.065 91.5185 221.313 91.1991 220.777 91.4156C220.562 91.5237 220.348 91.7391 220.241 91.8468C220.24 91.5248 220.025 91.3108 219.917 91.204C219.274 91.5282 218.631 91.8524 217.988 92.284C217.99 92.7133 218.314 93.0342 218.851 93.1397C219.387 93.2451 219.923 93.0286 220.137 92.5985C220.137 92.7059 220.138 92.8131 220.245 92.9201C220.569 93.563 221.322 93.7751 221.857 93.5585C222.499 93.127 222.498 92.6977 222.282 92.1617Z" fill="#D3DAE0"/>
<path d="M189.847 117.499C189.631 117.071 188.449 116.645 187.913 116.862C187.485 117.078 187.273 118.045 187.49 118.581C187.707 119.224 188.566 119.543 189.209 119.219C189.745 118.895 190.064 118.035 189.847 117.499Z" fill="#D3DAE0"/>
<path d="M178.922 123.977C178.387 124.623 177.746 125.376 177.211 126.022C177.748 126.02 178.285 125.911 178.605 125.588C178.926 125.265 179.031 124.62 178.922 123.977Z" fill="#D3DAE0"/>
<path d="M191.542 110.945C191.756 110.944 191.972 110.943 192.186 110.835C192.615 110.619 192.827 110.189 193.041 109.651C192.506 110.082 191.97 110.514 191.542 110.945Z" fill="#D3DAE0"/>
<path d="M200.76 107.156C201.402 106.725 202.046 106.508 202.472 106.077C203.007 105.538 203.004 104.572 202.466 104.145C202.036 103.717 201.498 103.397 200.959 102.97C199.353 104.156 197.855 105.342 196.357 106.635C196.358 106.742 196.358 106.742 196.358 106.849C196.577 108.351 197.331 109.1 198.727 109.203C200.015 109.305 200.549 108.66 200.76 107.156Z" fill="#D3DAE0"/>
<path d="M167.288 235.537C166.859 235.752 167.075 236.289 167.184 236.504L167.291 236.61C167.293 237.039 167.938 237.252 168.152 237.251C168.367 237.251 168.902 237.142 168.901 236.712C168.899 236.282 168.47 236.069 168.254 235.963C168.147 235.964 168.147 235.964 168.04 235.964L168.04 235.857C168.146 235.641 167.716 235.213 167.288 235.537Z" fill="#D3DAE0"/>
<path d="M191.523 167.403C191.413 166.651 189.803 166.335 189.481 166.657C189.161 166.981 189.81 168.588 190.454 168.586C190.991 168.584 191.524 167.938 191.523 167.403Z" fill="#D3DAE0"/>
<path d="M184.579 176.55C184.471 176.336 184.147 175.694 183.61 175.803C183.074 175.911 183.184 176.771 183.293 176.984C183.401 177.2 183.723 177.627 184.152 177.411C184.582 177.196 184.687 176.765 184.579 176.55Z" fill="#D3DAE0"/>
<path d="M188.547 175.678C187.9 174.714 186.507 175.471 186.401 176.007C186.296 176.544 187.266 177.507 187.802 177.29C188.659 177.073 189.087 176.534 188.547 175.678Z" fill="#D3DAE0"/>
<path d="M180.733 182.145C180.088 181.932 180.304 181.931 180.086 181.288C179.869 180.537 179.223 179.789 178.151 180.436C177.08 181.191 177.194 182.694 177.734 183.658C178.273 184.622 180.529 185.043 181.491 184.074C182.241 183.321 181.485 182.25 180.733 182.145Z" fill="#D3DAE0"/>
<path d="M173.088 175.088C172.231 175.413 171.912 176.273 172.129 176.916C172.561 177.881 173.744 178.412 174.387 178.089C175.245 177.656 175.669 176.474 175.345 175.724C175.236 175.187 173.947 174.763 173.088 175.088Z" fill="#D3DAE0"/>
<path d="M195.722 171.36C195.831 171.682 196.477 172.324 197.013 171.999C197.548 171.676 197.332 170.924 197.115 170.711C197.007 170.497 196.47 170.283 196.148 170.284C195.719 170.394 195.507 170.931 195.722 171.36Z" fill="#D3DAE0"/>
<path d="M180.468 167.549C180.252 167.013 179.607 166.801 178.964 167.017C178.428 167.233 178.216 167.878 178.539 168.307C178.862 168.628 179.185 168.948 179.507 168.947C179.829 168.946 180.685 167.976 180.468 167.549Z" fill="#D3DAE0"/>
<path d="M181.762 169.047C181.441 169.37 181.12 169.908 181.121 170.337C181.123 170.767 182.091 171.084 182.519 170.762C182.84 170.546 182.946 170.116 183.053 169.902C182.728 169.043 182.082 168.724 181.762 169.047Z" fill="#D3DAE0"/>
<path d="M187.395 184.161C187.503 184.267 187.933 184.481 188.149 184.374C188.362 184.264 188.468 183.836 188.467 183.62C188.359 183.406 188.035 182.978 187.608 183.302C187.072 183.518 187.288 184.054 187.395 184.161Z" fill="#D3DAE0"/>
<path d="M158.495 237.713C158.923 237.605 159.352 237.389 159.458 237.066C159.565 236.744 159.132 235.779 158.595 235.674C158.058 235.676 157.522 236.107 157.525 236.751C157.42 237.396 157.851 237.824 158.495 237.713Z" fill="#D3DAE0"/>
<path d="M156.34 235.253C156.016 234.824 155.693 234.611 155.586 234.611C155.265 235.042 154.3 235.475 154.518 236.118C154.734 236.762 155.701 236.65 156.238 236.863C156.345 236.756 156.452 236.647 156.559 236.647C156.77 235.895 156.662 235.681 156.34 235.253Z" fill="#D3DAE0"/>
<path d="M161.81 234.483C160.952 234.379 160.309 234.811 160.525 235.238C160.633 235.668 160.958 236.203 161.387 236.309C161.817 236.522 162.459 235.768 162.457 235.232C162.349 234.911 162.025 234.589 161.81 234.483Z" fill="#D3DAE0"/>
<path d="M164.866 218.05C164.867 218.264 165.082 218.693 165.296 218.692C165.512 218.799 165.832 218.368 165.939 218.153C165.938 217.939 165.829 217.402 165.507 217.296C165.077 217.298 164.865 217.834 164.866 218.05Z" fill="#D3DAE0"/>
<path d="M175.769 236.259C175.771 236.796 176.308 236.794 176.522 236.793C176.738 236.792 177.058 236.361 176.95 236.255C176.95 236.041 176.627 235.719 176.412 235.72C176.304 235.72 175.768 235.829 175.769 236.259Z" fill="#D3DAE0"/>
<path d="M192.651 121.139C193.401 120.922 194.04 119.524 193.823 118.773C193.498 118.023 192.532 117.812 191.353 118.353C190.923 118.462 190.712 119.106 190.606 119.643C190.282 119.215 189.852 119.109 189.316 119.326C188.673 119.543 188.354 120.295 188.677 120.831C188.895 121.367 189.754 121.793 190.29 121.576C190.72 121.468 191.039 120.93 191.038 120.5C191.362 120.929 192.221 121.248 192.651 121.139Z" fill="#D3DAE0"/>
<path d="M152.09 186.324C152.302 185.57 152.086 184.927 151.546 184.178C151.546 184.178 151.546 184.178 151.546 184.071C152.403 183.745 152.827 182.242 152.286 181.063C151.962 180.313 151.317 179.885 150.565 180.103C149.931 182.896 149.297 185.689 148.878 188.588C149.737 188.692 150.594 188.261 151.236 187.722C151.664 187.29 151.985 186.752 152.09 186.324Z" fill="#D3DAE0"/>
<path d="M218.678 136.289C219.32 135.642 219.637 134.461 219.313 133.71C218.774 132.853 218.021 132.427 217.054 132.323C216.733 132.324 216.303 132.433 216.09 132.755C215.234 133.617 215.131 134.798 215.993 135.869C216.102 136.083 216.317 136.297 216.532 136.511C216.104 136.834 215.782 137.05 215.354 137.373C214.712 138.019 214.714 138.449 215.146 139.199C215.578 139.841 216.33 140.161 217.08 139.943C217.831 139.833 218.152 139.188 218.256 138.437C218.361 137.9 218.252 137.363 218.143 136.827C218.357 136.612 218.572 136.504 218.678 136.289Z" fill="#D3DAE0"/>
<path d="M151.199 239.027C151.843 239.024 152.484 238.057 152.481 237.306C152.477 236.232 151.832 235.698 150.759 235.701C149.9 235.704 149.364 236.029 149.152 236.673C149.261 237.102 149.262 237.531 149.371 237.961C149.909 238.496 150.555 239.029 151.199 239.027Z" fill="#D3DAE0"/>
<path d="M186.26 166.348C186.474 166.454 186.796 166.023 186.902 165.809C187.008 165.594 186.792 165.058 186.469 164.952C186.148 164.846 185.827 165.383 185.827 165.598C185.829 165.92 186.045 166.242 186.26 166.348Z" fill="#D3DAE0"/>
<path d="M222.337 139.067C222.875 139.279 223.838 138.847 223.621 137.881C223.188 137.025 222.008 137.243 221.796 137.781C221.69 138.104 221.907 138.854 222.337 139.067Z" fill="#D3DAE0"/>
<path d="M204.275 161.24C204.489 161.347 205.026 161.238 205.132 161.023C205.239 160.916 205.343 160.163 205.021 159.95C204.806 159.736 204.055 160.167 203.949 160.383C203.95 160.597 204.059 161.134 204.275 161.24Z" fill="#D3DAE0"/>
<path d="M166.72 165.02C166.077 165.344 165.867 166.525 166.298 167.275C166.623 167.811 167.161 168.131 167.696 168.13C167.59 168.344 167.591 168.558 167.591 168.774C167.811 169.845 168.777 170.165 168.778 170.379C168.779 170.595 168.246 171.776 169.106 172.096C170.934 172.84 171.142 171.015 171.679 171.12C172.216 171.227 173.184 171.974 174.043 172.078C175.224 172.289 176.51 171.747 176.506 170.459C176.61 169.171 175.963 168.422 174.995 168.104C175.317 167.78 175.958 166.92 175.848 166.598C175.633 166.17 174.453 166.388 174.346 166.603C174.025 167.034 173.599 167.572 173.815 168.108C172.742 168.433 172.746 169.614 171.886 169.187C170.811 168.656 171.775 168.008 170.271 167.368C169.948 167.262 169.626 167.156 169.411 167.157C169.732 166.726 169.73 166.191 169.513 165.762C168.973 165.012 167.577 164.587 166.72 165.02Z" fill="#D3DAE0"/>
<path d="M199.22 158.361C198.786 157.396 197.604 157.079 196.64 157.403C195.461 157.944 194.929 159.234 195.47 160.413C195.903 161.377 196.87 161.803 197.728 161.479C198.906 160.938 199.653 159.325 199.22 158.361Z" fill="#D3DAE0"/>
<path d="M190.679 141.002C191.004 141.538 191.326 141.428 191.754 141.212C192.29 140.996 192.502 140.352 192.179 139.923C191.964 139.602 191.533 139.495 191.21 139.282C190.996 139.39 190.889 139.498 190.783 139.606C190.674 139.498 190.674 139.391 190.566 139.177C189.6 139.074 189.172 139.504 189.068 140.471C186.814 140.586 186.39 141.875 187.685 143.802C187.578 143.91 187.579 144.125 187.47 144.233C187.044 144.771 187.26 145.199 187.584 145.628C187.907 146.056 188.337 146.162 188.873 146.053C190.16 145.833 190.48 145.403 190.154 144.116C189.936 143.151 189.718 142.186 189.608 141.327C190.144 141.218 190.465 141.11 190.679 141.002Z" fill="#D3DAE0"/>
<path d="M207.879 148.348C208.629 148.13 209.377 147.162 209.16 146.412C208.942 145.66 207.976 145.342 206.903 145.667C206.367 145.777 205.941 146.637 206.05 147.174C206.159 147.603 206.59 148.03 206.912 148.244C206.267 148.031 205.623 147.926 205.194 148.142C204.23 148.575 203.699 150.079 204.239 151.151C204.672 152.116 206.284 152.754 207.142 152.322C208.319 151.781 208.959 150.383 208.42 149.527C208.203 149.098 207.665 148.777 207.128 148.458C207.557 148.456 207.772 148.456 207.879 148.348Z" fill="#D3DAE0"/>
<path d="M199.06 143.119C199.168 143.334 199.599 143.761 199.813 143.653C200.027 143.545 200.133 142.901 200.024 142.687C199.916 142.472 199.594 142.259 199.272 142.367C198.951 142.475 198.952 142.905 199.06 143.119Z" fill="#D3DAE0"/>
<path d="M158.522 214.852C157.448 214.856 156.593 215.717 156.597 216.791C156.494 218.079 157.463 219.149 158.751 219.145C159.825 219.141 160.681 218.494 160.677 217.528C160.781 216.239 159.595 214.848 158.522 214.852Z" fill="#D3DAE0"/>
<path d="M226.074 102.561C227.039 102.342 227.574 101.911 227.572 101.482C227.464 100.946 226.496 100.198 225.959 100.307C225.637 100.308 225.209 100.846 225.103 101.276C224.888 100.955 224.457 100.742 224.135 100.635C223.598 100.53 222.742 100.962 222.635 101.499C222.318 102.681 222.751 103.753 223.503 103.857C224.254 103.962 225.325 103.207 225.537 102.455C225.644 102.562 225.859 102.561 226.074 102.561Z" fill="#D3DAE0"/>
<path d="M201.225 117.566C200.691 118.641 200.91 119.607 201.557 120.248C202.203 120.89 203.489 120.456 204.344 119.595C204.986 118.948 204.873 117.339 204.228 116.804C203.475 116.378 201.758 116.491 201.225 117.566Z" fill="#D3DAE0"/>
<path d="M224.801 106.751C224.261 105.68 223.507 105.038 222.865 105.363C222.222 105.687 221.689 106.977 222.12 107.726C222.121 107.834 222.229 107.941 222.444 108.047C222.338 108.477 222.878 109.119 223.414 109.117C223.736 109.116 224.057 108.793 224.164 108.685C224.164 108.578 224.163 108.471 224.163 108.363L224.27 108.363C224.699 108.147 225.017 107.287 224.801 106.751Z" fill="#D3DAE0"/>
<path d="M219.037 115.894C219.358 115.786 219.466 115.678 219.464 115.249C219.355 114.927 219.247 114.82 218.926 114.821C218.604 114.93 218.39 115.038 218.498 115.359C218.5 115.896 218.715 116.003 219.037 115.894Z" fill="#D3DAE0"/>
<path d="M212.93 119.029C213.038 119.565 213.469 119.778 214.004 119.562C214.433 119.453 214.862 119.129 214.753 118.593C214.642 118.057 213.89 117.63 213.14 117.847C213.141 118.169 212.928 118.599 212.93 119.029Z" fill="#D3DAE0"/>
<path d="M226.312 109.321C226.638 110.071 228.143 110.925 228.786 110.601C229.535 110.276 229.746 109.095 229.421 108.13C229.095 107.272 228.236 107.06 227.164 107.494C226.521 107.71 226.096 108.678 226.312 109.321Z" fill="#D3DAE0"/>
<path d="M209.793 112.063C209.899 111.955 209.79 111.419 209.467 111.313C209.146 111.206 208.933 111.744 208.826 111.959C208.826 112.066 208.936 112.495 209.15 112.495C208.293 112.712 207.329 113.467 207.655 114.754C207.983 116.363 209.059 117.11 210.024 116.892C210.99 116.781 212.165 115.167 211.946 114.095C211.62 112.701 210.545 112.382 209.687 112.385C209.58 112.386 209.471 112.386 209.364 112.386C209.58 112.386 209.793 112.17 209.793 112.063Z" fill="#D3DAE0"/>
<path d="M202.803 108.223C202.267 108.439 201.948 109.191 202.164 109.62C202.38 110.049 202.81 110.369 203.348 110.475C203.349 111.011 203.672 111.332 203.78 111.547C204.318 111.974 204.855 111.865 205.391 111.756C205.928 111.646 206.464 111.644 206.784 110.999C207.104 110.247 206.563 109.283 205.704 109.071C205.381 108.965 204.845 108.967 204.524 109.075C204.198 108.218 203.446 107.898 202.803 108.223Z" fill="#D3DAE0"/>
<path d="M159.91 243.505C160.658 242.537 160.653 241.249 159.577 240.609C158.287 239.862 157.109 240.295 156.575 241.37C155.721 242.875 157.334 243.514 156.478 244.161C155.728 244.807 155.404 244.057 154.546 244.49L154.545 244.383C154.222 243.74 153.253 243.206 152.719 243.423C152.29 243.64 152.186 244.712 152.402 245.248C152.618 245.677 152.941 245.891 153.371 245.889C153.159 246.749 153.377 247.607 154.129 247.818C155.204 248.137 155.845 247.384 156.06 247.49C156.274 247.597 157.137 248.559 157.779 247.913C159.17 246.62 157.663 245.66 157.983 245.122C158.303 244.691 159.376 244.259 159.91 243.505Z" fill="#D3DAE0"/>
<path d="M156.561 175.789C156.992 175.895 157.528 175.786 157.741 175.571C158.169 175.033 157.738 174.497 157.415 174.069C156.663 173.964 156.127 174.181 156.023 174.933C156.131 175.254 156.454 175.79 156.561 175.789Z" fill="#D3DAE0"/>
<path d="M210.288 130.951C209.429 131.169 208.575 132.353 208.684 132.996C208.903 133.961 210.085 134.601 211.051 134.383C211.908 134.166 212.548 132.875 212.223 131.803C212.005 131.053 211.145 130.734 210.288 130.951Z" fill="#D3DAE0"/>
<path d="M225.956 129.931C225.846 129.716 225.63 129.181 225.309 129.289C224.987 129.397 224.989 129.934 224.989 130.041C225.097 130.256 225.205 130.577 225.635 130.468C226.064 130.36 226.063 130.038 225.956 129.931Z" fill="#D3DAE0"/>
<path d="M198.437 149.026C198.757 148.809 199.078 148.379 199.077 148.057C199.074 147.092 198.322 146.879 197.356 146.882C196.928 147.527 196.394 148.066 197.041 148.815C197.363 149.136 197.901 149.349 198.437 149.026Z" fill="#D3DAE0"/>
<path d="M205.239 129.788C205.452 129.465 205.45 128.928 205.235 128.607C204.802 127.857 204.052 128.075 203.302 128.292C203.089 129.044 202.77 129.796 203.63 130.223C203.737 130.222 203.737 130.33 203.846 130.329C203.737 130.437 203.738 130.652 203.632 130.759C203.632 130.759 203.524 130.76 203.524 130.653C202.879 130.44 203.094 130.439 202.877 129.689C202.66 128.938 202.013 128.082 200.942 128.837C199.87 129.485 199.876 130.987 200.309 131.952C200.741 132.809 202.675 133.339 203.745 132.691C204.069 133.012 204.606 133.117 205.034 132.901C205.999 132.469 206.533 131.608 206.208 130.858C206.206 130.321 205.668 129.894 205.239 129.788Z" fill="#D3DAE0"/>
<path d="M207.954 138.902C207.735 138.151 206.768 137.511 206.231 137.62C205.374 137.838 204.734 139.128 204.951 139.879C205.168 140.629 206.351 141.162 207.21 140.945C208.067 140.619 208.279 139.974 207.954 138.902Z" fill="#D3DAE0"/>
<path d="M189 151.848C188.783 151.312 188.031 150.993 187.388 151.317C186.745 151.641 186.426 152.287 186.642 152.823C186.859 153.466 187.612 153.785 188.147 153.569C188.79 153.351 189.217 152.491 189 151.848Z" fill="#D3DAE0"/>
<path d="M191.125 145.508C190.482 145.833 189.735 147.123 189.951 147.66C190.277 148.517 191.136 148.835 192.209 148.51C192.959 148.293 193.172 147.326 192.738 146.362C192.413 145.611 191.768 145.292 191.125 145.508Z" fill="#D3DAE0"/>
<path d="M194.58 151.401C194.363 150.757 193.932 150.436 193.289 150.545C192.968 150.655 192.539 150.978 192.433 151.192C192.114 151.838 192.436 152.266 193.62 152.906C194.048 152.583 194.906 152.365 194.58 151.401Z" fill="#D3DAE0"/>
<path d="M200.009 138.716C199.685 137.857 198.824 137.539 197.753 137.864C197.431 137.972 197.217 138.189 197.003 138.403C196.788 138.297 196.681 138.19 196.574 138.191C195.931 138.514 195.718 139.266 196.042 139.802C196.15 140.017 196.365 140.123 196.472 140.123C196.473 140.337 196.582 140.552 196.69 140.766C197.122 141.623 198.304 142.156 199.269 141.723C200.018 141.292 200.444 140.002 200.009 138.716Z" fill="#D3DAE0"/>
<path d="M223.655 116.844C223.225 116.738 222.369 117.493 222.157 118.03C221.944 118.675 222.375 119.21 223.127 119.422C223.771 119.527 224.308 119.311 224.412 118.666C224.626 118.021 224.192 116.95 223.655 116.844Z" fill="#D3DAE0"/>
<path d="M219.511 128.88C219.298 129.31 219.623 130.06 220.052 130.166C220.59 130.379 220.912 130.163 221.336 128.981C220.905 128.124 219.725 128.343 219.511 128.88Z" fill="#D3DAE0"/>
<path d="M221.853 123.29C221.961 123.612 222.285 123.826 223.035 123.716C223.786 123.606 224.321 123.175 224.318 122.316C224.315 121.35 223.346 120.602 222.381 120.605C221.414 120.609 221.202 121.253 220.558 121.148C219.914 121.151 219.701 121.473 219.487 122.118C219.275 122.763 219.064 123.837 219.924 124.048C220.89 124.26 221.103 123.722 221.209 123.4C221.316 123.292 221.852 122.968 221.853 123.29Z" fill="#D3DAE0"/>
<path d="M211.98 123.969C214.123 122.673 213.366 120.851 212.288 119.674C211.856 119.247 211.427 119.033 210.89 118.928C210.139 118.823 209.495 119.04 208.853 119.579C208.211 120.118 207.244 120.014 206.924 120.766C206.392 121.842 206.076 123.667 207.476 125.058C208.339 125.913 209.197 126.125 210.055 126.015C210.914 125.797 211.124 124.508 211.98 123.969Z" fill="#D3DAE0"/>
<path d="M212.097 126.867C211.452 126.762 210.701 126.764 210.383 127.517C210.169 128.054 210.387 128.697 210.924 128.91C211.246 129.016 211.89 129.014 212.212 128.798C212.745 128.26 212.529 127.509 212.097 126.867Z" fill="#D3DAE0"/>
<path d="M201.463 124.649C201.03 123.47 199.847 122.83 198.882 123.155C197.918 123.481 196.958 125.416 197.284 126.381C197.608 127.346 199.007 127.878 200.078 127.552C201.043 127.119 201.789 125.614 201.463 124.649Z" fill="#D3DAE0"/>
<path d="M174.62 183.133C174.836 183.776 175.802 183.666 176.339 183.985C176.447 183.878 176.554 183.771 176.661 183.77C176.98 183.125 176.872 182.91 176.549 182.483C176.225 182.054 175.903 181.841 175.795 181.734C175.367 182.164 174.402 182.597 174.62 183.133Z" fill="#D3DAE0"/>
<path d="M173.118 183.675C173.87 183.457 174.189 182.92 173.973 182.277C173.755 181.632 173.11 181.313 172.36 181.53C171.93 181.638 171.502 181.748 171.072 181.641C170.32 181.43 169.57 181.54 169.142 182.185C168.823 182.723 169.149 184.225 169.795 184.652C170.333 185.079 170.871 185.507 171.62 184.861C171.941 184.43 172.584 183.998 173.118 183.675Z" fill="#D3DAE0"/>
<path d="M160.418 173.521C160.201 172.985 159.557 172.773 158.914 172.989C158.27 173.207 158.058 173.744 158.274 174.388C158.491 175.031 159.243 175.35 159.779 175.026C160.422 174.809 160.742 174.056 160.418 173.521Z" fill="#D3DAE0"/>
<path d="M170.096 178.639C169.989 178.533 169.88 178.319 169.665 178.105C169.879 178.212 170.095 178.211 170.309 178.103C170.845 177.778 170.628 177.028 170.519 176.599C170.409 176.171 170.086 175.742 169.443 175.959C168.907 176.176 168.48 176.928 168.804 177.249C168.911 177.355 169.019 177.571 169.234 177.677C169.126 177.57 168.912 177.571 168.805 177.678C168.377 178.001 168.38 178.968 168.488 179.29C168.706 179.825 169.241 179.932 169.884 179.607C170.421 179.498 170.419 178.961 170.096 178.639Z" fill="#D3DAE0"/>
<path d="M165.155 177.799C165.155 177.799 165.155 177.692 165.047 177.692C165.368 177.261 165.473 176.724 165.15 176.188C164.825 175.654 164.181 175.44 163.538 175.765C163.002 176.088 162.789 176.519 162.898 177.055C162.362 177.271 162.044 178.131 162.26 178.667C162.693 179.739 163.661 180.38 164.411 180.056C165.054 179.838 165.479 178.549 165.155 177.799Z" fill="#D3DAE0"/>
<path d="M167.325 184.446C167.54 184.23 167.645 183.801 167.752 183.585C167.319 182.836 166.675 182.624 166.354 182.946C166.14 183.163 165.927 183.699 165.928 184.022C166.037 184.558 167.005 184.769 167.325 184.446Z" fill="#D3DAE0"/>
<path d="M183.971 187.071C183.971 186.964 183.54 186.536 183.217 186.644C182.896 186.753 183.006 187.397 183.114 187.611C183.114 187.718 183.545 187.932 183.758 187.823C183.974 187.715 184.079 187.286 183.971 187.071Z" fill="#D3DAE0"/>
<path d="M165.077 185.849C165.289 185.419 165.18 184.775 164.963 184.347C165.071 184.131 164.962 184.025 164.854 183.811C164.531 183.382 164.101 183.384 163.672 183.492C163.136 183.494 162.815 183.711 162.601 183.819C162.061 182.961 160.771 182.537 159.913 182.969C159.271 183.293 158.844 183.725 158.739 184.369C158.308 184.155 157.986 184.156 157.665 184.264C157.451 184.374 157.343 184.481 157.236 184.696C155.735 184.915 154.879 185.885 154.991 186.85C154.993 187.493 155.747 188.35 156.499 188.669C156.071 188.993 155.858 189.531 156.074 190.067C156.292 190.602 157.044 190.815 157.686 190.49C158.329 190.166 158.541 189.522 158.325 188.878C158.324 188.771 158.217 188.772 158.217 188.663C158.967 188.339 159.286 187.694 159.392 187.157C159.499 187.049 159.606 186.833 159.712 186.726C160.25 187.047 160.894 187.045 161.751 186.612C162.073 186.396 162.394 186.288 162.608 185.965C162.716 186.179 162.824 186.501 163.147 186.607C163.685 187.142 164.757 186.601 165.077 185.849Z" fill="#D3DAE0"/>
<path d="M172.911 155.124C172.478 154.16 170.759 153.414 169.794 153.954C169.688 154.061 169.474 154.171 169.366 154.278C169.151 154.063 168.936 153.957 168.721 153.958C168.292 153.959 167.651 154.712 167.975 155.464C168.083 155.677 168.299 155.784 168.62 155.89C168.622 156.32 168.623 156.642 168.731 156.963C169.164 157.928 170.347 158.46 171.204 158.028C172.598 157.487 173.344 155.982 172.911 155.124Z" fill="#D3DAE0"/>
<path d="M187.081 155.503C187.188 155.181 186.863 154.538 186.648 154.325C185.895 153.79 184.824 154.438 184.612 155.083C184.399 155.728 185.046 156.691 186.119 156.473C186.44 156.364 186.868 155.933 187.081 155.503Z" fill="#D3DAE0"/>
<path d="M187.589 147.129C186.731 147.455 186.732 147.885 186.841 148.313C186.95 148.742 187.381 149.17 187.917 148.953C188.239 148.738 188.665 148.199 188.557 147.878C188.342 147.557 187.804 147.344 187.589 147.129Z" fill="#D3DAE0"/>
<path d="M177.807 173.784C177.699 173.461 177.055 173.571 176.84 173.68C176.733 173.68 176.52 174.002 176.628 174.216C176.736 174.431 177.166 174.644 177.273 174.537C177.487 174.536 177.915 173.997 177.807 173.784Z" fill="#D3DAE0"/>
<path d="M180.204 152.952C180.203 152.845 180.096 152.737 179.987 152.63C180.31 152.736 180.631 152.735 180.954 152.627C181.918 152.41 182.453 151.764 183.094 151.118C183.309 150.901 183.63 150.686 183.844 150.578C185.023 150.251 185.45 149.392 185.017 148.319C185.232 148.319 185.339 148.318 185.446 148.211C185.875 147.995 186.086 147.136 185.763 146.493C185.437 145.742 184.578 145.317 183.935 145.64C183.399 145.965 183.186 146.609 183.511 147.252C183.188 147.253 182.974 147.361 182.654 147.577C182.438 147.577 182.331 147.578 182.224 147.578C182.01 147.686 181.581 147.903 181.689 148.224C181.476 148.332 181.26 148.332 180.939 148.334C179.972 148.23 179.437 148.983 178.904 149.629C178.796 149.737 178.796 149.845 178.69 150.059C178.583 150.059 178.369 150.06 178.154 150.168C177.833 150.385 177.835 150.813 177.942 151.028C178.05 151.242 178.267 151.564 178.695 151.454C178.803 151.669 178.912 151.883 179.02 152.097C179.02 152.205 179.127 152.205 179.128 152.312C178.59 152.098 178.053 152.1 177.626 152.317C176.983 152.641 176.77 153.501 177.203 154.465C177.096 154.465 177.096 154.465 176.989 154.466C176.56 154.574 176.669 155.111 176.777 155.433C176.777 155.54 177.208 155.753 177.315 155.753C177.529 155.645 177.636 155.43 177.743 155.214C178.172 155.535 178.71 155.748 179.139 155.639C179.888 154.885 180.527 153.595 180.204 152.952Z" fill="#D3DAE0"/>
<path d="M167.496 172.21C167.173 171.567 166.527 171.246 165.992 171.571C165.669 171.679 165.456 172.001 165.35 172.324L165.35 172.217C165.025 171.466 164.164 170.718 163.521 170.936C162.341 171.261 162.346 172.656 162.348 173.3C162.35 173.944 163.962 174.261 164.818 173.721C165.14 173.506 165.247 173.29 165.353 173.075L165.353 173.182C165.569 173.719 166.43 174.037 166.965 173.821C167.608 173.497 167.821 172.744 167.496 172.21Z" fill="#D3DAE0"/>
<path d="M190.86 161.609C191.072 161.179 189.244 160.112 188.816 160.221C188.28 160.438 188.39 161.51 189.037 162.152C189.683 162.794 190.647 162.039 190.86 161.609Z" fill="#D3DAE0"/>
<path d="M185.389 162.701C185.063 161.951 184.74 161.202 184.2 160.452C183.661 159.702 182.265 159.599 181.514 160.032C181.087 160.248 180.765 160.678 180.874 161.215C181.309 162.501 181.85 163.68 183.033 164.534C183.248 164.641 183.464 164.748 183.571 164.748C184.967 165.065 185.822 163.988 185.389 162.701Z" fill="#D3DAE0"/>
<path d="M227.414 117.476C227.734 116.83 228.268 116.292 228.052 115.756C227.836 115.22 227.62 115.113 227.405 115.007C227.19 114.9 226.867 114.579 226.33 114.581C225.794 114.583 224.829 114.909 224.402 115.661C223.976 116.414 224.085 117.058 224.408 117.593C224.733 118.129 225.378 118.341 225.807 118.34C226.343 118.231 227.094 118.013 227.414 117.476Z" fill="#D3DAE0"/>
<path d="M165.304 189.712C165.84 189.496 166.051 188.528 165.618 187.457C165.403 187.35 164.973 187.137 164.652 187.245C164.222 187.354 163.794 187.785 163.688 188.215C163.581 188.216 163.581 188.216 163.474 188.216C162.831 188.54 162.511 189.292 162.836 189.935C163.159 190.47 163.804 190.684 164.447 190.359C164.662 190.251 164.876 190.036 164.982 189.82C164.982 189.82 165.089 189.713 165.304 189.712Z" fill="#D3DAE0"/>
<path d="M182.661 211.762C182.554 211.977 182.772 212.513 182.986 212.619C183.201 212.725 183.737 212.616 183.844 212.402C183.95 212.294 184.056 211.543 183.733 211.329C183.518 211.115 182.768 211.547 182.661 211.762Z" fill="#D3DAE0"/>
<path d="M222.024 110.732C221.808 110.518 221.487 110.519 221.272 110.734C221.058 110.95 221.06 111.486 221.168 111.701C221.384 111.915 221.813 111.806 222.027 111.59C222.134 111.375 222.239 110.946 222.024 110.732Z" fill="#D3DAE0"/>
<path d="M220.09 110.416C219.982 110.202 219.766 109.773 219.443 109.667C219.336 109.668 219.229 109.561 219.122 109.561C219.334 109.131 219.44 108.701 219.223 108.058C218.897 107.093 218.36 106.88 217.289 107.206C216.323 107.531 215.897 108.177 216.114 108.927C216.329 109.356 217.082 109.89 217.727 110.102C217.62 110.21 217.621 110.317 217.621 110.425C217.409 111.07 217.949 111.926 218.486 112.032C218.915 112.138 219.772 111.491 220.09 110.416Z" fill="#D3DAE0"/>
<path d="M213.443 112.264C213.23 112.587 213.016 113.125 213.124 113.446C213.344 114.626 214.097 115.375 215.708 115.369C215.921 114.939 216.349 114.616 216.562 114.078C216.88 113.326 216.556 112.361 216.017 111.934C215.05 111.615 214.084 111.618 213.443 112.264Z" fill="#D3DAE0"/>
<path d="M158.582 170.093C158.044 169.665 156.758 170.421 156.867 170.85C156.976 171.387 158.266 171.919 158.694 171.488C158.907 171.166 158.904 170.413 158.582 170.093Z" fill="#D3DAE0"/>
<path d="M154.176 169.035C154.499 169.141 154.927 169.032 155.463 168.816C156.321 168.383 156.855 167.415 156.53 166.772C156.314 166.237 155.56 165.917 154.916 165.705C154.492 166.995 153.96 168.391 153.535 169.681C153.75 169.573 153.963 169.25 154.176 169.035Z" fill="#D3DAE0"/>
<path d="M165.293 155.687C164.753 154.615 163.355 153.976 162.391 154.516C161.213 155.057 160.681 156.454 161.113 157.526C161.654 158.705 162.729 159.023 164.015 158.483C165.301 157.835 165.834 156.759 165.293 155.687Z" fill="#D3DAE0"/>
<path d="M177.117 160.584C176.684 159.727 175.931 159.3 175.289 159.625C174.431 160.056 173.9 161.562 174.331 162.311C174.656 162.847 175.729 163.058 176.48 162.734C177.337 162.301 177.548 161.549 177.117 160.584Z" fill="#D3DAE0"/>
<path d="M170.807 136.455C170.914 136.455 170.914 136.348 170.807 136.455C170.915 136.67 171.023 136.884 171.237 136.991C171.669 137.419 172.313 137.416 172.848 137.092C173.384 136.661 173.596 136.124 173.38 135.588C173.271 135.374 173.163 135.267 173.056 135.16C173.378 135.051 173.592 134.836 173.805 134.728C174.341 134.404 174.555 133.866 174.768 133.436C174.979 132.684 174.763 132.041 174.33 131.291C174.115 130.97 174.114 130.648 174.006 130.326C172.509 132.371 171.014 134.415 169.518 136.567C169.948 136.566 170.592 136.671 170.807 136.455Z" fill="#D3DAE0"/>
<path d="M163.056 160.525C162.735 160.74 162.2 161.172 162.308 161.6C162.417 162.029 163.17 162.241 163.598 162.24C164.135 162.238 164.347 161.593 164.131 161.057C163.915 160.414 163.485 160.308 163.056 160.525Z" fill="#D3DAE0"/>
<path d="M164.884 161.7C164.991 161.806 165.208 162.02 165.314 161.912C165.528 161.804 165.42 161.589 165.42 161.482C165.42 161.375 165.098 161.376 164.99 161.377C164.883 161.377 164.776 161.592 164.884 161.7Z" fill="#D3DAE0"/>
<path d="M174.22 191.935C174.327 191.934 174.541 191.826 174.756 191.826C175.291 191.61 175.504 190.965 175.073 190.537C174.751 190.216 174.321 190.11 174.106 190.003C173.784 190.22 173.571 190.435 173.463 190.756C173.034 190.437 172.604 190.331 172.283 190.439C171.854 190.655 171.643 191.729 171.859 192.266C172.076 192.909 172.828 193.12 173.47 192.797C174.007 192.579 174.221 192.257 174.22 191.935Z" fill="#D3DAE0"/>
<path d="M228.985 106.093C228.984 105.663 228.98 104.697 228.444 104.699C227.907 104.701 227.265 105.455 227.159 105.777C227.053 106.314 227.377 106.742 228.021 106.847C228.666 107.06 228.987 106.629 228.985 106.093Z" fill="#D3DAE0"/>
<path d="M215.664 103.026C214.591 102.815 213.413 103.678 213.094 104.645C212.989 105.289 213.636 106.146 214.388 106.358C215.569 106.568 216.426 106.029 216.637 104.955C216.849 104.095 216.415 103.131 215.664 103.026Z" fill="#D3DAE0"/>
<path d="M220.404 107.732C220.833 107.731 221.691 107.728 221.689 106.977C221.687 106.333 220.934 105.906 220.611 105.8C220.073 105.587 219.754 106.125 219.648 106.554C219.543 107.199 219.867 107.842 220.404 107.732Z" fill="#D3DAE0"/>
<path d="M186.755 123.52C186.112 123.844 185.793 124.597 186.117 125.24C186.441 125.775 187.407 125.987 187.943 125.663C188.479 125.339 188.69 124.587 188.367 124.051C188.042 123.408 187.397 123.196 186.755 123.52Z" fill="#D3DAE0"/>
<path d="M211.487 105.616C211.268 104.651 209.872 104.119 208.908 104.552C207.942 104.877 207.518 106.489 208.059 107.668C208.385 108.525 209.459 108.951 210.424 108.518C211.923 107.762 211.921 107.225 211.487 105.616Z" fill="#D3DAE0"/>
<path d="M194.708 126.498C194.6 126.069 194.062 125.748 193.524 125.643C193.63 125.321 193.521 124.784 193.521 124.57C193.412 124.141 193.088 123.712 192.553 123.929C192.017 124.038 191.482 124.791 191.805 125.22C191.914 125.434 192.237 125.755 192.56 125.968C192.239 126.291 192.026 126.829 192.242 127.365C192.459 128.008 193.213 128.435 193.747 128.218C194.284 128.002 194.924 126.926 194.708 126.498Z" fill="#D3DAE0"/>
<path d="M174.978 131.932C175.195 132.575 175.947 132.895 176.483 132.571C177.125 132.247 177.444 131.494 177.121 130.851C176.905 130.315 176.044 129.996 175.508 130.213C174.973 130.537 174.653 131.289 174.978 131.932Z" fill="#D3DAE0"/>
<path d="M168.643 162.222C168.427 161.687 167.352 161.475 166.495 161.801C165.637 162.125 165.211 162.986 165.428 163.63C165.752 164.38 166.827 164.913 167.47 164.695C168.436 164.37 169.075 162.973 168.643 162.222Z" fill="#D3DAE0"/>
<path d="M164.211 215.154C163.886 214.404 163.455 213.653 162.916 213.011C162.376 212.262 160.981 212.267 160.123 212.7C159.696 213.023 159.375 213.346 159.592 213.882C160.132 215.168 160.673 216.347 161.856 217.094C162.071 217.201 162.394 217.307 162.501 217.306C163.897 217.409 164.752 216.333 164.211 215.154Z" fill="#D3DAE0"/>
<path d="M167.286 204.088C167.07 203.552 166.316 203.34 165.673 203.557C165.03 203.88 164.711 204.525 165.034 205.061C165.359 205.704 166.004 205.917 166.647 205.699C167.184 205.59 167.502 204.624 167.286 204.088Z" fill="#D3DAE0"/>
<path d="M172.865 203.318C172.647 202.675 172.11 202.354 171.467 202.572C171.145 202.68 170.716 203.003 170.61 203.326C170.291 203.971 170.721 204.399 171.797 205.039C172.439 204.607 173.189 204.282 172.865 203.318Z" fill="#D3DAE0"/>
<path d="M165.474 207.744C165.58 207.421 165.256 206.778 164.933 206.565C164.18 206.031 163.109 206.786 163.004 207.43C162.899 208.074 163.546 208.932 164.511 208.713C164.94 208.711 165.368 208.173 165.474 207.744Z" fill="#D3DAE0"/>
<path d="M177.825 210.062C177.286 209.205 176.104 208.78 175.246 209.319C174.067 209.86 173.644 211.258 174.184 212.328C174.723 213.293 175.691 213.718 176.548 213.287C177.619 212.639 178.365 210.919 177.825 210.062Z" fill="#D3DAE0"/>
<path d="M169.572 213.632C169.786 213.203 167.957 212.136 167.421 212.352C166.885 212.569 167.104 213.748 167.751 214.283C168.504 214.924 169.466 214.062 169.572 213.632Z" fill="#D3DAE0"/>
<path d="M186.702 200.587C186.162 199.729 184.228 199.092 183.369 199.417C182.405 199.849 181.981 201.354 182.522 202.424C183.062 203.389 184.673 203.921 185.531 203.381C186.71 202.947 187.241 201.55 186.702 200.587Z" fill="#D3DAE0"/>
<path d="M151.415 208.114C150.982 207.15 149.155 206.512 148.299 207.051C147.334 207.591 146.909 209.096 147.449 210.059C147.99 211.024 149.065 211.449 149.922 211.017C151.101 210.477 151.846 208.97 151.415 208.114Z" fill="#D3DAE0"/>
<path d="M158.597 205.513C158.597 205.406 158.489 205.299 158.382 205.192C158.703 205.298 159.026 205.19 159.346 205.081C160.312 204.756 160.847 204.217 161.38 203.464C161.595 203.248 161.808 202.926 162.13 202.818C163.309 202.384 163.628 201.632 163.194 200.452C163.41 200.452 163.517 200.451 163.624 200.344C164.052 200.02 164.157 199.268 163.832 198.625C163.401 197.876 162.54 197.556 162.006 197.881C161.47 198.204 161.257 198.957 161.582 199.491C161.259 199.492 160.831 199.71 160.51 200.032C160.081 200.356 159.654 200.679 159.01 200.681C158.043 200.684 157.509 201.439 157.083 202.084C156.655 202.73 156.766 203.802 157.305 204.444C157.306 204.551 157.413 204.551 157.413 204.659C157.091 204.552 156.769 204.553 156.555 204.553C156.443 203.374 155.58 202.304 154.615 202.307C153.648 202.31 152.044 203.711 152.047 204.678C151.942 205.75 153.127 206.82 154.308 206.816C154.738 206.814 155.167 206.599 155.487 206.382C155.488 206.49 155.595 206.704 155.596 206.811C155.921 207.561 156.995 207.987 157.531 207.771C158.39 207.553 158.922 206.263 158.597 205.513Z" fill="#D3DAE0"/>
<path d="M162.201 192.407C161.769 191.656 160.265 191.34 159.407 191.773C158.657 192.097 158.446 192.956 158.879 193.707C159.417 194.67 160.171 194.99 161.241 194.45C162.099 193.91 162.524 192.942 162.201 192.407Z" fill="#D3DAE0"/>
<path d="M169.927 192.058C169.605 191.736 169.175 191.631 168.96 191.524C168.318 191.956 168.213 192.708 168.536 193.136C168.86 193.564 169.181 193.456 169.61 193.347C170.04 193.131 170.251 192.487 169.927 192.058Z" fill="#D3DAE0"/>
<path d="M177.877 194.391C177.769 194.176 177.447 193.963 177.125 194.071C176.804 194.18 176.806 194.609 176.913 194.823C177.021 195.038 177.452 195.465 177.773 195.357C177.989 195.249 177.986 194.605 177.877 194.391Z" fill="#D3DAE0"/>
<path d="M159.855 197.03C159.533 197.138 159.534 197.567 159.535 197.782C159.644 197.996 160.074 198.425 160.289 198.317C160.503 198.207 160.608 197.563 160.5 197.349C160.393 197.243 160.069 196.921 159.855 197.03Z" fill="#D3DAE0"/>
<path d="M170.7 198.387C170.376 197.637 169.731 197.317 169.088 197.642C168.445 197.965 167.806 199.364 168.022 199.9C168.348 200.757 169.314 200.968 170.28 200.643C170.922 200.211 171.133 199.352 170.7 198.387Z" fill="#D3DAE0"/>
<path d="M158.453 194.994C158.452 194.887 158.021 194.46 157.7 194.569C157.378 194.677 157.487 195.213 157.595 195.534C157.595 195.641 158.026 195.855 158.24 195.748C158.455 195.638 158.561 195.21 158.453 194.994Z" fill="#D3DAE0"/>
<path d="M154.379 196.082C154.698 195.437 154.911 194.792 155.876 194.682C156.519 194.573 156.624 193.928 156.515 193.285C155.762 192.75 155.119 192.967 154.798 193.612C153.939 193.294 153.294 192.973 152.65 192.868C152.005 192.763 151.149 193.303 150.614 193.842C150.613 193.412 150.504 192.876 150.179 192.34C149.639 191.377 149.101 191.056 148.457 190.951C148.248 192.454 148.039 193.958 147.828 195.461C148.365 195.566 149.009 195.564 149.545 195.241C149.759 195.133 149.974 194.917 150.187 194.702C150.298 195.667 151.161 196.844 151.913 197.057C152.666 197.592 153.845 197.051 154.379 196.082Z" fill="#D3DAE0"/>
<path d="M155.151 233.431C155.367 233.539 155.474 233.646 155.581 233.538C155.688 233.538 155.794 233.215 155.687 233.215C155.579 233.109 155.472 232.895 155.258 233.003C155.15 233.11 155.259 233.324 155.151 233.431Z" fill="#D3DAE0"/>
<path d="M157.507 231.708C158.255 230.524 157.822 229.345 156.426 229.135C155.996 229.03 155.566 229.031 155.031 229.14C155.03 228.925 155.03 228.818 154.92 228.604C154.597 227.961 153.308 227.751 152.558 228.075C151.807 228.4 151.381 229.26 151.705 230.01C151.814 230.332 152.137 230.545 152.352 230.759C152.246 230.975 152.246 231.189 152.247 231.403C152.249 231.94 152.465 232.369 153.002 232.474C154.291 232.684 155.687 232.679 156.973 232.031C157.294 232.03 157.4 231.815 157.507 231.708Z" fill="#D3DAE0"/>
<path d="M168.012 227.807C167.366 226.95 165.973 227.707 165.975 228.243C165.977 228.78 166.945 229.743 167.482 229.525C168.232 229.201 168.66 228.77 168.012 227.807Z" fill="#D3DAE0"/>
<path d="M164.045 228.893C163.936 228.679 163.613 228.037 163.077 228.253C162.54 228.47 162.759 229.22 162.867 229.434C162.974 229.649 163.297 230.077 163.726 229.861C164.155 229.645 164.153 229.108 164.045 228.893Z" fill="#D3DAE0"/>
<path d="M170.559 219.532C170.45 218.781 168.838 218.466 168.518 218.895C168.197 219.326 168.955 220.826 169.598 220.716C170.133 220.607 170.668 219.962 170.559 219.532Z" fill="#D3DAE0"/>
<path d="M170.608 233.378C170.712 232.52 170.496 231.877 169.423 232.094C168.35 232.314 168.355 233.816 168.786 234.137C169.216 234.35 170.61 233.915 170.608 233.378Z" fill="#D3DAE0"/>
<path d="M149.57 232.916C150.105 232.591 150.103 232.054 149.78 231.734C149.564 231.412 148.811 230.664 148.382 230.988C148.382 230.988 148.382 230.988 148.275 231.095C148.385 231.739 148.494 232.382 148.604 233.133C148.926 233.132 149.248 233.131 149.57 232.916Z" fill="#D3DAE0"/>
<path d="M159.967 229.123C159.859 229.016 159.215 228.91 159.001 229.126C158.787 229.341 159.111 229.877 159.326 229.984C159.542 230.09 159.97 230.088 160.185 229.873C160.292 229.766 160.076 229.337 159.967 229.123Z" fill="#D3DAE0"/>
<path d="M160.907 221.606C160.585 221.93 160.373 222.466 160.374 222.896C160.376 223.326 161.342 223.644 161.771 223.321C162.093 223.104 162.091 222.676 162.198 222.46C161.872 221.603 161.227 221.284 160.907 221.606Z" fill="#D3DAE0"/>
<path d="M168.743 222.007C168.422 222.008 167.994 222.439 167.887 222.654C167.674 223.191 168.212 223.619 168.642 223.618C168.963 223.617 169.822 223.399 169.82 222.755C169.924 222.003 169.066 222.006 168.743 222.007Z" fill="#D3DAE0"/>
<path d="M159.507 220.108C159.29 219.572 158.538 219.36 158.002 219.685C157.466 219.901 157.254 220.545 157.685 220.974C158.008 221.294 158.438 221.507 158.76 221.505C159.082 221.504 159.723 220.537 159.507 220.108Z" fill="#D3DAE0"/>
<path d="M150.612 224.54C150.612 224.54 150.612 224.432 150.612 224.54C150.611 224.324 150.718 224.217 150.934 224.216C151.578 224.214 152.438 224.962 153.405 225.066C154.587 225.17 155.764 224.629 155.76 223.341C155.754 221.838 154.787 221.09 153.605 220.987C151.887 220.886 152.109 222.71 151.034 222.177C149.958 221.751 150.815 220.997 149.31 220.465C148.451 220.147 147.7 220.364 147.165 220.795C147.275 221.653 147.278 222.511 147.388 223.37C147.496 223.477 147.712 223.583 147.926 223.69C147.927 224.012 147.501 225.086 148.362 225.406C148.469 225.406 148.683 225.512 148.791 225.512C148.792 225.941 148.902 226.369 149.224 226.584C149.762 227.01 150.836 226.9 151.154 225.933C151.259 225.503 150.935 224.753 150.612 224.54Z" fill="#D3DAE0"/>
<path d="M176.472 222.41C176.257 222.197 175.826 221.983 175.505 221.984C174.969 222.094 174.757 222.739 175.079 223.059C175.296 223.381 175.833 224.023 176.476 223.698C177.119 223.375 176.581 222.733 176.472 222.41Z" fill="#D3DAE0"/>
<path d="M163.931 227.177C164.143 226.64 163.819 225.89 163.282 225.783C162.638 225.571 161.568 226.756 161.785 227.292C162.001 227.721 163.612 227.822 163.931 227.177Z" fill="#D3DAE0"/>
<path d="M157.802 223.763C157.478 223.443 155.765 224.521 155.659 225.058C155.554 225.596 156.736 226.021 157.486 225.696C158.344 225.265 158.124 224.085 157.802 223.763Z" fill="#D3DAE0"/>
</g>
<defs>
<clipPath id="clip0_250_176824">
<rect width="165.398" height="165.398" fill="white" transform="translate(294.049 216.656) rotate(89.8009)"/>
</clipPath>
<clipPath id="clip1_250_176824">
<rect width="304.085" height="89.2067" fill="white" transform="translate(90.166 214.39) rotate(89.8009)"/>
</clipPath>
<clipPath id="clip2_250_176824">
<rect width="345.71" height="348.421" fill="white" transform="translate(476.321 0.460938) rotate(89.8009)"/>
</clipPath>
</defs>
</svg>
