<svg width="253" height="452" viewBox="0 0 253 452" fill="none" xmlns="http://www.w3.org/2000/svg">
<g clip-path="url(#clip0_250_176823)">
<path d="M119.58 351.638C119.046 406.327 74.2777 450.23 19.5879 449.695C-35.102 449.161 -79.004 404.393 -78.47 349.704C-77.9359 295.014 -33.1679 251.112 21.5219 251.646C76.2118 252.18 120.114 296.948 119.58 351.638Z" fill="#7DE2D1"/>
<path d="M63.679 283.273C64.9496 282.968 66.6801 284.253 66.9846 285.523C67.2876 286.952 66.4814 288.37 65.3708 288.518L65.2124 288.517L65.2108 288.675C65.0431 289.624 63.9263 290.405 63.1356 290.239C62.345 290.073 61.7236 288.799 62.0467 288.169C62.0482 288.01 62.2067 288.012 62.2082 287.853C61.8944 287.533 61.5806 287.213 61.4268 286.737C61.1223 285.466 62.41 283.419 63.679 283.273Z" fill="#42D4C6"/>
<path d="M95.8664 329.857C96.1996 328.117 97.6305 327.656 98.739 327.667C99.849 327.677 101.74 328.647 101.404 330.703C100.908 332.758 99.6321 333.697 98.3655 333.526C97.0989 333.355 95.6944 331.281 95.8664 329.857Z" fill="#42D4C6"/>
<path d="M67.6659 313.101C67.3397 314.048 65.9107 314.351 64.6478 313.864C63.8587 313.539 63.7065 312.904 63.8711 312.272C64.1988 311.166 65.3156 310.384 66.1047 310.709C67.2107 311.037 67.989 312.47 67.6659 313.101Z" fill="#42D4C6"/>
<path d="M40.9267 260.391C41.4159 258.97 42.8604 257.083 45.3955 257.108C46.9799 257.123 47.9243 257.766 48.5488 258.723C49.3302 259.84 48.2087 261.096 48.5132 262.367C48.5101 262.684 48.667 262.844 48.6655 263.002C49.1423 262.848 49.6192 262.695 50.0899 263.175C50.719 263.656 51.1881 264.295 50.7066 264.924C50.3851 265.396 49.7451 266.023 49.2698 266.019C48.6361 266.013 48.3223 265.693 48.1669 265.374C47.367 266.159 46.0964 266.463 44.9858 266.611C44.1936 266.603 43.5613 266.438 42.9322 265.957C42.1447 265.474 41.8371 264.52 41.6895 263.41C41.385 262.139 40.599 261.497 40.9267 260.391Z" fill="#42D4C6"/>
<path d="M87.6766 324.706C86.5722 324.22 86.2646 323.266 86.5938 322.002C87.0815 320.739 87.7184 320.428 89.1393 320.917C90.4029 321.405 91.0292 322.203 90.7021 323.151C90.7021 323.151 90.7005 323.309 90.5424 323.308C91.0153 323.629 91.3269 324.108 91.4804 324.585C91.6307 325.378 91.1487 326.166 90.3549 326.317C89.5612 326.467 88.7721 326.143 88.6217 325.349C88.6233 325.191 88.6263 324.874 88.6279 324.715C88.1519 324.711 87.835 324.708 87.6766 324.706Z" fill="#42D4C6"/>
<path d="M33.2869 263.803C34.0806 263.653 35.0266 264.137 35.1774 264.931C35.3281 265.725 35.005 266.355 34.2097 266.665C33.256 266.972 32.4684 266.489 32.3177 265.695C32.0086 264.9 32.4932 263.954 33.2869 263.803Z" fill="#42D4C6"/>
<path d="M12.985 265.823C12.9866 265.665 12.9897 265.348 13.3081 265.193C13.625 265.196 13.7819 265.356 13.7803 265.514C13.7788 265.673 13.6172 265.988 13.4588 265.986C13.2988 266.143 12.9835 265.982 12.985 265.823Z" fill="#42D4C6"/>
<path d="M22.8178 264.969C23.7699 264.82 24.5575 265.303 24.7067 266.256C24.8574 267.049 24.0559 267.992 23.2621 268.143C22.4684 268.294 21.6824 267.652 21.5317 266.858C21.3825 265.906 21.864 265.277 22.8178 264.969Z" fill="#42D4C6"/>
<path d="M38.0494 262.898C37.891 262.897 37.2588 262.732 37.2603 262.574C37.2634 262.257 37.4265 261.783 37.5865 261.626C37.7465 261.469 38.5387 261.477 38.6925 261.954C39.0031 262.591 38.3678 262.743 38.0494 262.898Z" fill="#42D4C6"/>
<path d="M62.6314 293.245C63.9004 293.099 65.6324 294.225 65.7801 295.335L65.7785 295.494C66.42 294.708 67.3722 294.559 68.3182 295.043C69.4226 295.529 70.044 296.803 69.7194 297.592C69.0733 298.853 67.3227 299.629 66.0598 299.141C65.2707 298.816 64.9646 297.704 65.1324 296.755C64.8124 297.069 64.334 297.381 63.8587 297.376C62.5881 297.681 61.6436 297.038 61.3407 295.609C61.193 294.498 61.6792 293.394 62.6314 293.245Z" fill="#42D4C6"/>
<path d="M52.9412 295.686C52.7796 296.001 52.3028 296.155 51.9859 296.152C51.669 296.149 51.0414 295.509 51.2029 295.194C51.3645 294.878 52.1582 294.728 52.4736 294.889C52.7904 294.892 53.1027 295.371 52.9412 295.686Z" fill="#42D4C6"/>
<path d="M31.3156 287.235C30.5219 287.386 29.8912 287.063 29.8989 286.271C29.9036 285.795 30.2251 285.323 30.3882 284.849C31.3404 284.7 32.1264 285.342 32.2771 286.135C32.4278 286.929 31.9509 287.083 31.3156 287.235Z" fill="#42D4C6"/>
<path d="M56.4025 298.256C56.2394 298.729 55.4488 298.563 55.2903 298.562C55.1319 298.56 54.8197 298.082 54.9812 297.766C55.1427 297.451 55.618 297.456 55.9349 297.459C55.9365 297.3 56.5656 297.782 56.4025 298.256Z" fill="#42D4C6"/>
<path d="M65.3558 306.265C65.0358 306.579 63.6145 306.09 63.4623 305.455C63.3116 304.661 63.7931 304.032 64.5884 303.722C65.2237 303.57 66.0112 304.053 66.005 304.687C65.8388 305.478 65.6758 305.951 65.3558 306.265Z" fill="#42D4C6"/>
<path d="M73.4915 300.64C73.65 300.642 73.65 300.642 73.4915 300.64C73.024 299.843 72.8765 298.733 73.2058 297.468C73.695 296.047 74.9687 295.426 76.3914 295.756C77.9712 296.247 79.0617 298.159 78.5725 299.581C78.5709 299.739 78.4109 299.896 78.4094 300.054C78.7232 300.374 79.0354 300.853 78.7123 301.484C77.4247 303.531 75.8558 301.931 75.2174 302.4C74.8974 302.714 74.5728 303.503 74.2482 304.292C75.3526 304.778 75.8188 305.734 75.3311 306.996C74.8403 308.576 73.5664 309.198 71.8298 308.547C70.7238 308.219 69.9426 307.102 70.1119 305.995C69.955 305.835 69.7979 305.675 69.641 305.515C68.3874 304.076 68.72 302.495 69.8399 301.397C71.5966 299.988 72.8454 301.902 73.4915 300.64Z" fill="#42D4C6"/>
<path d="M69.6817 268.912C70.1632 268.283 70.9585 267.974 71.5861 268.614C72.2137 269.254 72.8459 269.419 73.795 269.586C75.6931 269.922 76.6283 271.515 76.136 273.254C76.1313 273.729 76.1267 274.204 76.1267 274.204C76.282 274.523 76.4389 274.683 76.4358 275C77.0789 274.055 78.3526 273.434 79.3001 273.76C80.0892 274.085 80.7075 275.675 80.2214 276.78C79.8937 277.886 78.7784 278.508 77.8324 278.024C76.8848 277.698 76.2604 276.741 76.1097 275.947C76.1081 276.106 75.9497 276.104 75.9481 276.262C75.3082 276.89 74.6775 276.567 74.0469 276.244C73.4162 275.921 72.6286 275.438 71.998 275.115C71.6826 274.953 71.3689 274.633 71.0535 274.472C70.732 274.944 70.2505 275.573 69.7767 275.41C68.9861 275.244 68.9984 273.976 68.5293 273.338C68.6893 273.181 68.6908 273.023 68.8508 272.866C69.6477 272.398 69.963 272.56 70.4368 272.723C70.2799 272.563 70.2814 272.404 70.1245 272.244C68.3925 271.118 68.3987 270.484 69.6817 268.912Z" fill="#42D4C6"/>
<path d="M76.9094 307.646C78.0216 307.34 79.126 307.826 79.2736 308.936C79.5781 310.207 78.9304 311.627 77.9767 311.934C78.6105 311.941 79.3903 313.216 79.2241 314.007C79.2179 314.64 78.5795 315.109 77.7889 314.943C76.5229 314.772 75.7369 314.131 75.9015 313.499C75.9061 313.023 76.8645 312.241 77.4998 312.088C76.3907 312.077 75.2894 311.274 74.9818 310.321C74.6742 309.367 75.7972 307.952 76.9094 307.646Z" fill="#42D4C6"/>
<path d="M86.6536 332.144C86.1783 332.139 86.0229 331.821 86.186 331.347C86.3491 330.873 86.5091 330.716 86.9829 330.879C87.4566 331.042 87.6135 331.202 87.4504 331.676C87.4458 332.151 87.1274 332.307 86.6536 332.144Z" fill="#42D4C6"/>
<path d="M107.631 309.53C108.895 310.017 109.83 311.611 109.502 312.717C109.172 313.981 106.627 315.066 105.365 314.578C104.89 314.415 104.579 313.937 104.266 313.458C103.788 313.77 103.154 313.764 102.68 313.601C101.891 313.277 101.425 312.321 101.748 311.691C102.072 310.901 103.185 310.595 103.974 310.92C104.132 310.922 104.131 311.08 104.289 311.082C104.935 309.82 106.527 309.044 107.631 309.53Z" fill="#42D4C6"/>
<path d="M97.9963 322.587C95.9468 321.617 95.9546 320.825 96.6071 318.771C96.9374 317.507 98.6861 316.89 99.9496 317.378C101.211 317.865 101.669 319.771 101.018 321.508C100.529 322.771 99.2583 323.234 97.9963 322.587Z" fill="#42D4C6"/>
<path d="M112.88 323.683C111.294 323.826 110.669 323.028 110.37 321.124C109.583 320.641 108.793 320.316 108.166 319.676C107.539 319.036 107.55 317.927 108.029 317.456C107.873 317.296 107.558 317.135 107.401 316.816C107.245 316.656 107.409 316.024 107.886 315.87C108.364 315.717 108.672 316.512 108.671 316.67C108.671 316.67 108.671 316.67 108.669 316.829C109.31 316.201 110.107 315.734 110.905 315.108C110.761 313.68 110.92 313.523 112.188 313.377C113.429 316.241 114.35 319.261 115.271 322.281C114.947 323.07 113.992 323.536 112.88 323.683Z" fill="#42D4C6"/>
<path d="M91.2935 311.273C91.6035 311.909 90.8021 312.852 90.168 312.846C89.6937 312.842 89.3804 312.363 89.0642 312.36C88.9169 311.249 89.399 310.462 90.0315 310.626C90.5075 310.631 91.1385 310.954 91.2935 311.273Z" fill="#42D4C6"/>
<path d="M97.6594 308.482C99.3957 309.133 100.171 310.884 99.5213 312.462C99.0362 313.566 98.2393 314.034 97.1293 314.023C97.2858 314.183 97.444 314.343 97.5991 314.661C97.9075 315.457 97.2626 316.56 96.4689 316.71C95.993 316.864 95.3635 316.383 94.8937 315.744C94.4194 315.74 93.9434 315.735 93.4707 315.572C92.2071 315.084 91.2754 313.174 91.7605 312.069C91.925 311.595 92.2443 311.282 92.5636 310.968C92.407 310.808 92.2504 310.648 92.2535 310.331C92.2613 309.539 93.2162 309.073 93.6953 308.76C94.1712 308.607 94.6441 308.928 94.7975 309.405C95.4409 308.461 96.7137 307.998 97.6594 308.482Z" fill="#42D4C6"/>
<path d="M78.541 270.425C79.9561 271.548 81.3728 272.512 82.7879 273.635C81.6773 273.783 80.8867 273.617 80.0991 273.134C79.3115 272.651 78.6886 271.535 78.541 270.425Z" fill="#42D4C6"/>
<path d="M107.203 320.935C107.206 320.618 107.369 320.144 107.689 319.989C108.006 319.833 108.478 320.313 108.634 320.473C108.789 320.792 108.623 321.582 108.304 321.738C107.83 321.733 107.202 321.093 107.203 320.935Z" fill="#42D4C6"/>
<path d="M62.945 261.083C62.785 261.24 62.785 261.24 62.625 261.397C61.8281 261.864 60.876 262.013 60.0869 261.689C59.916 262.955 58.7915 264.528 57.6793 264.834C56.5671 265.14 54.5198 263.853 54.0569 262.581C53.5939 261.308 54.3985 260.049 55.8276 259.746C56.9397 259.44 57.8904 259.449 58.5226 259.614C58.5241 259.455 58.5241 259.455 58.5257 259.297C60.1039 259.946 61.5252 260.435 62.945 261.083Z" fill="#42D4C6"/>
<path d="M91.0441 304.297L91.2039 304.299C91.993 304.624 92.303 305.261 92.1372 306.051C91.8116 306.84 91.0147 307.308 90.2241 307.142C89.7513 306.979 89.4381 306.5 89.2846 306.023C88.3358 305.856 87.2345 305.053 87.0838 304.259C86.9331 303.465 87.8978 302.048 88.8505 301.899C89.6443 301.749 90.5884 302.392 90.7403 303.027C91.0519 303.505 91.207 303.982 91.0441 304.297Z" fill="#42D4C6"/>
<path d="M84.9818 308.518C85.1341 309.153 84.6525 309.782 83.8588 309.933C83.0651 310.083 82.7544 309.447 82.6006 308.97C82.6052 308.494 82.6176 307.227 83.4113 307.076C84.2035 307.084 84.9865 308.042 84.9818 308.518Z" fill="#42D4C6"/>
<path d="M92.3759 297.815C93.4797 298.301 94.2518 300.368 93.7651 301.631C93.4394 302.42 92.1698 302.725 90.9063 302.237C89.4862 301.589 89.1777 300.794 89.8273 299.216C90.3109 298.27 91.5868 297.49 92.3759 297.815Z" fill="#42D4C6"/>
<path d="M79.86 281.371C80.9783 280.432 81.5997 281.705 82.3903 281.871C83.181 282.038 84.1239 282.839 83.9546 283.947C83.7854 285.054 83.1408 286.157 83.2946 286.634C83.293 286.792 83.293 286.792 83.4499 286.952C83.7683 286.797 84.2437 286.802 84.7174 286.965C85.0328 287.126 85.5065 287.289 85.8203 287.609C86.4525 287.774 87.0801 288.414 87.3862 289.526C88.0029 291.275 86.5599 293.004 85.2955 292.675C84.0311 292.345 83.8804 291.552 83.5619 291.707C83.0851 291.861 82.442 292.805 81.6529 292.481C80.8638 292.156 80.7301 289.619 81.0517 289.147C81.3732 288.675 82.1731 287.891 81.544 287.409C80.9164 286.769 79.8089 286.6 79.5013 285.646C79.3552 284.377 78.7416 282.311 79.86 281.371Z" fill="#42D4C6"/>
<path d="M68.7318 285.065C69.0518 284.752 69.5287 284.598 69.6887 284.441C70.6347 284.925 70.9438 285.721 70.6223 286.193C70.3023 286.507 69.6654 286.817 69.3486 286.814C68.7148 286.808 68.2519 285.536 68.7318 285.065Z" fill="#42D4C6"/>
<path d="M76.023 284.82C76.4983 284.824 77.4505 284.675 77.6012 285.469C77.7535 286.104 77.272 286.733 76.792 287.204C76.312 287.675 75.526 287.033 75.3738 286.398C74.9077 285.443 75.3893 284.814 76.023 284.82Z" fill="#42D4C6"/>
<path d="M85.3593 302.341C84.8762 303.129 84.0809 303.438 83.2918 303.113C82.5027 302.789 82.5089 302.155 82.6751 301.364C82.9997 300.575 83.955 300.109 84.5856 300.432C85.3747 300.757 85.6839 301.552 85.3593 302.341Z" fill="#42D4C6"/>
<path d="M85.7668 309.317C85.1392 308.677 84.3532 308.035 85.1547 307.092C85.7962 306.306 86.7437 306.632 87.3728 307.114C87.5189 308.383 87.1943 309.172 85.7668 309.317Z" fill="#42D4C6"/>
<path d="M60.8763 278.176C60.0872 277.851 59.778 277.056 59.9427 276.423C60.1119 275.316 61.221 275.327 62.3332 275.021C62.8023 275.659 63.113 276.296 63.2668 276.773C63.5868 276.459 63.9068 276.145 64.3821 276.15C65.6527 275.845 67.5431 276.973 67.8476 278.244C68.1521 279.514 67.346 280.932 66.0754 281.237C64.1695 281.694 62.5928 280.886 62.2899 279.457C62.293 279.14 62.2976 278.665 62.3023 278.189C61.8254 278.343 61.3501 278.339 60.8763 278.176Z" fill="#42D4C6"/>
<path d="M98.5314 348.896C98.6895 348.898 99.0027 349.376 98.8415 349.692C98.6786 350.007 98.2028 350.161 97.8849 350.158C97.7268 350.156 97.0989 349.516 97.2618 349.201C97.423 348.886 98.2152 348.893 98.5314 348.896Z" fill="#42D4C6"/>
<path d="M95.7053 346.333C96.6572 346.184 97.4494 346.192 97.9144 347.147C98.2246 347.943 97.899 348.732 97.2634 349.042C96.7859 349.196 95.9937 349.188 95.6806 348.868C94.7363 348.067 95.0635 347.119 95.7053 346.333Z" fill="#42D4C6"/>
<path d="M109.361 343.457C109.85 342.035 111.444 341.1 112.706 341.588C113.97 342.075 115.055 344.463 114.726 345.727C114.562 346.36 113.923 346.829 113.286 347.139C113.284 347.298 113.283 347.456 113.123 347.613C112.799 348.244 111.844 348.71 111.054 348.544C110.264 348.219 109.956 347.424 110.28 346.635C109.495 345.835 109.035 344.404 109.361 343.457Z" fill="#42D4C6"/>
<path d="M85.3647 350.511C84.5694 350.82 84.2556 350.5 83.6374 348.91C84.1235 347.805 85.7048 348.138 86.0155 348.775C86.3262 349.412 85.8416 350.358 85.3647 350.511Z" fill="#42D4C6"/>
<path d="M82.2423 361.889C81.447 362.199 80.3441 361.554 80.5149 360.288C81.0011 359.184 82.5824 359.516 82.8931 360.153C83.2038 360.79 82.8776 361.737 82.2423 361.889Z" fill="#42D4C6"/>
<path d="M69.2637 328.012C69.2622 328.17 68.9391 328.801 68.6222 328.798C68.3053 328.794 67.8331 328.473 67.8347 328.314C67.8378 327.998 67.8439 327.364 68.4793 327.212C69.1146 327.059 69.2653 327.853 69.2637 328.012Z" fill="#42D4C6"/>
<path d="M115.639 349.54C117.061 350.029 117.835 351.938 117.187 353.358C116.7 354.462 114.633 355.234 113.053 354.743C111.79 354.256 111.17 352.824 111.66 351.402C112.629 349.51 113.745 348.887 115.639 349.54Z" fill="#42D4C6"/>
<path d="M87.0294 358.451C86.0881 357.491 85.7851 356.062 86.2697 355.116C86.9143 354.013 88.0294 353.39 89.2976 353.403C89.7719 353.407 90.2464 353.57 90.5595 353.89C91.6587 355.01 91.8014 356.596 90.6806 357.853C90.5177 358.168 90.1999 358.324 90.0387 358.639C90.5084 359.119 90.9813 359.44 91.4542 359.762C92.2387 360.562 92.3906 361.197 91.7472 362.142C91.1054 362.928 90.3085 363.395 89.2032 363.067C88.2545 362.9 87.786 362.103 87.6369 361.151C87.4846 360.515 87.6493 359.883 87.8154 359.093C87.5001 358.931 87.1863 358.611 87.0294 358.451Z" fill="#42D4C6"/>
<path d="M109.104 353.436C108.782 353.908 107.822 354.85 107.191 354.527C106.562 354.204 106.731 353.096 106.894 352.622C107.058 351.99 107.38 351.518 108.171 351.684C108.802 351.849 109.427 352.806 109.104 353.436Z" fill="#42D4C6"/>
<path d="M4.2138 255.439C4.51676 256.868 3.55065 258.443 2.28004 258.747C0.850984 259.05 -0.725675 258.243 -1.18862 256.971C-1.49467 255.858 -1.16541 254.594 -0.523915 253.808C0.111391 253.656 0.905141 253.505 1.54045 253.353C2.80487 253.682 4.06465 254.487 4.2138 255.439Z" fill="#42D4C6"/>
<path d="M10.7479 284.024C10.4388 283.229 10.4527 281.803 12.0386 281.66C13.6246 281.517 14.8766 283.114 15.1811 284.384C15.4841 285.813 13.5611 288.013 11.8199 287.837C11.1861 287.831 10.8739 287.353 10.7201 286.876C10.4047 286.714 10.2509 286.238 10.2525 286.079C10.254 285.921 10.4171 285.447 10.7355 285.292C10.894 285.293 10.894 285.293 11.0509 285.453C11.5339 284.666 11.2155 284.821 10.7479 284.024Z" fill="#42D4C6"/>
<path d="M3.92948 268.27C4.23398 269.54 3.4325 270.483 2.00345 270.786C0.574393 271.089 -0.528498 270.445 -0.673012 269.017C-0.977515 267.747 -0.0145007 266.488 1.41455 266.185C2.2083 266.035 3.62497 266.999 3.92948 268.27Z" fill="#42D4C6"/>
<path d="M44.257 276.269C44.5847 275.163 45.3816 274.696 46.1691 275.179C46.8122 274.234 47.1383 273.287 47.7783 272.659C48.2598 272.03 49.6873 271.885 50.6364 272.053C50.1657 271.573 50.0119 271.096 49.8612 270.303C49.7182 268.717 49.8844 267.926 50.6828 267.3C50.8459 266.826 51.1674 266.354 51.6443 266.2C52.2796 266.048 52.9102 266.371 53.2225 266.85C54.17 267.176 54.9545 267.976 55.2574 269.405C55.2559 269.563 55.2544 269.721 55.2544 269.721C55.579 268.932 56.3773 268.306 57.0142 267.996C57.8079 267.845 58.9093 268.648 59.2169 269.602C59.5214 270.872 58.8783 271.817 57.4477 272.278C56.3356 272.584 55.0725 272.097 54.9235 271.144C54.9251 270.986 54.9251 270.986 54.9266 270.827C54.4434 271.615 53.8036 272.243 52.8514 272.392C52.5346 272.389 52.2177 272.386 51.9008 272.382C52.5253 273.339 52.6652 275.242 52.1806 276.188C51.5375 277.133 49.9485 277.592 48.6871 276.946C47.7396 276.62 47.1105 276.139 46.1537 276.763C45.3522 277.706 44.7246 277.066 44.257 276.269Z" fill="#42D4C6"/>
<path d="M97.93 361.884C97.2836 363.145 94.4248 363.751 93.011 362.628C92.0668 361.827 93.0327 360.41 93.828 360.101C94.6232 359.792 94.3054 359.789 94.6325 358.841C94.7999 357.892 95.7611 356.792 97.1781 357.757C98.5951 358.722 98.5765 360.623 97.93 361.884Z" fill="#42D4C6"/>
<path d="M35.3974 291.078C36.3496 290.929 38.0847 291.738 38.2369 292.373C38.543 293.485 37.8984 294.588 36.6278 294.893C35.674 295.2 34.7311 294.399 34.4266 293.128C34.119 292.175 34.4452 291.227 35.3974 291.078Z" fill="#42D4C6"/>
<path d="M13.0387 292.762C13.0372 292.92 12.8741 293.394 12.5557 293.549C12.2388 293.546 11.925 293.226 11.7697 292.908C11.6128 292.748 11.7774 292.115 12.2543 291.962C12.7311 291.808 13.0403 292.603 13.0387 292.762Z" fill="#42D4C6"/>
<path d="M43.6567 289.099C43.4967 289.256 43.3383 289.254 43.1783 289.411C42.543 289.563 41.7585 288.763 41.6094 287.811C41.4618 286.701 41.9464 285.755 42.8985 285.605C43.6923 285.455 44.4783 286.096 44.629 286.89C44.9474 286.735 45.4243 286.581 46.0596 286.429C46.8518 286.436 47.4856 286.443 48.1255 285.815C49.0839 285.032 50.1899 285.36 51.2974 285.529C52.2465 285.697 53.0263 286.972 53.0155 288.081C53.0139 288.24 53.0139 288.24 53.0124 288.398C53.3355 287.767 53.9739 287.298 54.6076 287.304C55.5598 287.155 56.3443 287.955 56.8072 289.227C57.1148 290.181 56.4671 291.601 55.6734 291.752C54.5612 292.058 52.9861 291.091 52.6785 290.138C52.68 289.979 52.6816 289.821 52.6831 289.662C52.3632 289.976 52.0432 290.29 51.5663 290.444C50.4526 290.908 49.3451 290.739 48.2375 290.57C47.9222 290.408 47.2885 290.402 46.97 290.557C45.0626 291.173 44.1166 290.688 43.6567 289.099Z" fill="#42D4C6"/>
<path d="M93.9875 327.461C94.3023 327.781 94.4526 328.575 94.448 329.05C94.1163 330.631 93.155 331.573 91.0963 331.552C90.7831 331.074 90.3134 330.594 90.0017 329.957C89.5382 328.844 90.0234 327.739 90.6621 327.27C91.9365 326.649 93.203 326.661 93.9875 327.461Z" fill="#42D4C6"/>
<path d="M11.8218 255.196C10.8634 255.979 10.0728 255.813 8.34848 253.894C7.5501 254.52 6.75016 255.305 5.81035 254.187C5.33967 253.707 5.18588 253.23 5.34896 252.756C7.72865 252.462 10.1083 252.169 12.6465 251.876C12.9525 252.989 12.6202 254.57 11.8218 255.196Z" fill="#42D4C6"/>
<path d="M99.3389 396.124C99.9853 394.863 101.416 394.401 102.678 394.889C104.256 395.538 104.873 397.287 104.225 398.707C103.579 399.968 102.306 400.59 101.201 400.104C99.6226 399.454 98.694 397.227 99.3389 396.124Z" fill="#42D4C6"/>
<path d="M92.6492 399.703C92.3298 399.859 91.6972 399.694 91.5407 399.534C91.3841 399.374 91.2353 398.422 91.5546 398.108C91.8756 397.794 92.8212 398.279 92.9762 398.597C93.1328 398.757 92.967 399.548 92.6492 399.703Z" fill="#42D4C6"/>
<path d="M107.888 380.521C108.215 379.573 109.17 379.107 109.959 379.432C110.748 379.756 111.681 381.508 111.515 382.299C111.188 383.405 109.916 383.868 108.652 383.38C107.547 383.052 107.243 381.782 107.888 380.521Z" fill="#42D4C6"/>
<path d="M107.042 386.059C107.516 386.222 107.989 386.543 108.143 387.02C108.451 387.815 108.129 388.446 106.695 389.224C105.907 388.741 104.96 388.415 105.289 387.151C105.614 386.362 106.251 385.893 107.042 386.059Z" fill="#42D4C6"/>
<path d="M66.571 263.019C67.9892 263.825 69.409 264.473 70.8272 265.279C70.6672 265.436 70.3472 265.749 69.5535 265.9C67.806 266.358 65.9218 264.597 66.571 263.019Z" fill="#42D4C6"/>
<path d="M30.1961 272.012C30.0516 270.585 30.8577 269.166 32.1283 268.862C33.3989 268.557 34.5049 268.885 35.1309 269.683C35.2956 269.051 35.6171 268.579 36.2555 268.11C38.0092 267.018 39.5905 267.35 40.3734 268.309C40.8425 268.947 40.8286 270.373 40.5024 271.32C41.2946 271.328 41.7668 271.65 42.076 272.445C42.2267 273.239 41.7436 274.026 40.7915 274.175C39.9977 274.326 39.0517 273.842 38.901 273.048C38.9026 272.889 38.9026 272.889 38.9041 272.731C37.6335 273.035 36.6875 272.551 36.0615 271.752L35.9046 271.592C35.7369 272.542 34.9385 273.168 33.6678 273.472C33.191 273.626 32.7157 273.621 32.3988 273.618C32.5541 273.937 32.551 274.253 32.388 274.727C32.2233 275.359 31.5865 275.67 30.9527 275.664C31.268 275.825 31.7418 275.989 31.7403 276.147C31.8941 276.624 30.9357 277.407 30.6157 277.721C29.9789 278.031 29.3482 277.708 29.1975 276.914C28.8884 276.119 29.3683 275.648 30.0021 275.655C30.0021 275.655 29.8436 275.653 29.8452 275.495C29.0576 275.012 28.4347 273.896 28.6024 272.947C28.6086 272.313 29.8792 272.009 30.1961 272.012Z" fill="#42D4C6"/>
<path d="M7.83829 273.696C7.99673 273.697 8.47205 273.702 8.62739 274.02C8.6243 274.337 8.46122 274.811 8.30123 274.968C8.14124 275.125 7.35059 274.958 7.19524 274.64C6.88146 274.32 7.51986 273.851 7.83829 273.696Z" fill="#42D4C6"/>
<path d="M116.577 366.978C117.526 367.305 117.833 368.258 117.509 369.047C117.185 369.678 116.232 369.986 115.443 369.661C114.654 369.336 114.345 368.541 114.668 367.91C114.991 367.121 115.788 366.654 116.577 366.978Z" fill="#42D4C6"/>
<path d="M104.73 363.218C104.404 364.166 102.972 364.786 101.866 364.458C100.759 364.13 100.452 363.177 100.942 361.755C101.266 360.966 102.066 360.182 102.858 360.189C102.86 360.031 102.86 360.031 102.862 359.873C103.185 359.084 103.982 358.616 104.933 358.784C105.406 358.947 106.04 358.953 106.675 358.801C107.629 358.493 108.577 358.661 109.204 359.459C109.674 360.098 109.337 361.996 108.539 362.622C107.9 363.091 107.102 363.717 106.157 363.074C105.686 362.753 105.213 362.431 104.74 362.109C104.736 362.585 104.733 362.902 104.73 363.218Z" fill="#42D4C6"/>
<path d="M103.693 372.082C103.532 372.398 103.373 372.396 103.214 372.553L103.212 372.711C102.885 373.659 101.769 374.44 100.82 374.273C99.7132 373.945 98.9334 372.67 99.1007 371.721C99.2683 370.93 100.539 370.467 101.806 370.638C102.125 370.324 102.603 370.17 102.921 370.015C103.868 370.341 104.018 371.293 103.693 372.082Z" fill="#42D4C6"/>
<path d="M89.9599 366.718C89.9614 366.56 90.4404 366.089 90.9148 366.252C91.3893 366.415 91.2218 367.206 91.0606 367.521C91.059 367.68 90.5816 367.992 90.2653 367.83C90.1103 367.512 89.9568 367.035 89.9599 366.718Z" fill="#42D4C6"/>
<path d="M87.2514 384.439C87.8954 383.336 90.2828 382.25 91.5463 382.738C92.8099 383.226 93.4237 385.133 92.7774 386.553C92.1309 387.814 90.2209 388.588 88.9606 387.942C87.382 387.293 86.6068 385.542 87.2514 384.439Z" fill="#42D4C6"/>
<path d="M117.714 364.295C117.711 364.612 117.55 364.927 117.071 365.239C116.433 365.55 115.643 365.384 115.171 365.062C114.53 365.848 113.258 366.153 112.313 365.668C111.049 365.181 110.592 363.433 111.241 361.855C111.727 360.75 112.841 360.286 114.103 360.774C114.419 360.935 114.892 361.098 115.047 361.417C116.005 360.792 117.109 361.278 117.424 361.44C117.748 360.809 118.387 360.34 119.18 360.189C119.005 361.772 118.832 363.355 118.658 364.938C118.185 364.616 117.87 364.455 117.714 364.295Z" fill="#42D4C6"/>
<path d="M114.917 374.726C114.437 375.356 113.643 375.506 113.013 375.025C112.7 374.705 112.229 374.225 112.234 373.749C112.246 372.482 113.199 372.174 114.468 372.187C115.094 372.985 115.719 373.783 114.917 374.726Z" fill="#42D4C6"/>
<path d="M99.6897 376.32C99.6866 376.637 99.0463 377.265 98.7316 377.103C98.417 376.942 98.2649 376.148 98.4278 375.833C98.589 375.517 99.0664 375.205 99.3828 375.366C99.6974 375.528 99.6912 376.162 99.6897 376.32Z" fill="#42D4C6"/>
<path d="M110.491 373.732C110.167 374.363 109.694 374.2 109.061 374.035C108.272 373.711 108.122 372.917 108.601 372.446C108.922 372.132 109.559 371.822 109.877 371.666C110.664 372.149 110.813 373.102 110.491 373.732Z" fill="#42D4C6"/>
<path d="M58.3871 322.201C58.5517 321.569 59.1885 321.258 59.8208 321.423C60.6114 321.589 60.9221 322.226 60.7575 322.858C60.5913 323.649 59.636 324.115 59.0054 323.792C58.2162 323.467 58.064 322.832 58.3871 322.201Z" fill="#42D4C6"/>
<path d="M36.9485 310.742C36.8024 309.473 37.6085 308.054 38.8792 307.75C40.4682 307.29 42.0433 308.256 42.3447 309.844C42.6477 311.273 42.0031 312.376 40.7325 312.68C39.3019 313.142 37.253 312.012 36.9485 310.742Z" fill="#42D4C6"/>
<path d="M32.135 316.875C32.2981 316.401 33.2503 316.252 33.5656 316.413C33.8809 316.575 34.0332 317.21 34.0301 317.527C33.8686 317.842 33.2317 318.153 32.9164 317.992C32.5995 317.989 31.9719 317.349 32.135 316.875Z" fill="#42D4C6"/>
<path d="M67.7805 317.539C67.7774 317.856 67.7713 318.49 67.2943 318.643C66.659 318.796 66.3468 318.317 66.1914 317.999C66.0361 317.68 65.8869 316.728 66.6807 316.577C67.4744 316.427 67.6251 317.22 67.7805 317.539Z" fill="#42D4C6"/>
<path d="M20.3307 308.678C20.0262 307.407 21.4754 305.044 22.746 304.74C24.0166 304.435 25.7486 305.562 26.05 307.149C26.353 308.578 25.2269 310.31 23.9563 310.615C22.2104 310.914 20.4768 309.947 20.3307 308.678Z" fill="#42D4C6"/>
<path d="M51.6465 314.688C51.648 314.529 51.9665 314.374 52.1265 314.217C51.968 314.216 51.9696 314.057 51.9696 314.057C51.502 313.26 52.7865 311.53 53.4187 311.695C54.0509 311.859 54.5108 313.448 54.0277 314.236C54.6568 314.717 54.6445 315.985 53.8476 316.452C53.3708 316.606 52.5848 315.965 51.9541 315.642C51.7972 315.482 51.4819 315.32 51.6465 314.688Z" fill="#42D4C6"/>
<path d="M65.1571 342.866C65.3279 341.6 65.8063 341.288 67.3923 341.145C68.0338 340.359 68.6753 339.573 69.3152 338.945C69.9551 338.318 71.0596 338.804 71.0503 339.755C70.881 340.862 71.1871 341.974 70.2272 342.916C69.7518 342.911 69.2765 342.906 68.6412 343.059C67.8366 344.318 66.7214 344.941 65.9323 344.617C65.3032 344.135 64.9925 343.498 65.1571 342.866Z" fill="#42D4C6"/>
<path d="M46.9112 296.579C47.2389 295.473 48.8249 295.33 49.6124 295.813C50.4 296.296 50.386 297.722 49.2708 298.345C48.7924 298.657 47.8433 298.489 47.5295 298.169C46.8973 298.005 46.7481 297.052 46.9112 296.579Z" fill="#42D4C6"/>
<path d="M36.2628 299.802C35.9536 299.006 36.2783 298.217 36.9151 297.907C37.2335 297.751 38.0259 297.759 38.3412 297.92C39.1288 298.403 39.1224 299.037 38.4732 300.615C37.8379 300.768 36.7257 301.074 36.2628 299.802Z" fill="#42D4C6"/>
<path d="M53.4746 257.346C54.1068 257.51 54.5806 257.673 55.2113 257.996C54.4191 257.989 53.9468 257.667 53.4746 257.346Z" fill="#42D4C6"/>
<path d="M75.8593 334.098C75.5502 333.303 74.7642 332.661 75.0888 331.872C75.2534 331.24 75.5718 331.084 76.0487 330.931C76.3671 330.775 76.6871 330.462 77.4793 330.469C78.1131 330.475 79.3759 330.963 80.002 331.762C80.468 332.717 80.4603 333.509 79.9772 334.297C79.4942 335.084 78.7004 335.235 78.0667 335.229C77.276 335.062 76.3285 334.736 75.8593 334.098Z" fill="#42D4C6"/>
<path d="M42.4792 296.059C42.3285 295.266 42.8115 294.478 43.6068 294.169C44.559 294.02 45.3481 294.344 45.4988 295.138C45.6495 295.932 45.3234 296.879 44.5296 297.03C43.7343 297.339 42.7883 296.855 42.4792 296.059Z" fill="#42D4C6"/>
<path d="M62.3799 318.913C62.3814 318.755 62.3845 318.438 62.5445 318.281C62.8691 317.492 63.8228 317.184 64.6119 317.509C65.401 317.833 65.8671 318.789 65.7025 319.421C65.5394 319.895 64.741 320.521 64.1057 320.673C63.9441 320.988 63.7826 321.304 63.4657 321.301C62.3536 321.607 61.5629 321.44 61.4168 320.171C61.423 319.538 61.903 319.067 62.3799 318.913Z" fill="#42D4C6"/>
<path d="M94.2352 334.593C94.3886 335.07 94.5406 335.705 94.5359 336.181C94.3716 336.813 93.7344 337.124 93.1034 336.8C92.4726 336.636 91.9997 336.314 92.1655 335.524C92.4896 334.893 93.2864 334.425 94.2352 334.593Z" fill="#42D4C6"/>
<path d="M59.5023 337.741C59.8285 336.793 60.9453 336.012 61.5744 336.493C62.2051 336.816 62.1803 339.351 61.3835 339.819C60.7451 340.288 59.3346 338.69 59.5023 337.741Z" fill="#42D4C6"/>
<path d="M63.961 335.566C64.1241 335.093 64.5994 335.097 64.7563 335.257C65.0717 335.419 65.5439 335.74 65.3808 336.214C65.2177 336.688 64.4271 336.522 64.2686 336.52C64.1117 336.36 63.798 336.04 63.961 335.566Z" fill="#42D4C6"/>
<path d="M48.5667 321.789C48.5698 321.472 48.8929 320.842 49.2128 320.528C49.8497 320.217 50.4788 320.699 50.6326 321.175C50.628 321.651 50.6171 322.76 49.8234 322.911C48.8697 323.218 48.5636 322.106 48.5667 321.789Z" fill="#42D4C6"/>
<path d="M82.916 325.451C83.236 325.138 83.7113 325.142 83.8666 325.461C84.182 325.622 84.1742 326.414 84.0127 326.73C83.8512 327.045 83.2189 326.88 82.9052 326.56C82.7498 326.242 82.5976 325.607 82.916 325.451Z" fill="#42D4C6"/>
<path d="M65.509 323.063C65.9951 321.958 66.7904 321.649 68.2117 322.138C69.3162 322.624 69.6237 323.578 68.9776 324.839C68.6514 325.787 67.8546 326.255 67.0655 325.93C66.2749 325.764 65.1843 323.852 65.509 323.063Z" fill="#42D4C6"/>
<path d="M49.2101 304.523C49.8454 304.37 50.6252 305.646 50.4559 306.753C50.2867 307.861 48.7023 307.845 48.0716 307.522C47.5994 307.201 48.5748 304.675 49.2101 304.523Z" fill="#42D4C6"/>
<path d="M99.9046 354.298C99.576 355.562 97.9839 356.339 96.8769 356.011C95.7716 355.684 94.9964 353.933 95.4847 352.67C95.8102 351.723 96.7652 351.257 98.0303 351.586C99.1356 351.914 100.232 353.35 99.9046 354.298Z" fill="#42D4C6"/>
<path d="M10.6966 256.769C11.6503 256.461 12.7486 257.581 12.8962 258.692C13.0422 259.961 12.3992 260.905 11.1286 261.21C9.85796 261.514 8.75507 260.869 8.60591 259.917C8.45985 258.648 9.42596 257.073 10.6966 256.769Z" fill="#42D4C6"/>
<path d="M6.69907 260.533C7.6528 260.225 9.07103 261.032 9.53706 261.987C9.8462 262.782 9.36005 263.887 8.40787 264.036C7.45413 264.343 6.1928 263.697 5.88675 262.585C5.57916 261.631 5.90378 260.842 6.69907 260.533Z" fill="#42D4C6"/>
<path d="M104.384 350.063C104.071 349.585 104.077 348.951 104.399 348.479C105.043 347.534 105.832 347.859 106.939 348.028C107.088 348.98 107.554 349.936 106.438 350.558C106.28 350.557 106.278 350.715 106.12 350.714C106.588 351.511 106.734 352.78 106.41 353.41C106.086 354.2 105.291 354.509 104.345 354.024C103.082 353.536 102.46 352.263 102.787 351.315C103.266 350.844 103.747 350.374 104.384 350.063Z" fill="#42D4C6"/>
<path d="M77.6043 350.118C77.7658 349.803 78.0889 349.172 78.4042 349.334C78.878 349.497 78.8718 350.131 78.7118 350.288C78.5503 350.603 78.3872 351.077 77.9134 350.914C77.4397 350.75 77.6027 350.277 77.6043 350.118Z" fill="#42D4C6"/>
<path d="M52.7684 280.948C52.6177 280.155 53.2623 279.052 54.0545 279.059C54.8482 278.909 55.7911 279.71 55.9418 280.504C56.0925 281.298 55.4495 282.242 54.8142 282.394C53.8635 282.385 52.9175 281.9 52.7684 280.948Z" fill="#42D4C6"/>
<path d="M23.9484 295.245C23.9515 294.928 24.1146 294.455 24.433 294.299C24.7514 294.144 25.2221 294.624 25.379 294.784C25.5344 295.102 25.3682 295.893 25.0498 296.048C24.5744 296.044 23.9469 295.404 23.9484 295.245Z" fill="#42D4C6"/>
<path d="M37.8814 280.169C37.7338 279.059 38.8584 277.485 40.129 277.181C41.0827 276.873 42.0272 277.516 42.3317 278.787C42.6346 280.216 42.15 281.162 40.5625 281.463C39.2935 281.609 38.0306 281.122 37.8814 280.169Z" fill="#42D4C6"/>
<path d="M23.5337 289.061C23.5383 288.585 23.8598 288.113 24.0229 287.639C24.9751 287.49 25.7611 288.132 25.9118 288.926C26.0625 289.719 25.5857 289.873 24.9504 290.025C24.1566 290.176 23.5275 289.695 23.5337 289.061Z" fill="#42D4C6"/>
<path d="M17.7609 279.814C17.4518 279.019 17.7764 278.23 18.7317 277.764C19.2101 277.451 19.8454 277.299 20.1669 276.827C20.8084 276.041 21.6053 275.573 22.5543 275.741C23.345 275.907 24.1186 277.816 23.9525 278.607C23.7863 279.398 23.6186 280.347 22.351 280.334C21.4004 280.325 20.6066 280.476 19.656 280.466C18.8576 281.092 18.0701 280.609 17.7609 279.814Z" fill="#42D4C6"/>
<path d="M16.3669 276.473C16.2116 276.154 16.3777 275.364 16.6962 275.208C17.0146 275.053 17.6422 275.693 17.6391 276.01C17.636 276.327 17.6313 276.802 17.1545 276.956C16.9945 277.113 16.5238 276.633 16.3669 276.473Z" fill="#42D4C6"/>
<path d="M17.0644 269.983C17.7013 269.672 18.8057 270.158 18.7995 270.792C18.7949 271.268 18.6225 272.692 17.9872 272.844C17.1935 272.995 16.7274 272.04 16.5736 271.563C16.2614 271.084 16.4276 270.294 17.0644 269.983Z" fill="#42D4C6"/>
<path d="M54.1548 301.244C54.1656 300.135 55.4455 298.88 56.5577 298.574C57.193 298.421 57.8252 298.586 58.1359 299.223C58.7542 300.813 59.054 302.559 58.5617 304.297C58.4002 304.613 58.2386 304.928 58.0802 304.927C56.8003 306.182 55.219 305.849 54.6007 304.259C54.2916 303.463 54.1439 302.353 54.1548 301.244Z" fill="#42D4C6"/>
<path d="M84.934 313.428C85.5785 312.325 86.3754 311.858 87.0061 312.181C87.6367 312.504 87.9381 314.091 87.6151 314.722C87.2935 315.194 85.8645 315.497 85.2338 315.174C84.6031 314.851 84.4524 314.057 84.934 313.428Z" fill="#42D4C6"/>
<path d="M102.718 325.803C102.253 324.848 103.058 323.588 104.011 323.281C104.488 323.127 105.121 323.133 105.595 323.296C105.921 322.349 106.877 321.883 107.665 322.366C108.138 322.529 108.449 323.166 108.601 323.801C108.756 324.119 108.91 324.596 108.747 325.07C108.586 325.385 108.107 325.698 107.633 325.693C107.473 325.691 107.158 325.53 107.002 325.37C106.995 326.004 106.673 326.476 106.513 326.633C105.873 327.26 105.242 327.096 104.453 326.771C103.822 326.448 103.028 326.599 102.718 325.803Z" fill="#42D4C6"/>
<path d="M107.505 338.526C107.507 338.367 107.667 338.369 107.668 338.21C107.036 338.046 106.248 337.563 105.619 337.081C104.834 336.281 104.854 334.222 105.812 333.439C106.769 332.814 108.986 332.994 109.606 334.426C110.071 335.54 110.063 336.332 109.738 337.121C110.214 337.126 110.53 337.129 111.004 337.292C111.794 337.617 112.094 339.204 111.611 340.15C110.964 341.412 109.851 341.718 108.749 341.073C107.645 340.587 107.022 339.472 107.505 338.526Z" fill="#42D4C6"/>
<path d="M74.3607 325.209C73.4147 324.725 73.1133 323.137 73.601 321.874C74.0872 320.77 75.0409 320.462 76.4607 321.11C77.2498 321.434 77.7127 322.707 77.5466 323.497C77.062 324.443 74.9914 325.532 74.3607 325.209Z" fill="#42D4C6"/>
<path d="M112.478 332.554C112.479 332.396 112.954 332.4 112.954 332.4C113.114 332.402 113.269 332.72 113.109 332.877C112.948 333.034 112.788 333.191 112.472 333.188C112.473 333.029 112.476 332.712 112.478 332.554Z" fill="#42D4C6"/>
<path d="M78.7383 315.111C78.5783 315.268 78.5752 315.585 78.4168 315.583L77.943 315.42C77.9446 315.261 77.9477 314.945 78.1077 314.788C78.4245 314.791 78.5814 314.951 78.7383 315.111Z" fill="#42D4C6"/>
<path d="M79.3222 320.188C79.4852 319.714 79.6468 319.399 79.9667 319.085C79.1792 318.602 79.1807 318.444 79.03 317.65C78.8778 317.014 79.1993 316.542 79.2008 316.384C79.8331 316.548 81.2621 316.245 81.5713 317.041C81.7251 317.518 81.4035 317.99 81.0836 318.304C81.4004 318.307 81.5589 318.308 81.8758 318.311C82.6649 318.636 83.2816 320.385 82.797 321.331C82.4739 321.962 80.7264 322.42 80.0958 322.097C79.4636 321.932 78.9975 320.977 79.3222 320.188Z" fill="#42D4C6"/>
<path d="M69.1942 318.822C69.3604 318.031 69.2081 317.396 68.8974 316.759C68.7421 316.44 69.2251 315.653 69.702 315.499C70.0204 315.344 70.8126 315.351 71.128 315.513C71.4433 315.674 71.5955 316.31 71.4325 316.783C71.2663 317.574 70.9417 318.363 70.777 318.995C70.6124 319.628 70.1356 319.781 69.3464 319.457C69.348 319.298 69.1927 318.98 69.1942 318.822Z" fill="#42D4C6"/>
<path d="M111.436 325.572C112.55 325.108 113.341 325.274 114.282 326.234C115.38 327.354 115.367 328.621 115.197 329.887C115.828 330.21 116.462 330.216 116.933 330.538C117.091 330.698 117.248 330.858 117.404 331.018C117.556 331.653 117.708 332.288 117.702 332.922C117.541 333.237 117.222 333.551 116.584 333.862C115.15 334.64 113.89 333.994 113.428 332.563C113.274 332.087 113.279 331.611 113.13 330.659C112.493 330.97 111.857 331.122 111.696 331.437C110.893 332.539 109.941 332.688 108.837 332.043C108.523 331.882 108.205 331.879 107.889 331.876C106.782 331.706 106.152 331.225 106.318 330.434C106.486 329.485 107.282 329.017 108.546 329.505C108.704 329.507 108.703 329.665 108.861 329.667C109.493 329.831 109.971 329.678 109.819 328.884C109.822 328.567 109.665 328.407 109.668 328.09C109.837 326.982 110.481 326.038 111.436 325.572Z" fill="#42D4C6"/>
<path d="M64.3069 267.592C65.1038 267.125 66.2067 267.769 66.3543 268.88C66.3496 269.355 65.5512 269.981 64.7606 269.815C63.9699 269.649 63.5101 268.06 64.3069 267.592Z" fill="#42D4C6"/>
<path d="M97.5361 288.516C97.8494 288.994 98.319 289.474 98.6323 289.952L98.4742 289.951C98.0013 289.629 97.6913 288.993 97.5361 288.516Z" fill="#42D4C6"/>
<path d="M85.4305 278.891C84.7967 278.884 84.1661 278.561 84.0138 277.926C84.0185 277.451 84.0262 276.658 84.3462 276.345C84.1893 276.185 84.1924 275.868 84.0355 275.708C84.0386 275.391 83.8832 275.073 83.8848 274.914C86.2428 276.839 88.4408 278.92 90.638 281.16C90.7899 281.795 90.6241 282.586 90.3016 283.058C91.0922 283.224 91.7186 284.022 91.8674 284.975C92.1713 286.404 91.5295 287.19 89.942 287.491C88.6707 287.796 87.4098 287.15 87.2606 286.197C87.1099 285.404 87.5945 284.458 88.236 283.672C86.9716 283.342 86.664 282.389 86.3471 282.385C86.0302 282.382 84.5965 283.161 84.132 282.047C83.5168 280.139 84.949 279.52 85.4305 278.891Z" fill="#42D4C6"/>
<path d="M21.0469 251.641C20.727 251.955 20.2501 252.109 19.6163 252.103C18.8241 252.095 17.875 251.927 17.0844 251.761C18.3535 251.615 19.7794 251.629 21.0469 251.641Z" fill="#42D4C6"/>
<path d="M105.018 301.266C105.179 300.951 105.34 300.635 105.661 300.322C104.553 300.152 103.454 299.191 102.992 297.76C102.84 297.125 102.844 296.65 103.165 296.177C105.351 299.526 107.378 303.032 109.086 306.535C108.292 306.685 107.182 306.833 106.235 306.348C104.661 305.224 104.373 302.369 105.018 301.266Z" fill="#42D4C6"/>
<path d="M24.8478 251.837C24.5232 252.626 23.7295 252.777 22.6188 252.925C22.465 252.448 22.1513 252.128 21.9959 251.809C22.9481 251.66 23.8987 251.669 24.8478 251.837Z" fill="#42D4C6"/>
<path d="M59.248 266.434C59.0973 265.64 59.5803 264.853 60.5325 264.704C61.3263 264.553 62.1154 264.878 62.2661 265.671C62.4168 266.465 61.6137 267.566 60.8215 267.559C60.1862 267.711 59.3987 267.228 59.248 266.434Z" fill="#42D4C6"/>
<path d="M30.8146 257.441C31.1408 256.493 31.6207 256.022 32.2576 255.712C32.2591 255.553 32.1022 255.393 32.1022 255.393C31.7977 254.123 32.2808 253.335 33.2376 252.711C35.928 253.054 38.4584 253.554 41.1472 254.056C41.3041 254.216 41.301 254.532 41.2979 254.849C41.1318 255.64 40.1765 256.106 39.0674 256.095C38.7412 257.043 37.9397 257.986 36.986 258.293C36.5091 258.447 36.0354 258.284 35.4032 258.119C35.4016 258.278 35.4001 258.436 35.3985 258.595C35.3877 259.704 33.7894 261.114 32.6818 260.945C31.7343 260.619 30.3254 258.862 30.8146 257.441Z" fill="#42D4C6"/>
<path d="M69.877 281.432C69.5741 280.003 70.5433 278.111 71.9708 277.967C73.5583 277.665 75.2918 278.633 75.5948 280.062C75.5917 280.379 75.7486 280.539 75.7455 280.856C75.9039 280.857 76.0608 281.017 76.2192 281.019C76.6915 281.34 77.6359 281.983 77.3128 282.614C76.9898 283.245 75.7223 283.232 75.2485 283.069C75.0901 283.068 74.9332 282.908 74.7778 282.589C74.4594 282.744 73.981 283.057 73.5057 283.052C71.4397 283.666 70.1784 283.02 69.877 281.432Z" fill="#42D4C6"/>
<path d="M24.7812 258.649C25.8934 258.343 26.8363 259.145 26.9808 260.572C27.1315 261.366 26.3269 262.626 25.5332 262.776C24.581 262.926 22.5305 261.955 22.3798 261.161C22.3907 260.052 23.5106 258.954 24.7812 258.649Z" fill="#42D4C6"/>
<path d="M16.6604 262.689C16.6619 262.531 16.5035 262.529 16.505 262.371C16.3543 261.577 16.9974 260.633 17.6327 260.481C18.4264 260.33 19.3709 260.973 19.68 261.768C19.8307 262.562 19.3492 263.191 18.7139 263.343C18.7139 263.343 18.7124 263.502 18.8708 263.503C19.0215 264.297 18.5369 265.243 17.9 265.554C17.1048 265.863 16.3187 265.221 16.0096 264.426C15.5405 263.788 15.8651 262.999 16.6604 262.689Z" fill="#42D4C6"/>
<path d="M3.00086 266.042C2.84861 265.407 4.28076 264.787 4.4392 264.788C5.07141 264.953 6.02051 265.121 6.17121 265.915C6.32192 266.708 5.52662 267.017 5.20974 267.014C4.73597 266.851 3.15466 266.519 3.00086 266.042Z" fill="#42D4C6"/>
<path d="M29.3832 257.902C29.697 258.222 29.6908 258.855 29.5308 259.012C29.2108 259.326 28.5724 259.795 28.0971 259.791C27.148 259.623 27.1557 258.831 27.1635 258.038C27.9618 257.412 28.7556 257.262 29.3832 257.902Z" fill="#42D4C6"/>
<path d="M18.8259 268.099C18.8321 267.465 18.8383 266.831 19.632 266.681C20.1074 266.685 21.5318 266.858 21.684 267.493C21.8363 268.128 20.5626 268.75 20.0857 268.903C19.4488 269.214 18.9766 268.892 18.8259 268.099Z" fill="#42D4C6"/>
<path d="M95.7426 342.531C93.0652 340.762 93.879 338.552 95.4789 336.983C95.9611 336.354 96.5983 336.043 97.3905 336.051C98.3423 335.901 99.1314 336.226 100.076 336.869C101.02 337.512 102.131 337.365 102.595 338.478C103.217 339.752 103.669 342.133 101.908 344.018C100.787 345.116 99.6758 345.422 98.5673 345.253C97.1457 344.922 97.0014 343.336 95.7426 342.531Z" fill="#42D4C6"/>
<path d="M21.3144 256.714C21.319 256.239 21.799 255.768 22.2758 255.614C22.4343 255.616 22.9096 255.621 23.2249 255.782C23.068 255.622 23.0711 255.305 23.0727 255.147C23.2388 254.356 25.1448 253.899 25.4555 254.536C25.7661 255.173 25.1169 256.751 24.1678 256.584C24.0094 256.582 23.8525 256.422 23.6941 256.42C23.6894 256.896 22.731 257.679 22.5726 257.677C22.0988 257.514 21.1528 257.029 21.3144 256.714Z" fill="#42D4C6"/>
<path d="M118.049 346.077C118.212 345.603 118.849 345.292 119.327 345.139C119.316 346.248 119.465 347.2 119.454 348.309L119.296 348.307C118.665 347.984 117.886 346.551 118.049 346.077Z" fill="#42D4C6"/>
<path d="M56.4126 280.984C56.1112 279.396 56.4389 278.29 57.3926 277.983C57.3942 277.824 57.3942 277.824 57.3957 277.666C57.7203 276.877 58.3572 276.566 59.1479 276.732C60.0954 277.058 60.8752 278.334 60.5521 278.964C60.5506 279.123 60.2322 279.278 59.9138 279.433C60.0645 280.227 58.9415 281.642 57.9877 281.95C57.1924 282.259 56.5633 281.777 56.4126 280.984Z" fill="#42D4C6"/>
<path d="M71.3702 290.796C71.2195 290.002 72.1794 289.061 73.2916 288.755C73.7685 288.601 74.0853 288.604 74.4007 288.765L74.4022 288.607C74.7284 287.66 76.4774 287.043 77.4249 287.369C78.214 287.694 78.8323 289.284 78.3477 290.23C78.0247 290.861 76.9094 291.484 76.2787 291.161C76.1218 291.001 75.805 290.998 75.6481 290.838C75.4819 291.628 75.0004 292.257 74.3635 292.568C73.4082 293.034 71.6747 292.066 71.3702 290.796Z" fill="#42D4C6"/>
<path d="M90.2192 291.455C90.2239 290.98 89.9169 290.026 90.5572 289.398C91.1943 288.929 93.557 290.378 93.7136 290.697C93.8686 291.015 94.0144 292.284 94.9662 292.135C95.1243 292.137 95.1243 292.137 95.2857 291.98C94.6531 291.815 94.1802 291.494 94.1864 290.86C94.036 290.066 94.6763 289.438 95.4701 289.288C96.2638 289.137 97.2079 289.78 97.2002 290.572C97.1971 290.889 97.1955 291.048 97.0343 291.363C97.1924 291.364 97.3506 291.366 97.5087 291.368C98.4575 291.694 100.51 292.348 100.653 293.934C100.799 295.361 99.5319 295.19 98.8916 295.818C98.5723 296.132 98.2529 296.287 97.9367 296.284C99.0435 296.453 100.302 297.416 100.608 298.528C100.606 298.687 100.763 299.005 100.761 299.164C100.92 299.165 101.236 299.168 101.392 299.328C101.865 299.65 102.495 300.131 102.647 300.767C102.794 301.877 101.678 302.659 100.885 302.651C101.357 302.972 101.83 303.294 102.462 303.459C102.777 303.62 103.247 304.258 103.4 304.735C103.55 305.529 103.862 306.166 104.014 306.801C104.321 307.755 103.836 308.859 103.041 309.169C102.563 309.322 102.247 309.319 101.771 309.315C100.341 309.618 99.2392 308.973 98.9352 307.544C98.7833 306.909 98.9461 306.435 99.1105 305.961C98.9507 305.959 98.9507 305.959 98.7926 305.958C98.002 305.792 97.5323 305.312 97.5385 304.678C97.388 303.726 98.0283 303.098 98.667 302.629C99.1461 302.317 99.4638 302.162 99.9383 302.325C99.7801 302.165 99.625 301.846 99.6281 301.529C99.1507 301.842 98.6716 302.154 98.036 302.306C96.6051 302.767 95.3463 301.963 94.8842 300.532C94.4238 299.102 95.3942 297.051 96.9833 296.591L97.1414 296.593C96.8252 296.59 96.667 296.43 96.3523 296.268C95.4082 295.625 94.943 294.512 94.4702 294.349C93.9958 294.185 93.2036 294.178 93.0378 294.968C92.875 295.442 92.5525 295.914 91.9169 296.067C91.9107 296.7 91.4302 297.329 90.7945 297.482C90.0008 297.632 89.0551 297.148 88.9047 296.354C88.9078 296.037 88.9094 295.879 89.0706 295.563C88.1274 294.762 87.8259 293.174 88.624 292.548C89.4255 291.606 90.0565 291.929 90.2192 291.455Z" fill="#42D4C6"/>
<path d="M83.2308 293.129C83.8614 293.452 84.1706 294.248 84.0044 295.038C83.8429 295.354 83.6813 295.669 83.3629 295.824C83.3629 295.824 83.3629 295.824 83.5214 295.826C85.1119 295.208 86.0487 296.643 86.5162 297.44C86.9838 298.237 85.7024 299.65 84.2749 299.795C83.3242 299.785 82.8536 299.305 82.7013 298.67C82.3937 297.716 82.723 296.452 83.3598 296.141C83.0414 296.297 82.7245 296.294 82.4092 296.132C81.6201 295.807 81.1525 295.011 81.4771 294.221C81.6448 293.272 82.6001 292.806 83.2308 293.129Z" fill="#42D4C6"/>
<path d="M55.2022 307.593C55.5222 307.279 56.1529 307.602 56.3097 307.762C56.4666 307.922 56.6189 308.558 56.4574 308.873C56.2958 309.188 55.6636 309.024 55.3483 308.862C55.3498 308.704 55.0407 307.908 55.2022 307.593Z" fill="#42D4C6"/>
<path d="M81.4842 342.233C80.3767 342.064 79.906 341.584 79.9168 340.475C79.9292 339.207 81.0476 338.268 82.4735 338.282C83.8995 338.296 83.8917 339.088 84.8424 339.097C85.6346 339.105 85.9468 339.583 86.256 340.378C86.5651 341.174 86.8681 342.603 85.5974 342.907C84.3268 343.212 84.0177 342.416 84.0208 342.1C84.0239 341.783 83.3948 341.301 83.2332 341.617C83.0717 341.932 82.5917 342.403 81.4842 342.233Z" fill="#42D4C6"/>
<path d="M63.2777 308.147C63.9115 308.153 64.5421 308.476 64.8544 308.954C65.1666 309.433 64.522 310.536 63.7298 310.528C63.2545 310.523 62.7823 310.202 62.467 310.04C62.3193 308.929 62.6455 307.982 63.2777 308.147Z" fill="#42D4C6"/>
<path d="M68.0596 289.02C68.3796 288.706 69.0226 287.762 69.8117 288.087C70.5993 288.57 70.43 289.677 70.2669 290.151C70.1023 290.783 69.3101 290.775 68.8363 290.612C68.0457 290.446 67.5797 289.491 68.0596 289.02Z" fill="#42D4C6"/>
<path d="M33.1575 277.112C34.1112 276.805 35.0557 277.448 35.2064 278.241C35.3571 279.035 34.7156 279.821 33.9218 279.972C33.1281 280.122 32.339 279.798 32.1883 279.004C31.8807 278.05 32.3637 277.263 33.1575 277.112Z" fill="#42D4C6"/>
</g>
<path d="M250.635 -232.103L252.078 228.388C252.098 234.985 246.768 240.349 240.172 240.369C233.575 240.39 228.211 235.06 228.191 228.463L226.748 -232.029C226.728 -238.625 232.058 -243.989 238.654 -244.01C245.251 -244.03 250.615 -238.7 250.635 -232.103Z" fill="#E6EBF2"/>
<path d="M194.671 -304.917L196.113 155.575C196.134 162.171 190.803 167.535 184.207 167.556C177.611 167.577 172.246 162.246 172.226 155.65L170.783 -304.842C170.763 -311.438 176.093 -316.802 182.69 -316.823C189.286 -316.844 194.65 -311.513 194.671 -304.917Z" fill="#E6EBF2"/>
<path d="M228.378 288.181C228.357 281.585 233.688 276.221 240.284 276.2C246.881 276.179 252.245 281.51 252.265 288.106C252.286 294.702 246.955 300.067 240.359 300.087C233.763 300.108 228.399 294.777 228.378 288.181Z" fill="#006BB4"/>
<defs>
<clipPath id="clip0_250_176823">
<rect width="198.059" height="198.059" fill="white" transform="matrix(-0.00976503 0.999952 0.999952 0.00976503 -77.5029 250.679)"/>
</clipPath>
</defs>
</svg>
