<svg width="17" height="15" viewBox="0 0 17 15" fill="none" xmlns="http://www.w3.org/2000/svg">
<path d="M12.0104 14.5178L9.12177 14.5174C9.38627 14.5174 9.61727 14.3768 9.74087 14.1679L13.6617 7.52671L11.1855 3.33203L14.0737 3.33218C14.3206 3.33239 14.5605 3.45778 14.6928 3.68183L16.5505 6.82777C16.7968 7.24605 16.8148 7.77789 16.5502 8.226L13.2486 13.8189C13.0015 14.2367 12.5395 14.5178 12.0104 14.5178ZM11.653 13.1197C11.653 13.3127 11.8131 13.4692 12.0104 13.4692C12.2078 13.4692 12.3678 13.3127 12.3678 13.1197C12.3678 12.9266 12.2078 12.7702 12.0104 12.7702C11.8131 12.7702 11.653 12.9266 11.653 13.1197ZM15.1336 7.82958C15.3045 7.92606 15.523 7.86879 15.6217 7.70165C15.7204 7.53452 15.6618 7.32081 15.4909 7.22429C15.32 7.12781 15.1015 7.18502 15.0028 7.35221C14.9041 7.51935 14.9627 7.7331 15.1336 7.82958Z" fill="#DB4437"/>
<path d="M13.2489 1.23492L14.6928 3.68188C14.5605 3.45778 14.3206 3.33244 14.0738 3.33224L6.2328 3.33188L3.7566 7.5265L2.31261 5.0801C2.18938 4.87097 2.1804 4.60502 2.31266 4.38092L4.16949 1.23457C4.41673 0.816699 4.87868 0.535583 5.40775 0.535583L12.0109 0.535634C12.5045 0.536091 12.9843 0.786772 13.2489 1.23492ZM5.76509 1.93376C5.76509 1.7407 5.60509 1.58421 5.40769 1.58421C5.21035 1.58421 5.0503 1.7407 5.0503 1.93376C5.0503 2.12682 5.21035 2.2833 5.40769 2.2833C5.60509 2.2833 5.76509 2.12682 5.76509 1.93376ZM12.1896 2.23668H12.1895C12.3604 2.14016 12.419 1.92645 12.3203 1.75926C12.2216 1.59213 12.0031 1.53486 11.8322 1.63139C11.6612 1.72787 11.6027 1.94162 11.7014 2.10876C11.8001 2.2759 12.0186 2.33316 12.1896 2.23668Z" fill="#4285F4"/>
<path d="M0.867927 6.82743H0.867875L2.31265 4.38098C2.18034 4.60503 2.18932 4.87098 2.31255 5.08012L6.23279 11.7216H11.1851L9.74092 14.1679C9.61728 14.3768 9.38633 14.5174 9.12177 14.5174L5.40727 14.5178C4.91373 14.5174 4.43384 14.2667 4.16928 13.8186L0.867667 8.22565C0.621313 7.80738 0.603368 7.27558 0.867927 6.82743ZM2.28459 7.22389C2.11365 7.12737 1.89514 7.18463 1.79645 7.35177C1.6978 7.51896 1.75636 7.73266 1.92725 7.82919C2.09814 7.92572 2.3167 7.86845 2.41534 7.70126C2.51404 7.53413 2.45548 7.32037 2.28459 7.22389ZM5.22865 12.8169C5.05776 12.9134 4.99915 13.1271 5.09785 13.2943C5.1965 13.4615 5.41505 13.5187 5.58599 13.4222C5.75689 13.3257 5.81544 13.112 5.71674 12.9448C5.6181 12.7777 5.39954 12.7204 5.22865 12.8169Z" fill="#F4B400"/>
<path opacity="0.1" fill-rule="evenodd" clip-rule="evenodd" d="M9.7411 14.1679L11.1854 11.7217H9.6938L9.12195 14.5175C9.38651 14.5175 9.61751 14.3769 9.7411 14.1679Z" fill="black"/>
<path opacity="0.1" fill-rule="evenodd" clip-rule="evenodd" d="M14.0739 3.33238L11.1857 3.33228L11.9314 4.59557L14.693 3.68202C14.5607 3.45797 14.3207 3.33258 14.0739 3.33238Z" fill="black"/>
<g opacity="0.1">
<mask id="mask0_515_175900" style="mask-type:alpha" maskUnits="userSpaceOnUse" x="2" y="4" width="3" height="4">
<g opacity="0.1">
<path opacity="0.1" d="M4.50273 4.38123H2.21716V7.52673H4.50273V4.38123Z" fill="white"/>
</g>
</mask>
<g mask="url(#mask0_515_175900)">
<path opacity="0.1" fill-rule="evenodd" clip-rule="evenodd" d="M2.31267 5.08006L3.75662 7.52646L4.50242 6.26316L2.31267 4.38092C2.18047 4.60497 2.18944 4.87092 2.31267 5.08006Z" fill="black"/>
</g>
</g>
<path d="M6.23276 11.7216L3.75641 7.52672L6.23276 3.33185H11.1854L13.6617 7.52672L11.1854 11.7216H6.23276ZM10.8534 7.52672C10.8534 6.36843 9.89332 5.42951 8.70906 5.42951C7.52479 5.42951 6.56474 6.36843 6.56474 7.52672C6.56474 8.68497 7.52479 9.62393 8.70906 9.62393C9.89332 9.62393 10.8534 8.68497 10.8534 7.52672Z" fill="#CCCCCC"/>
</svg>
