<svg width="65" height="65" viewBox="0 0 65 65" fill="none" xmlns="http://www.w3.org/2000/svg">
<g clip-path="url(#clip0_1642_453677)">
<path d="M64.3142 0.314003V16.252L48.4102 32.154V16.184L64.3142 0.314003Z" fill="#A596FF"/>
<path d="M32.5059 0.314003V16.252L48.4099 32.154V16.184L32.5059 0.314003Z" fill="#333333"/>
<path d="M64.3459 63.96H48.4099L32.5059 48.058H48.4759L64.3459 63.96Z" fill="#A596FF"/>
<path d="M64.3459 32.154H48.4099L32.5059 48.058H48.4759L64.3459 32.154Z" fill="#333333"/>
<path d="M0.700195 63.994V48.058L16.6042 32.154V48.124L0.700195 63.994Z" fill="#A596FF"/>
<path d="M32.508 63.994V48.058L16.604 32.154V48.124L32.508 63.994Z" fill="#333333"/>
<path d="M0.667969 0.346001H16.604L32.508 16.25H16.538L0.667969 0.346001Z" fill="#A596FF"/>
<path d="M0.667969 32.154H16.604L32.508 16.25H16.538L0.667969 32.154Z" fill="#333333"/>
</g>
<defs>
<clipPath id="clip0_1642_453677">
<rect width="64" height="64" fill="white" transform="translate(0.5 0.25)"/>
</clipPath>
</defs>
</svg>
